<svg width="470" height="512" viewBox="0 0 470 512" fill="none" xmlns="http://www.w3.org/2000/svg">
<path d="M22.1245 216.914C19.1586 218.849 18.3232 222.818 20.257 225.787L20.3456 225.92C22.517 228.844 26.6196 229.515 29.6107 227.436C32.5796 225.546 33.4542 221.606 31.5634 218.638L31.4274 218.434C29.2545 215.484 25.1242 214.809 22.1245 216.914Z" fill="#D1891B"/>
<path d="M274.877 266.39L274.618 267.09C274.989 266.794 275.359 265.237 274.877 266.39Z" fill="#24356C"/>
<path d="M72.8242 365.971H117.187L137.236 364.04H92.8747L72.8242 365.971Z" fill="#24356C"/>
<path d="M141.756 332.284C131.307 323.967 125.454 311.159 126.005 297.813C126.005 276.693 135.42 270.096 126.264 260.053L115.479 258.2H71.0068L81.7918 260.053C90.9472 270.096 81.5327 276.693 81.5327 297.813C80.9813 311.159 86.8342 323.967 97.2834 332.284C100.053 334.299 103.132 335.852 106.401 336.876C109.441 337.791 112.6 338.254 115.776 338.247H160.249C157.072 338.254 153.914 337.793 150.873 336.876C147.604 335.852 144.525 334.299 141.756 332.284Z" fill="#24356C"/>
<path d="M104.622 426.265H148.983L165.845 414.335H121.484L104.622 426.265Z" fill="#676BE4"/>
<path d="M147.907 474.629H192.269L208.427 454.471H164.067L147.907 474.629Z" fill="#676BE4"/>
<path d="M271.06 412.185C269.233 414.294 267.091 416.117 264.723 417.596V416.818C265.349 411.199 269.604 406.667 275.174 405.7H275.471C274.318 408.056 272.828 410.24 271.06 412.185ZM307.861 332.432C307.487 332.142 307.079 331.906 306.638 331.728C305.89 331.394 305.123 331.108 304.341 330.871C302.384 330.26 300.349 329.934 298.3 329.908H264.686C264.089 328.029 263.789 326.065 263.797 324.093L264.686 306.563L263.463 306.193C257.949 306.052 252.604 304.229 248.157 300.968C232.592 289.589 228.515 263.648 228.219 261.943H183.746C184.006 263.648 188.082 289.589 203.648 300.968C208.106 304.239 213.461 306.064 218.991 306.193L220.177 306.563L219.287 324.093C219.076 329.548 221.522 334.769 225.847 338.098C226.97 338.936 228.222 339.587 229.553 340.029C230.613 340.352 231.71 340.511 232.814 340.511H269.43C272.947 347.33 275.552 354.582 277.175 362.08C281.104 379.424 280.326 394.916 275.285 405.403H232.369C231.828 405.414 231.291 405.5 230.776 405.663C225.209 406.633 220.947 411.163 220.325 416.781L222.66 476.078H213.506L202.388 505.019H246.86L257.459 477.782H267.317L265.057 419.412H302.562C307.787 418.908 312.557 416.219 315.681 412C324.539 402.254 326.799 383.497 322.056 361.892C318.275 346.885 312.309 335.653 307.861 332.432Z" fill="#676BE4"/>
<path d="M239.558 334.804C238.246 336.575 236.167 337.608 233.962 337.584H278.434C280.64 337.605 282.715 336.568 284.031 334.804C287.596 329.927 293.259 327.024 299.3 326.98H254.827C248.786 327.024 243.123 329.927 239.558 334.804Z" fill="#7FD2F5"/>
<path d="M291.592 418.112C290.443 417.3 289.331 416.373 288.257 415.48C285.959 413.556 283.884 411.774 281.994 410.258C281.074 409.517 280.033 408.942 278.918 408.55C278.502 408.409 278.061 408.334 277.62 408.331H233.148C233.589 408.334 234.03 408.409 234.445 408.55C235.561 408.942 236.602 409.517 237.521 410.258C239.411 411.626 241.487 413.556 243.784 415.48C244.859 416.373 245.971 417.3 247.12 418.112C249.28 419.742 251.697 420.994 254.272 421.818C255.699 422.274 257.185 422.514 258.683 422.526H303.155C301.658 422.514 300.172 422.274 298.745 421.818C296.169 420.994 293.753 419.742 291.592 418.112Z" fill="#7FD2F5"/>
<path d="M301.598 267.317C301.083 267.157 300.59 266.946 300.116 266.687C300.245 266.286 300.316 265.879 300.338 265.464H255.866C255.843 265.879 255.773 266.286 255.643 266.687C256.118 266.946 256.61 267.157 257.126 267.317C257.782 267.502 258.449 267.639 259.127 267.721C265.353 268.428 278.361 269.207 279.399 269.24H323.871C322.834 269.24 309.825 268.428 303.599 267.721C302.921 267.639 302.254 267.502 301.598 267.317Z" fill="#7FD2F5"/>
<path d="M359.041 462.699L368.492 450.172L359.041 462.699ZM392.396 274.729C390.52 274.147 388.756 273.254 387.17 272.097C382.097 268.161 378.917 262.269 378.424 255.861C377.39 250.402 379.836 244.873 384.576 241.964C390.357 239.077 394.026 227.992 395.435 219.397C396.002 209.543 392.614 199.874 386.021 192.529C384.135 190.298 381.978 188.304 379.61 186.599C376.652 184.442 373.358 182.789 369.863 181.707C366.498 180.692 362.999 180.18 359.486 180.184H315.014C318.538 180.18 322.051 180.692 325.428 181.707C328.907 182.8 332.187 184.453 335.137 186.599C337.505 188.304 339.662 190.298 341.549 192.529C349.183 201.46 352.074 212.801 350.962 219.397C349.554 227.992 345.885 239.077 340.103 241.964C335.371 244.88 332.929 250.402 333.951 255.861C334.444 262.269 337.624 268.161 342.698 272.097C344.284 273.254 346.048 274.147 347.923 274.729C358.263 277.875 396.102 283.067 397.695 283.327H399.289L425.491 300.633L423.786 322.532L395.175 324.2L387.355 354.853L407.664 381.829L403.514 392.614H372.383L356.966 415.183L366.75 443.65H333.877L313.679 456.807L315.681 473.15H283.994L263.759 478.264L260.053 511.1H304.525L305.786 499.759H349.665L362.525 492.347L359.004 463.922H402.143L413.261 449.316L401.512 415.036L410.481 401.92H444.095L452.174 381.871L431.865 354.891L439.685 324.238L468.295 322.573L470 300.671L440.574 280.399C440.574 280.399 402.587 277.875 392.396 274.729Z" fill="#4DADDD"/>
<path d="M239.558 334.804C238.246 336.575 236.167 337.608 233.962 337.584H278.434C280.64 337.605 282.715 336.568 284.031 334.804C287.596 329.927 293.259 327.024 299.3 326.98H254.827C248.786 327.024 243.123 329.927 239.558 334.804Z" fill="#7FD2F5"/>
<path d="M291.592 418.112C290.443 417.3 289.331 416.373 288.257 415.48C285.959 413.556 283.884 411.774 281.994 410.258C281.074 409.517 280.033 408.942 278.918 408.55C278.502 408.409 278.061 408.334 277.62 408.331H233.148C233.589 408.334 234.03 408.409 234.445 408.55C235.561 408.942 236.602 409.517 237.521 410.258C239.411 411.626 241.487 413.556 243.784 415.48C244.859 416.373 245.971 417.3 247.12 418.112C249.28 419.742 251.697 420.994 254.272 421.818C255.699 422.274 257.185 422.514 258.683 422.526H303.155C301.658 422.514 300.172 422.274 298.745 421.818C296.169 420.994 293.753 419.742 291.592 418.112Z" fill="#7FD2F5"/>
<path d="M301.598 267.317C301.083 267.157 300.59 266.946 300.116 266.687C300.245 266.286 300.316 265.879 300.338 265.464H255.866C255.843 265.879 255.773 266.286 255.643 266.687C256.118 266.946 256.61 267.157 257.126 267.317C257.782 267.502 258.449 267.639 259.127 267.721C265.353 268.428 278.361 269.207 279.399 269.24H323.871C322.834 269.24 309.825 268.428 303.599 267.721C302.921 267.639 302.254 267.502 301.598 267.317Z" fill="#7FD2F5"/>
<path d="M399.548 402.064L372.383 392.614L356.966 415.183L357.003 415.299H401.364L401.327 415.183L410.222 402.143L399.548 402.064Z" fill="#82D5FF"/>
<path d="M423.786 322.722L397.436 324.278H441.797L468.11 322.722L469.815 300.819H425.454L423.786 322.722Z" fill="#82D5FF"/>
<path d="M431.717 354.89H387.355L387.318 355.038L407.627 382.018H451.952L431.68 355.038L431.717 354.89Z" fill="#82D5FF"/>
<path d="M358.856 462.699L358.151 456.807L368.306 450.172L358.856 462.699ZM359.041 464.07H402.179L412.964 449.801H354.927L359.041 464.07Z" fill="#82D5FF"/>
<path d="M318.053 492.347L318.09 492.494L306.305 499.162V499.759H349.591L362.451 492.494L354.965 492.347H318.053Z" fill="#82D5FF"/>
<path d="M15.7882 137.086L33.6887 143.387H92.9098L74.9733 137.086H15.7882Z" fill="#676BE4"/>
<path d="M44.1021 76.0847L62.706 90.6495H121.891L103.289 76.0847H44.1021Z" fill="#676BE4"/>
<path d="M84.4241 28.6846L100.878 50.5465H160.065L143.609 28.6846H84.4241Z" fill="#676BE4"/>
<path d="M215.359 113.738C217.323 113.772 219.235 113.116 220.77 111.885C227.848 101.323 228.182 35.9854 228.182 32.5388H207.798L195.976 0.70401H136.679L148.28 32.9836H168.551C168.551 37.9089 168.328 76.0107 165.104 97.9504H130.12C126.229 97.9986 122.411 99.0029 119.002 100.878C117.37 102.472 86.6843 132.973 112.849 186.414C113.511 187.492 114.255 188.522 115.073 189.49C116.832 191.646 118.982 193.459 121.411 194.826C123.672 196.105 126.223 196.779 128.823 196.791H162.177V210.688C160.472 210.911 127.934 215.391 129.304 255.161H114.036C113.443 255.713 102.066 266.279 110.553 286.885C119.039 307.49 108.181 335.063 88.8716 335.063H148.168C167.513 335.063 178.335 307.119 169.85 286.885C161.362 266.649 172.74 255.713 173.333 255.161H188.564C187.156 215.432 219.695 210.948 221.437 210.688V186.08C221.018 184.401 220.262 182.826 219.213 181.447C218.779 180.921 218.253 180.48 217.656 180.15C216.997 179.787 216.259 179.598 215.507 179.594H169.034C156.32 149.02 162.325 126.635 169.034 113.738H215.359Z" fill="#5154AD"/>
<path d="M215.358 113.738C217.323 113.772 219.235 113.116 220.769 111.885C227.477 101.916 227.959 43.1753 228.181 33.7249H168.884C168.935 55.231 167.759 76.7261 165.365 98.0988H130.12C126.229 98.1433 122.411 99.1513 119.002 101.027C117.37 102.62 86.684 133.121 112.849 186.562C113.511 187.64 114.255 188.671 115.073 189.638C116.831 191.795 118.981 193.607 121.411 194.975C123.672 196.253 126.223 196.928 128.823 196.935H162.177V209.28H221.473V186.08C221.055 184.401 220.299 182.826 219.25 181.448C218.816 180.921 218.29 180.48 217.693 180.151C217.037 179.787 216.292 179.598 215.544 179.595H169.033C156.32 149.02 162.325 126.635 169.033 113.738H215.358Z" fill="#5154AD"/>
<path d="M113.517 255.639C111.293 258.014 102.918 268.502 110.553 286.844C119.039 307.268 108.181 335.023 88.8716 335.023H148.168C167.513 335.023 178.335 307.078 169.85 286.844C162.215 268.313 170.59 258.014 172.813 255.639H113.517Z" fill="#5154AD"/>
<path d="M245.155 119.26C234.778 113.104 228.885 108.809 224.327 107.397C223.356 107.089 222.344 106.926 221.325 106.919H176.852C177.871 106.923 178.883 107.086 179.854 107.397C184.413 108.809 190.305 113.104 200.682 119.26C202.52 120.361 204.47 121.254 206.501 121.928C207.846 122.343 209.243 122.569 210.651 122.595H255.124C253.716 122.569 252.318 122.343 250.973 121.928C248.942 121.254 246.993 120.361 245.155 119.26Z" fill="#5EB5E8"/>
<path d="M309.196 41.137L300.821 38.5427L299.227 20.9761L310.864 27.684L309.196 41.137ZM440.279 210.462H439.945C438.407 210.017 436.951 209.317 435.646 208.387C434.316 207.49 433.304 206.193 432.756 204.681C431.273 200.497 426.048 177.779 425.751 176.593L448.506 149.798L439.908 130.675H405.405L393.842 112.145L412.928 79.5686L398.438 63.073H353.965L368.567 79.5686L368.159 80.2727L350.852 64.3701L355.336 27.684L341.921 20.0125H299.301L297.707 2.52002L283.773 -6.10352e-05H239.3L253.235 2.52002L256.533 38.6168L278.362 45.3619H308.789L306.602 64.3368L326.578 82.867H366.751L349.555 112.515L365.713 138.194H398.882L404.219 150.057L381.279 176.552C381.538 177.742 386.764 200.46 388.246 204.647C388.791 206.156 389.806 207.453 391.137 208.353C392.445 209.28 393.894 209.98 395.436 210.429H395.769L420.822 214.135L423.527 235.741L396.14 252.529V280.209H440.612V252.529L468 235.741L465.295 214.135L440.279 210.462Z" fill="#77C5EC"/>
<path d="M440.278 210.462H439.944C438.406 210.017 436.95 209.317 435.645 208.387C434.315 207.49 433.303 206.193 432.754 204.681C431.309 200.608 426.306 178.961 425.824 176.778H381.352C381.833 178.961 386.837 200.608 388.282 204.681C388.83 206.193 389.842 207.49 391.173 208.387C392.477 209.317 393.934 210.017 395.472 210.462H395.805L420.858 214.168V214.394H465.33V214.168L440.278 210.462Z" fill="#4DADDD"/>
<path d="M370.9 82.6781L370.678 82.4965L366.676 82.6781L349.479 112.219L365.23 137.268L395.546 130.638H405.404L393.841 112.219L411.037 82.6781H370.9Z" fill="#4DADDD"/>
<path d="M299.227 21.0132H299.264L299.153 19.9384H299.116L297.559 2.77947H253.198L256.459 38.5427L278.288 45.2877H300.82V38.5427L299.227 21.0132Z" fill="#4DADDD"/>
<path d="M355.15 27.6097H310.789L304.414 34.6141V45.2874H308.713L306.49 64.2624L326.502 82.6777H337.287L356.447 71.5262V69.4101L350.851 64.2624L355.15 27.6097Z" fill="#4DADDD"/>
<path d="M396.288 252.715V280.399H440.649V252.715L466.073 237.149H421.711L396.288 252.715Z" fill="#4DADDD"/>
<path d="M307.491 177.667C270.653 182.337 271.505 210.24 273.543 223.066C275.43 231.794 280.21 239.629 287.107 245.303C293.445 264.759 278.176 266.39 277.397 266.501H321.87C322.685 266.501 337.917 264.759 331.58 245.303C324.683 239.629 319.902 231.794 318.016 223.066C315.977 210.24 315.125 182.3 351.963 177.667C353.831 177.419 355.714 177.293 357.596 177.297H313.124C311.241 177.293 309.358 177.419 307.491 177.667Z" fill="#5154AD"/>
<path d="M397.658 283.4C396.065 283.138 358.189 277.953 347.849 274.8C339.855 271.849 334.37 264.444 333.877 255.939C332.855 250.476 335.3 244.954 340.029 242.037C345.811 239.15 349.48 228.066 350.888 219.471C352 212.875 349.109 201.534 341.475 192.603C334.937 184.705 325.19 180.172 314.94 180.258C313.164 180.258 311.397 180.38 309.64 180.632C297.521 182.152 288.738 186.447 283.475 193.418C278.213 200.385 276.323 210.614 278.25 222.658C280.029 234.11 290.665 242.816 290.739 242.931L291.443 243.449L291.703 244.265C294.175 251.677 293.904 257.707 290.887 262.346C288.226 266.145 284.102 268.669 279.51 269.318C278.472 269.318 265.464 268.502 259.238 267.798C258.018 267.679 256.836 267.327 255.754 266.757C255.873 266.36 255.947 265.952 255.976 265.534C254.828 268.354 253.345 272.649 250.232 282.177C242.486 305.522 225.068 306.23 224.29 306.266L223.4 324.316C223.4 332.469 228.997 337.653 234.111 337.653C236.316 337.683 238.395 336.648 239.707 334.873C243.272 330.001 248.935 327.102 254.976 327.058C258.23 327.11 261.439 327.799 264.426 329.096C277.842 334.617 294.853 391.54 274.247 414.335C268.577 420.594 263.5 422.821 258.941 422.821C253.323 422.248 248.079 419.73 244.117 415.706C239.892 412 236.372 408.55 233.481 408.55H232.628C224.549 410.776 224.364 416.818 224.364 417.152L226.736 477.819L233.518 479.854L244.932 511.207H260.313L264.019 478.375L284.254 473.261L305.489 499.87L318.349 492.458L313.939 456.769L334.137 443.613L357.967 464.033L369.085 449.428L357.3 415.147L372.717 392.58L399.882 402.027L407.961 381.978L387.652 355.002L395.472 324.349L424.082 322.681L425.787 300.782L399.252 283.4H397.658Z" fill="#6F74FC"/>
<path d="M262.277 331.579C259.649 330.419 256.81 329.804 253.938 329.759C248.816 329.818 244.021 332.294 241.004 336.43C239.129 338.917 236.19 340.373 233.073 340.363C226.513 340.363 219.435 334.137 219.435 323.945L220.324 306.415L219.138 306.045C190.75 305.303 184.227 263.977 183.894 261.794H170.923L137.569 264.941C134.305 272.961 134.657 281.996 138.532 289.738C147.315 310.195 136.085 337.917 116.037 337.917C95.9863 337.917 81.7918 320.049 81.7918 297.48C81.7918 276.356 91.2062 269.762 82.0512 259.719L71.2674 257.866L68.8207 268.984L51.181 280.102L54.1459 298.632L74.2322 303.747L80.5688 331.69L66.0052 350.109L72.8235 366.157L92.874 364.225L103.992 387.834L94.9497 413.776L104.733 426.45L121.596 414.52L139.235 433.495L135.826 465.552L147.797 474.629L163.955 454.434L183.041 465.886L186.748 497.495L202.165 505.28L213.283 476.333L222.474 478.038L220.324 416.818C220.947 411.199 225.209 406.666 230.775 405.7C231.29 405.54 231.828 405.448 232.369 405.438C236.075 405.438 239.114 408.257 242.894 411.519C247.267 415.225 252.307 419.709 257.941 419.709C263.166 419.205 267.936 416.513 271.06 412.297C279.954 402.549 282.178 383.798 277.434 362.187C273.802 345.44 266.798 333.581 262.277 331.579Z" fill="#82D5FF"/>
<path d="M130.157 98.0986C135.771 97.9911 141.041 100.797 144.091 105.511C148.797 112.144 153.133 113.849 156.32 113.849C158.283 113.864 160.191 113.208 161.731 111.996C168.81 101.43 168.923 36.0966 168.923 32.6462L148.687 33.0947L137.086 0.815094L123.56 6.55573L121.187 41.8039L100.916 50.5464L84.4239 28.6845L74.0092 38.172L78.9764 71.2298L62.5583 90.6865L44.0281 76.1181L35.0599 89.4599L46.178 116.925L33.689 143.423L15.7507 137.123L9.19136 153.871L25.721 176.107L20.0489 203.346L0 207.052V225.583L18.5302 240.633V254.008H53.2932C69.7866 270.059 55.8889 270.763 55.8889 293.37C55.8889 315.977 69.5635 335.285 88.9075 335.285C108.254 335.285 119.075 307.342 110.589 287.106C102.101 266.872 113.443 255.939 114.036 255.383H129.451C128.044 215.654 160.621 211.166 162.325 210.91V186.08C160.916 181.225 158.915 179.631 156.433 179.631C151.687 179.631 146.687 186.117 146.426 186.447C139.791 194.233 133.9 196.827 128.934 196.827C119.002 196.827 113.219 186.969 112.923 186.447C86.7576 133.006 117.445 102.509 119.075 100.912C122.483 99.0844 126.289 98.1171 130.157 98.0986Z" fill="#6F74FC"/>
<path d="M396.102 210.462C395.805 210.462 390.061 208.835 388.69 204.647C387.318 200.46 381.982 177.742 381.722 176.552L404.44 149.761L395.842 130.638L365.935 138.05L349.776 112.367L368.566 79.5686L354.075 63.073L326.502 82.7929L306.527 64.2627L310.863 27.684L297.484 20.0125L278.361 45.3619L256.532 38.6168L253.234 2.52002L239.299 -6.10352e-05L227.811 39.0986L221.918 106.619C221.918 107.397 221.621 122.596 210.8 122.596C207.242 122.377 203.803 121.224 200.831 119.26C188.008 111.848 182.041 106.919 177.001 106.919C173.963 106.919 171.257 108.62 167.587 112.441C157.805 122.633 136.863 163.066 170.737 192.38C178.409 199.014 196.68 178.223 212.097 178.223C223.215 178.223 221.029 208.798 220.917 210.281C220.917 210.281 220.917 213.764 225.29 215.391C241.882 223.185 252.467 239.87 252.456 258.2C251.881 261.213 253.86 264.126 256.881 264.7L257.792 264.796C264.019 265.534 276.767 266.279 277.434 266.312C278.102 266.353 293.482 264.574 287.144 245.114C280.247 239.443 275.467 231.605 273.58 222.877C271.542 210.058 270.689 182.111 307.527 177.478C309.395 177.234 311.274 177.108 313.161 177.108C341.623 177.108 354.335 205.904 352.037 219.694C350.999 225.957 347.479 240.374 339.622 244.376C331.135 248.675 334.656 267.984 347.034 271.723C357.262 274.876 394.434 279.953 396.398 280.209V252.529L423.786 235.741L421.081 214.135L396.102 210.462Z" fill="#82D5FF"/>
<path d="M324.983 282.289C301.794 282.289 282.994 301.086 282.994 324.278C282.994 347.467 301.794 366.268 324.987 366.268C348.172 366.268 366.972 347.467 366.972 324.278V324.167C366.932 301.011 348.138 282.267 324.983 282.289Z" fill="#82D5FF"/>
<path d="M349.814 319.902C349.106 320.023 348.632 320.695 348.754 321.403C348.846 321.943 349.269 322.366 349.814 322.463C350.518 322.581 351.192 322.107 351.311 321.403C351.43 320.695 350.955 320.023 350.251 319.902H349.814Z" fill="#24356C"/>
<path d="M283.031 83.052C259.839 83.0298 241.023 101.812 241.005 125.001C240.986 148.193 259.768 167.009 282.957 167.031C306.149 167.049 324.965 148.267 324.983 125.079V125.041C324.983 101.864 306.205 83.0706 283.031 83.052Z" fill="#5154AD"/>
<path d="M171.851 322.052C148.659 322.033 129.845 340.815 129.824 364.007C129.803 387.195 148.585 406.011 171.777 406.034C194.968 406.051 213.784 387.269 213.802 364.077V364.04C213.802 340.87 195.024 322.073 171.851 322.052Z" fill="#5154AD"/>
</svg>
