<?xml version="1.0" standalone="no"?>
<!DOCTYPE svg PUBLIC "-//W3C//DTD SVG 20010904//EN"
 "http://www.w3.org/TR/2001/REC-SVG-20010904/DTD/svg10.dtd">
<svg version="1.0" xmlns="http://www.w3.org/2000/svg"
 width="768.000000pt" height="768.000000pt" viewBox="0 0 768.000000 768.000000"
 preserveAspectRatio="xMidYMid meet">
<metadata>
Created by potrace 1.14, written by Peter Selinger 2001-2017
</metadata>
<g transform="translate(0.000000,768.000000) scale(0.100000,-0.100000)"
fill="#000000" stroke="none">
<path d="M1488 7186 c-32 -7 -58 -10 -58 -7 0 3 -5 0 -12 -7 -7 -7 -20 -12
-29 -12 -25 0 -127 -47 -189 -88 -91 -59 -140 -106 -261 -252 -11 -14 -33 -39
-47 -55 -15 -17 -52 -59 -82 -95 -30 -36 -57 -67 -60 -70 -7 -7 -114 -131
-136 -159 -10 -13 -37 -44 -59 -69 -72 -82 -85 -97 -92 -107 -9 -11 -122 -143
-138 -161 -5 -6 -30 -35 -55 -64 -25 -29 -84 -99 -132 -154 -115 -132 -133
-169 -133 -267 1 -92 24 -138 112 -218 88 -81 143 -106 228 -105 108 1 156 31
275 174 30 36 66 79 81 95 15 17 60 68 99 115 39 47 84 99 99 115 14 17 78 91
141 165 63 74 119 140 125 146 5 6 30 35 55 64 25 29 50 58 55 64 6 6 34 40
64 76 30 36 60 70 65 75 6 6 35 39 65 75 29 36 69 73 89 84 76 39 165 14 208
-59 l25 -43 -3 -1143 c-2 -1049 0 -1194 17 -1284 22 -113 62 -253 77 -270 4
-5 8 -15 8 -22 0 -44 158 -318 241 -419 41 -49 171 -178 238 -235 35 -30 69
-58 75 -64 11 -10 114 -97 170 -145 17 -14 51 -43 76 -65 25 -23 74 -65 110
-95 98 -83 122 -104 140 -120 9 -8 45 -40 81 -70 35 -30 69 -59 75 -65 6 -5
33 -28 60 -50 27 -22 59 -49 70 -61 120 -116 341 -263 494 -328 88 -37 233
-82 295 -92 11 -1 31 -6 45 -9 78 -18 384 -27 455 -14 22 4 58 10 80 13 23 4
52 9 65 12 14 3 39 8 55 11 17 2 35 9 42 14 13 12 17 679 4 679 -5 0 -33 -11
-63 -24 -63 -28 -120 -45 -213 -62 -51 -10 -268 -10 -310 -1 -186 43 -313 103
-438 207 -30 24 -124 105 -191 164 -11 10 -32 27 -45 37 l-23 19 83 97 c46 54
93 108 104 122 11 13 25 29 31 35 5 6 52 61 104 121 51 61 101 118 109 127 9
9 21 23 26 30 6 8 28 34 50 59 22 24 59 67 82 94 23 28 50 60 60 71 22 26 86
101 183 214 40 47 76 87 79 90 4 3 16 17 27 32 19 24 102 123 129 152 6 6 35
40 65 76 54 64 70 80 80 80 3 0 19 -12 36 -28 45 -40 117 -102 166 -142 190
-157 299 -334 354 -573 4 -18 9 -549 11 -1182 1 -632 5 -1177 8 -1210 23 -270
231 -530 507 -633 97 -36 162 -47 283 -46 114 2 157 8 236 34 112 38 203 89
278 155 53 47 41 34 196 215 49 58 92 107 95 110 5 4 27 30 135 159 11 12 31
36 45 51 51 59 261 303 306 358 10 13 30 36 44 51 14 15 44 50 67 77 80 95
119 140 145 168 67 72 93 187 64 277 -10 29 -24 58 -31 66 -8 8 -18 20 -22 27
-21 34 -145 125 -192 141 -95 31 -205 4 -277 -68 -17 -18 -112 -126 -210 -242
-98 -115 -183 -215 -189 -221 -29 -32 -112 -129 -125 -146 -8 -11 -30 -35 -47
-54 -18 -19 -33 -37 -33 -40 0 -3 -10 -15 -22 -28 -13 -12 -45 -49 -73 -81
-27 -33 -66 -77 -85 -100 -20 -23 -41 -48 -48 -56 -7 -8 -22 -25 -33 -39 -126
-156 -175 -191 -251 -179 -56 9 -90 32 -118 81 l-21 37 3 1153 c1 634 -1 1173
-5 1198 -10 62 -27 154 -32 170 -10 35 -28 97 -30 105 -6 29 -44 123 -83 205
-31 67 -107 197 -122 210 -3 3 -14 19 -24 35 -39 60 -191 218 -296 306 -36 30
-67 57 -70 60 -4 5 -225 194 -305 261 -9 7 -26 22 -38 34 -12 11 -49 43 -82
70 -33 27 -62 52 -65 55 -3 3 -54 48 -115 99 -60 52 -115 99 -121 105 -6 5
-33 29 -60 51 -27 23 -59 50 -71 60 -52 45 -69 58 -150 114 -47 33 -92 60 -99
60 -7 0 -14 4 -16 8 -2 7 -133 75 -148 78 -3 0 -18 6 -35 13 -28 12 -143 49
-225 72 -19 5 -51 11 -70 14 -19 2 -62 9 -95 14 -76 11 -430 4 -430 -9 0 -1
-11 -3 -25 -4 -26 -2 -67 -10 -132 -27 l-37 -9 0 -340 c1 -342 3 -361 34 -331
10 9 151 59 189 67 93 20 272 25 369 10 161 -24 328 -107 477 -235 63 -54 107
-92 126 -108 88 -75 98 -86 83 -97 -8 -6 -30 -31 -50 -56 -20 -25 -45 -55 -55
-66 -11 -12 -39 -45 -64 -74 -25 -29 -53 -62 -64 -74 -10 -11 -35 -41 -55 -65
-20 -25 -45 -54 -56 -66 -11 -11 -38 -42 -60 -69 -22 -26 -49 -58 -60 -70 -11
-12 -40 -46 -65 -76 -60 -71 -181 -212 -194 -226 -6 -6 -29 -33 -51 -59 -22
-27 -44 -53 -50 -59 -5 -6 -35 -40 -65 -76 -30 -36 -66 -78 -81 -95 -15 -16
-56 -64 -90 -105 -34 -41 -70 -83 -80 -92 -9 -10 -24 -27 -32 -38 -17 -25 -37
-19 -86 28 -15 15 -37 34 -47 42 -154 126 -224 196 -289 285 -67 93 -135 240
-150 322 -2 16 -9 51 -14 78 -6 30 -10 506 -10 1195 0 630 -3 1157 -6 1172 -3
16 -7 40 -9 55 -23 164 -163 375 -311 472 -22 14 -42 29 -45 32 -12 16 -163
79 -225 95 -16 4 -37 9 -45 11 -38 11 -240 10 -292 -1z"/>
</g>
</svg>
