<svg width="418" height="248" viewBox="0 0 418 248" fill="none" xmlns="http://www.w3.org/2000/svg">
<path d="M23.0001 248C23.0001 248 7.74455 195.485 15.3151 170.579C22.8856 145.673 42.2813 126.631 36.0491 97.8117C28.5984 63.5794 46.0365 34.7106 76.9078 38.463C128.643 44.7171 165.796 5.86177 184.773 1.98925C240.872 -9.52826 251.099 32.5492 281.372 36.6518C346.72 45.4976 366.914 73.8261 364.577 128.152C363.798 146.013 412.734 213.497 384 248H23.0001Z" fill="#6F74FC"/>
<path d="M336.551 69.8032V97.121H364.026V69.8232L336.551 69.8032ZM359.912 93.0584H340.656V73.8859H359.912V93.0584Z" fill="#002C5C"/>
<path d="M302.855 69.8032V97.121H330.341V69.8232L302.855 69.8032ZM326.186 93.0584H306.98V73.8859H326.186V93.0584Z" fill="#002C5C"/>
<path d="M336.551 103.296V130.563H364.026V103.266L336.551 103.296ZM359.912 126.521H340.656V107.378H359.912V126.521Z" fill="#002C5C"/>
<path d="M302.855 103.296V130.563H330.341V103.266L302.855 103.296ZM326.186 126.521H306.98V107.378H326.186V126.521Z" fill="#002C5C"/>
<path d="M265.57 69.8032V97.121H293.046V69.8232L265.57 69.8032ZM288.941 93.0184H269.705V73.8859H288.961L288.941 93.0184Z" fill="#002C5C"/>
<path d="M231.883 69.8032V97.121H259.368V69.8232L231.883 69.8032ZM255.254 93.0584H236.038V73.8859H255.293L255.254 93.0584Z" fill="#002C5C"/>
<path d="M265.57 103.296V130.563H293.046V103.266L265.57 103.296ZM288.941 126.521H269.705V107.378H288.961L288.941 126.521Z" fill="#002C5C"/>
<path d="M231.883 103.296V130.563H259.368V103.266L231.883 103.296ZM255.254 126.521H236.038V107.378H255.293L255.254 126.521Z" fill="#002C5C"/>
<path d="M79.1437 8.9043H207.423C207.67 8.90428 207.907 9.00201 208.083 9.17625C208.259 9.35049 208.359 9.58718 208.362 9.8349V100.514C208.359 100.762 208.259 100.998 208.083 101.173C207.907 101.347 207.67 101.445 207.423 101.445H79.1437C78.8973 101.445 78.6611 101.347 78.4869 101.172C78.3127 100.998 78.2148 100.761 78.2148 100.514V9.8349C78.2148 9.58809 78.3127 9.35139 78.4869 9.17686C78.6611 9.00234 78.8973 8.9043 79.1437 8.9043Z" fill="#002C5C"/>
<path d="M87.2916 14.7881H199.271C199.378 14.7868 199.485 14.8068 199.584 14.847C199.683 14.8871 199.774 14.9466 199.85 15.022C199.926 15.0974 199.986 15.1872 200.028 15.2862C200.069 15.3852 200.09 15.4914 200.09 15.5987V94.7503C200.09 94.8576 200.069 94.9638 200.028 95.0628C199.986 95.1618 199.926 95.2516 199.85 95.327C199.774 95.4024 199.683 95.4619 199.584 95.502C199.485 95.5422 199.378 95.5621 199.271 95.5608H87.2916C87.0761 95.5608 86.8693 95.4757 86.716 95.324C86.5627 95.1723 86.4753 94.9662 86.4727 94.7503V15.5987C86.4753 15.3828 86.5627 15.1767 86.716 15.0249C86.8693 14.8732 87.0761 14.7881 87.2916 14.7881Z" fill="url(#paint0_linear_196_742)"/>
<path d="M155.707 35.5315L185.49 32.5996L189.185 69.6638L159.402 72.5957L155.707 35.5315Z" fill="white"/>
<path d="M123.656 47.3589L152.73 54.4035L143.851 90.5871L114.777 83.5525L123.656 47.3589Z" fill="white"/>
<path d="M172.444 38.5234C172.45 38.0903 172.327 37.6653 172.091 37.3024C171.855 36.9395 171.517 36.6552 171.119 36.4858C170.721 36.3164 170.282 36.2695 169.857 36.351C169.433 36.4326 169.042 36.639 168.735 36.9438C168.428 37.2487 168.218 37.6382 168.133 38.0628C168.047 38.4875 168.09 38.9279 168.256 39.3281C168.421 39.7283 168.702 40.0701 169.061 40.3099C169.421 40.5497 169.845 40.6768 170.277 40.6748C170.848 40.6749 171.397 40.4488 171.802 40.0459C172.208 39.643 172.439 39.0959 172.444 38.5234Z" fill="#CED8F3"/>
<path d="M139.569 54.6636C139.575 54.2305 139.452 53.8054 139.216 53.4425C138.98 53.0796 138.642 52.7954 138.244 52.626C137.846 52.4565 137.407 52.4096 136.982 52.4912C136.558 52.5727 136.167 52.7791 135.86 53.0839C135.553 53.3888 135.343 53.7784 135.258 54.203C135.172 54.6276 135.215 55.068 135.381 55.4682C135.546 55.8684 135.827 56.2102 136.186 56.45C136.546 56.6899 136.97 56.8169 137.402 56.815C137.973 56.815 138.522 56.589 138.927 56.1861C139.333 55.7832 139.564 55.236 139.569 54.6636Z" fill="#CED8F3"/>
<path d="M124.945 59.6979L125.205 58.6372L146.269 63.7606L146.009 64.8212L124.945 59.6979Z" fill="#DDE4F6"/>
<path d="M123.637 63.7199L123.896 62.6592L144.97 67.7825L144.7 68.8432L123.637 63.7199Z" fill="#DDE4F6"/>
<path d="M122.352 67.7328L122.611 66.6821L143.675 71.8055L143.415 72.8562L122.352 67.7328Z" fill="#DDE4F6"/>
<path d="M119.742 75.7677L120.012 74.707L141.075 79.8304L140.816 80.8911L119.742 75.7677Z" fill="#DDE4F6"/>
<path d="M118.453 79.8002L118.713 78.7495L139.776 83.8729L139.517 84.9335L118.453 79.8002Z" fill="#DDE4F6"/>
<path d="M160.988 46.3684L182.641 44.1069L182.751 45.1876L161.108 47.4491L160.988 46.3684Z" fill="#DDE4F6"/>
<path d="M160.988 49.5606L182.641 47.3091L182.751 48.3898L161.108 50.6513L160.988 49.5606Z" fill="#DDE4F6"/>
<path d="M161.949 61.8186L183.592 59.5371L183.702 60.6178L162.059 62.9093L161.949 61.8186Z" fill="#DDE4F6"/>
<path d="M162.508 64.8706L184.151 62.5791L184.271 63.6698L162.628 65.9513L162.508 64.8706Z" fill="#DDE4F6"/>
<path d="M99.0664 53.5131L116.854 51.0215L119.531 69.8237L101.743 72.3154L99.0664 53.5131Z" fill="#D4E3F9"/>
<path d="M134.083 19.8813L151.701 23.3736L147.966 41.9958L130.348 38.5035L134.083 19.8813Z" fill="#D4E3F9"/>
<path d="M282.186 177.864C280.878 175.393 271.63 167.267 265.887 168.018C261.143 168.628 249.348 178.635 245.463 182.187C246.891 179.425 249.967 172.921 251.365 170.179C254.631 163.855 258.137 149.676 257.887 149.916C252.723 154.829 248.299 160.633 245.902 167.418C245.255 169.427 244.721 171.472 244.304 173.541C244.064 171.164 243.582 168.817 242.866 166.537C241.438 162.044 238.761 158.382 235.775 154.799C232.369 150.427 228.538 146.405 224.339 142.791C224.23 142.683 224.083 142.622 223.93 142.622C223.776 142.622 223.629 142.683 223.52 142.791C223.436 142.879 223.382 142.992 223.368 143.113C223.354 143.234 223.379 143.357 223.44 143.462C228.134 153.168 232.888 162.885 235.425 173.421C235.439 173.592 235.476 173.761 235.535 173.922C234.351 170.673 232.469 167.725 230.022 165.286C223.51 159.332 208.828 158.091 203.955 159.452C203.445 159.592 218.077 162.634 225.927 169.619C228.753 172.121 234.247 183.868 234.676 184.629C233.498 183.188 225.597 174.162 221.513 173.471C205.642 170.83 195.196 181.477 195.345 181.727C195.345 182.087 208.329 178.124 220.034 179.726C229.283 181.006 232.848 187.851 238.162 191.893C238.722 193.963 239.782 195.864 241.248 197.427C241.354 197.532 241.498 197.591 241.647 197.591C241.797 197.591 241.94 197.532 242.047 197.427C242.139 197.336 242.196 197.216 242.207 197.087C242.339 197.109 242.476 197.085 242.593 197.017C242.709 196.949 242.799 196.843 242.846 196.717C243.096 196.083 243.306 195.435 243.475 194.775C254.144 188.77 266.558 186.649 278.611 188.771C278.684 188.793 278.76 188.799 278.835 188.79C278.911 188.782 278.983 188.758 279.05 188.721C279.116 188.683 279.174 188.633 279.22 188.573C279.266 188.513 279.3 188.445 279.32 188.371C279.346 188.273 279.346 188.169 279.32 188.071C279.294 187.973 279.242 187.883 279.17 187.811C276.814 185.26 273.829 183.376 270.516 182.348C267.202 181.32 263.676 181.185 260.294 181.957C254.892 183.292 249.803 185.671 245.313 188.962C246.126 187.424 247.151 186.009 248.359 184.759C268.214 165.686 282.456 178.385 282.186 177.864Z" fill="#003A6C"/>
<path d="M251.605 218H230.372L224.27 189.672H257.708L251.605 218Z" fill="#00DCF5"/>
<path opacity="0.08" d="M235.835 218H230.372L224.27 189.672H229.633L235.835 218Z" fill="black"/>
<path d="M417.999 156.53H264.082V182.497H417.999V156.53Z" fill="#002C5C"/>
<path d="M411.655 160.333H270.422V178.695H411.655V160.333Z" fill="#005396"/>
<path d="M312.133 168.068H280.223V170.81H312.133V168.068Z" fill="#00DBF5"/>
<path d="M357.078 168.068H325.168V170.81H357.078V168.068Z" fill="#00DBF5"/>
<path d="M402.039 168.068H370.129V170.81H402.039V168.068Z" fill="#00DBF5"/>
<path d="M417.999 188.05H264.082V214.017H417.999V188.05Z" fill="#002C5C"/>
<path d="M411.655 191.843H270.422V210.205H411.655V191.843Z" fill="#005396"/>
<path d="M312.133 199.588H280.223V202.33H312.133V199.588Z" fill="#00DBF5"/>
<path d="M357.078 199.588H325.168V202.33H357.078V199.588Z" fill="#00DBF5"/>
<path d="M402.039 199.588H370.129V202.33H402.039V199.588Z" fill="#00DBF5"/>
<path d="M270.796 141.21C269.238 139.829 267.031 141 265.862 141.8C265.516 142.021 265.182 142.262 264.863 142.521L265.702 143.461L265.862 143.321C265.862 143.321 266.102 143.111 266.471 142.851C266.841 142.591 267.031 142.511 267.32 142.361C268.399 141.82 269.198 141.79 269.697 142.261C269.957 142.491 270.097 143.341 269.817 144.562C269.542 145.867 269.02 147.107 268.279 148.214C267.979 148.676 267.612 149.091 267.19 149.445C266.99 149.605 266.75 149.706 266.497 149.738C266.243 149.77 265.985 149.731 265.752 149.625L265.013 150.876C265.347 151.047 265.717 151.136 266.092 151.136C266.726 151.117 267.338 150.896 267.84 150.506C268.504 150.05 269.074 149.469 269.517 148.795C271.075 146.603 272.304 142.561 270.796 141.21Z" fill="#00DBF5"/>
<path d="M250.16 139.089L251.528 153.598C251.528 154.269 255.324 154.799 258.669 154.799C262.015 154.799 266 154.269 266 153.598L267.199 139.089H250.16Z" fill="#00DBF5"/>
<path d="M267.199 139.088C267.199 139.799 263.384 140.369 258.669 140.369C253.955 140.369 250.16 139.799 250.16 139.088C250.16 138.378 253.965 137.808 258.669 137.808C263.374 137.808 267.199 138.388 267.199 139.088Z" fill="#00DBF5"/>
<path d="M266.582 139.089C266.582 139.239 266.292 139.379 265.763 139.499C261.061 140.189 256.283 140.189 251.581 139.499C251.061 139.379 250.762 139.239 250.762 139.089C250.762 138.578 254.307 138.158 258.672 138.158C263.036 138.158 266.582 138.588 266.582 139.089Z" fill="#00C1D9"/>
<path d="M265.76 139.509C261.058 140.198 256.28 140.198 251.578 139.509C256.281 138.829 261.057 138.829 265.76 139.509Z" fill="#0C1540"/>
<path opacity="0.22" d="M256.093 154.709C255.152 154.651 254.215 154.537 253.287 154.369L251.988 139.919C253.2 140.14 254.424 140.28 255.654 140.34L256.093 154.709Z" fill="#EBF0FF"/>
<path opacity="0.22" d="M257.931 154.799H257.042L256.652 140.379H257.551L257.931 154.799Z" fill="#EBF0FF"/>
<path d="M220.178 153.758H198.105C196.964 153.758 195.869 153.304 195.062 152.495C194.254 151.686 193.801 150.589 193.801 149.446C193.801 148.302 194.254 147.205 195.062 146.396C195.869 145.587 196.964 145.133 198.105 145.133H220.178C220.348 145.133 220.512 145.2 220.633 145.32C220.755 145.44 220.824 145.602 220.827 145.773V153.098C220.828 153.183 220.813 153.267 220.781 153.346C220.75 153.425 220.703 153.497 220.643 153.557C220.584 153.618 220.513 153.666 220.435 153.699C220.356 153.732 220.272 153.748 220.188 153.748L220.178 153.758Z" fill="#FF8D00"/>
<path d="M237.767 153.098H215.705C215.223 153.101 214.745 153.008 214.298 152.825C213.852 152.643 213.446 152.373 213.104 152.033C212.761 151.693 212.489 151.289 212.303 150.843C212.117 150.397 212.021 149.919 212.02 149.436C212.027 148.464 212.42 147.534 213.111 146.851C213.802 146.169 214.735 145.788 215.705 145.794H237.777L237.767 153.098Z" fill="white"/>
<path d="M237.765 153.759H215.703C214.561 153.759 213.467 153.304 212.659 152.495C211.852 151.687 211.398 150.59 211.398 149.446C211.398 148.302 211.852 147.205 212.659 146.396C213.467 145.587 214.561 145.133 215.703 145.133H237.775C237.867 145.122 237.959 145.13 238.047 145.157C238.135 145.184 238.216 145.23 238.285 145.291C238.354 145.352 238.41 145.427 238.448 145.511C238.485 145.595 238.505 145.686 238.505 145.778C238.505 145.871 238.485 145.962 238.448 146.046C238.41 146.13 238.354 146.205 238.285 146.266C238.216 146.327 238.135 146.373 238.047 146.4C237.959 146.427 237.867 146.435 237.775 146.424H215.703C214.908 146.424 214.146 146.74 213.584 147.303C213.022 147.866 212.707 148.63 212.707 149.426C212.707 150.222 213.022 150.985 213.584 151.548C214.146 152.111 214.908 152.428 215.703 152.428H237.775C237.867 152.416 237.959 152.424 238.047 152.452C238.135 152.479 238.216 152.525 238.285 152.586C238.354 152.647 238.41 152.722 238.448 152.806C238.485 152.89 238.505 152.981 238.505 153.073C238.505 153.165 238.485 153.256 238.448 153.341C238.41 153.425 238.354 153.5 238.285 153.561C238.216 153.622 238.135 153.667 238.047 153.695C237.959 153.722 237.867 153.73 237.775 153.719L237.765 153.759Z" fill="#D17300"/>
<path d="M226.262 145.143H204.139C203.556 145.171 202.973 145.08 202.426 144.876C201.878 144.671 201.378 144.358 200.955 143.954C200.532 143.55 200.196 143.065 199.966 142.527C199.736 141.989 199.617 141.41 199.617 140.825C199.617 140.24 199.736 139.66 199.966 139.123C200.196 138.585 200.532 138.099 200.955 137.695C201.378 137.292 201.878 136.978 202.426 136.774C202.973 136.57 203.556 136.479 204.139 136.507H226.262C226.434 136.507 226.599 136.575 226.721 136.697C226.842 136.819 226.911 136.985 226.911 137.157V144.482C226.912 144.568 226.897 144.652 226.865 144.732C226.834 144.811 226.787 144.884 226.728 144.945C226.668 145.006 226.598 145.055 226.519 145.089C226.441 145.123 226.357 145.141 226.272 145.143H226.262Z" fill="#FF3C24"/>
<path d="M243.787 144.492H221.695C220.725 144.495 219.793 144.112 219.104 143.427C218.415 142.743 218.025 141.812 218.02 140.84C218.025 139.866 218.414 138.933 219.102 138.245C219.791 137.558 220.723 137.17 221.695 137.167H243.767L243.787 144.492Z" fill="white"/>
<path d="M243.786 145.143H221.694C221.111 145.171 220.528 145.08 219.98 144.876C219.433 144.671 218.933 144.358 218.51 143.954C218.087 143.55 217.75 143.065 217.52 142.527C217.29 141.989 217.172 141.41 217.172 140.825C217.172 140.24 217.29 139.66 217.52 139.123C217.75 138.585 218.087 138.099 218.51 137.695C218.933 137.292 219.433 136.978 219.98 136.774C220.528 136.57 221.111 136.479 221.694 136.507H243.766C243.939 136.507 244.104 136.575 244.225 136.697C244.347 136.819 244.416 136.985 244.416 137.157C244.416 137.33 244.347 137.495 244.225 137.617C244.104 137.739 243.939 137.808 243.766 137.808H221.694C220.899 137.808 220.137 138.124 219.575 138.687C219.013 139.25 218.698 140.014 218.698 140.81C218.698 141.606 219.013 142.369 219.575 142.932C220.137 143.495 220.899 143.812 221.694 143.812H243.766C243.939 143.812 244.104 143.88 244.225 144.002C244.347 144.124 244.416 144.29 244.416 144.462C244.416 144.635 244.347 144.8 244.225 144.922C244.104 145.044 243.939 145.113 243.766 145.113L243.786 145.143Z" fill="#8D1C23"/>
<path d="M346.59 215.198C346.244 215.198 345.913 215.061 345.668 214.817C345.423 214.574 345.284 214.243 345.281 213.897V51.4411C345.31 51.1145 345.459 50.8104 345.701 50.589C345.942 50.3675 346.257 50.2446 346.585 50.2446C346.912 50.2446 347.227 50.3675 347.468 50.589C347.71 50.8104 347.859 51.1145 347.888 51.4411V213.897C347.888 214.242 347.751 214.573 347.508 214.817C347.264 215.061 346.934 215.198 346.59 215.198Z" fill="#00172F"/>
<path d="M347.59 215.198C347.244 215.198 346.913 215.061 346.668 214.817C346.423 214.574 346.284 214.243 346.281 213.897V51.4411C346.31 51.1145 346.459 50.8104 346.701 50.589C346.942 50.3675 347.257 50.2446 347.585 50.2446C347.912 50.2446 348.227 50.3675 348.468 50.589C348.71 50.8104 348.859 51.1145 348.888 51.4411V213.897C348.888 214.242 348.751 214.573 348.508 214.817C348.264 215.061 347.934 215.198 347.59 215.198Z" fill="#002C5C"/>
<path d="M359.722 38.8535H333.445L325.895 68.3427C325.895 68.9932 335.163 69.5035 346.529 69.5035C357.894 69.5035 367.223 68.9932 367.223 68.3427L359.722 38.8535Z" fill="url(#paint1_linear_196_742)"/>
<path d="M359.732 38.8535C359.732 39.3638 353.84 39.7741 346.589 39.7741C339.338 39.7741 333.445 39.3638 333.445 38.8535C333.445 38.3431 339.328 37.9429 346.589 37.9429C353.85 37.9429 359.732 38.3932 359.732 38.8535Z" fill="#FF7005"/>
<path d="M376.738 216.329H316.414C316.417 215.794 316.524 215.265 316.731 214.772C316.938 214.278 317.239 213.831 317.619 213.455C317.998 213.078 318.448 212.781 318.942 212.578C319.436 212.376 319.965 212.273 320.499 212.276H372.634C373.167 212.273 373.697 212.376 374.191 212.578C374.685 212.781 375.134 213.078 375.514 213.455C375.893 213.831 376.195 214.278 376.401 214.772C376.608 215.265 376.716 215.794 376.718 216.329H376.738Z" fill="#00172F"/>
<path d="M200.413 216.319H197.207L206.156 157.941H209.362L200.413 216.319Z" fill="#167DB3"/>
<path d="M196.328 216.319H197.207L206.156 157.941H205.277L196.328 216.319Z" fill="#003A6C"/>
<path d="M227.409 216.319H224.203L233.152 157.941H236.358L227.409 216.319Z" fill="#167DB3"/>
<path d="M223.324 216.319H224.203L233.152 157.941H232.273L223.324 216.319Z" fill="#003A6C"/>
<path d="M289.28 216.319H286.074L277.125 157.941H280.331L289.28 216.319Z" fill="#003A6C"/>
<path d="M285.195 216.319H286.074L277.125 157.941H276.246L285.195 216.319Z" fill="#167DB3"/>
<path d="M321.151 216.319H317.945L308.996 157.941H312.202L321.151 216.319Z" fill="#003A6C"/>
<path d="M317.066 216.319H317.945L308.996 157.941H308.117L317.066 216.319Z" fill="#167DB3"/>
<path d="M314.427 153.828H201.398V158.751H314.427V153.828Z" fill="#167DB3"/>
<path d="M314.427 153.828H272.77V158.751H314.427V153.828Z" fill="#003A6C"/>
<path d="M73.4113 182.116C75.4088 192.123 80.5224 201.759 88.772 208.003C98.5498 215.408 111.174 215.898 122.989 215.928C136.442 215.979 166.565 220.371 175.703 199.448C175.923 198.947 176.133 198.447 176.322 197.907C184.452 175.702 168.722 152.877 142.824 149.805C136.093 146.413 127.843 119.976 122.54 114.863C114.63 107.308 104.073 106.227 95.184 112.071C94.6247 112.431 94.1054 112.821 93.5461 113.242C91.9319 114.499 90.4525 115.921 89.1316 117.484C83.1391 124.549 80.1429 134.195 77.4163 142.811C73.4612 155.379 70.7746 168.908 73.4113 182.116Z" fill="#003A6C"/>
<path d="M114.378 164.295C114.378 164.295 107.617 152.737 98.1484 148.284C98.1484 148.284 113.05 155.289 119.362 166.076L114.378 164.295Z" fill="#002C5C"/>
<path d="M114.379 164.294C114.379 164.294 138.419 169.448 145.49 175.302C145.49 175.302 129.32 168.827 116.846 168.987L114.379 164.294Z" fill="#002C5C"/>
<path d="M73.4113 182.117C75.4088 192.124 80.5224 201.76 88.772 208.004C98.5498 215.409 111.174 215.899 122.989 215.929C136.442 215.979 166.565 220.372 175.703 199.449C170.969 204.732 145.411 211.526 132.357 211.526C105.032 211.526 92.1678 208.004 86.3451 196.106C72.5723 167.768 79.6635 136.407 89.1316 117.435C83.1391 124.5 80.1429 134.146 77.4163 142.752C73.4612 155.38 70.7746 168.909 73.4113 182.117Z" fill="#00162E"/>
<path d="M116.699 164.295C116.699 164.295 135.056 158.241 147.281 163.034C147.281 163.034 126.487 161.954 119.396 167.527L116.699 164.295Z" fill="#002C5C"/>
<path d="M44.9681 146.744C41.8766 138.29 37.7324 130.262 32.6336 122.848C29.9878 118.933 27.085 115.199 23.9445 111.671C21.7772 109.179 18.9507 105.197 15.8446 104.436C15.7567 104.426 15.6676 104.434 15.5827 104.459C15.4978 104.484 15.4187 104.526 15.35 104.582C15.2813 104.638 15.2243 104.707 15.1823 104.785C15.1403 104.863 15.1143 104.948 15.1055 105.037C15.0957 105.173 15.1271 105.309 15.1954 105.427C29.2378 128.592 41.852 155.59 40.6635 184.478C39.9044 174.412 35.7397 164.065 31.7647 155.92C26.2316 144.465 18.3298 134.321 8.58371 126.16C8.01443 125.68 7.50507 126.671 7.89458 127.241C15.6956 138.936 21.6608 151.76 25.5824 165.266C28.7684 176.133 29.6573 190.953 39.435 196.866C39.5411 196.935 39.669 196.96 39.7932 196.938C39.9173 196.916 40.0284 196.847 40.1042 196.746L40.6335 197.457C40.6779 197.511 40.7326 197.556 40.7944 197.589C40.8562 197.622 40.9238 197.642 40.9935 197.648C41.0631 197.655 41.1334 197.647 41.2002 197.627C41.267 197.606 41.329 197.572 41.3826 197.527L41.4425 197.457C51.44 182.987 50.8507 163.234 44.9681 146.744Z" fill="#002440"/>
<path d="M74.1894 105.507C63.7725 115.633 58.3992 128.902 55.2132 144.032C51.6528 161.448 46.843 178.583 40.8213 195.305C40.5816 195.956 41.2308 196.526 41.6203 196.236C41.635 196.336 41.6789 196.429 41.7464 196.504C41.814 196.579 41.9022 196.632 41.9998 196.656C47.6927 198.307 50.8587 187.24 52.6165 182.787C55.5404 175.097 57.9886 167.234 59.9473 159.242C62.1246 150.856 64.0222 142.391 66.2094 134.015C68.6863 124.569 71.7725 115.453 75.0883 106.367C75.348 105.617 74.7088 105.007 74.1894 105.507Z" fill="#003A6C"/>
<path d="M94.1967 134.305C83.2105 139.699 71.7748 145.383 63.695 156C55.705 166.446 51.8498 180.015 48.1844 193.144H47.8748C47.1457 193.214 47.1357 194.545 47.8748 194.485C52.1095 194.114 54.866 190.572 57.263 186.73C61.0882 180.476 64.7137 174.121 68.7786 168.088C76.5504 156.527 85.234 145.608 94.746 135.436C95.1555 135.006 94.746 134.085 94.1967 134.305Z" fill="#002440"/>
<path d="M32.1537 193.124C30.1562 184.738 27.2199 175.332 21.8067 169.108C19.0288 166.139 16.0234 163.392 12.818 160.893L0.832991 150.706C0.32363 150.286 -0.165757 151.086 0.053968 151.627C2.30556 156.588 5.09556 161.286 8.37354 165.636C12.0909 170.903 15.4605 176.408 18.4609 182.116C20.8179 186.549 23.6144 191.022 27.7093 193.434C28.3884 193.834 32.3035 195.305 32.1637 193.604C32.2197 193.448 32.2162 193.277 32.1537 193.124Z" fill="#003A6C"/>
<path d="M59.9017 199.958C59.9052 203.148 59.1474 206.293 57.6915 209.13C56.2356 211.967 54.1238 214.415 51.5322 216.268H27.772C25.1804 214.415 23.0686 211.967 21.6127 209.13C20.1568 206.293 19.399 203.148 19.4025 199.958C19.3967 198.487 19.5576 197.02 19.8819 195.585C20.1213 194.378 20.4793 193.198 20.9506 192.062H58.3037C58.7699 193.185 59.1342 194.347 59.3924 195.535C59.7309 196.985 59.9018 198.469 59.9017 199.958Z" fill="#FF3C24"/>
<path d="M28.3977 192.062H20.9471C20.475 193.183 20.1105 194.345 19.8584 195.535C19.5347 196.973 19.3739 198.443 19.379 199.918C19.3771 203.106 20.1357 206.249 21.5915 209.084C23.0473 211.92 25.1583 214.366 27.7485 216.218H31.0045C27.0894 213.396 25.2317 200.288 28.3977 192.062Z" fill="#8D1C23"/>
<path opacity="0.64" d="M56.9033 194.124C56.8239 193.835 56.633 193.589 56.3726 193.441C56.1123 193.292 55.8038 193.254 55.5151 193.334C55.2263 193.413 54.981 193.604 54.833 193.865C54.6851 194.126 54.6466 194.435 54.7261 194.724C55.6549 198.547 56.1842 202.65 54.2267 206.242C53.5375 207.523 55.4951 208.664 56.2242 207.383C58.4114 203.19 57.952 198.537 56.9033 194.124Z" fill="white"/>
<path d="M16.6911 137.697L15.972 137.407C15.2829 137.137 14.9733 138.237 15.6724 138.487L16.3715 138.777C17.0707 139.087 17.3603 137.967 16.6911 137.697Z" fill="#003A6C"/>
<path d="M18.9479 142.671L18.089 142.521C17.3599 142.391 17.0903 143.521 17.7894 143.601L18.6483 143.751C19.3974 143.901 19.707 142.811 18.9479 142.671Z" fill="#003A6C"/>
<path d="M19.4212 139.089C19.3422 139.328 19.1924 139.537 18.9917 139.689C18.4424 140.18 19.2514 140.98 19.8107 140.49C20.1437 140.202 20.3923 139.828 20.5298 139.409C20.7495 138.689 19.6609 138.398 19.4212 139.089Z" fill="#003A6C"/>
<path d="M22.9452 142.952C22.5583 143.531 22.2241 144.144 21.9465 144.783C21.6469 145.453 22.6356 146.034 22.9452 145.363C23.2189 144.719 23.5534 144.103 23.944 143.522C24.3335 142.912 23.3347 142.351 22.9452 142.952Z" fill="#003A6C"/>
<path d="M21.7097 149.205C21.2401 149.048 20.7392 149.011 20.2515 149.095C19.5324 149.215 19.832 150.305 20.5611 150.175C20.8496 150.144 21.1413 150.186 21.41 150.295C22.0592 150.555 22.4088 149.455 21.7097 149.205Z" fill="#003A6C"/>
<path d="M26.0101 148.795L25.1611 149.796C24.6917 150.356 25.5007 151.167 25.9701 150.596L26.819 149.596C27.2885 149.095 26.4895 148.235 26.0101 148.795Z" fill="#003A6C"/>
<path d="M25.1434 154.699C24.554 154.412 23.9242 154.216 23.2757 154.119C22.5567 154.009 22.277 155.12 22.9661 155.2C23.5157 155.272 24.0511 155.427 24.5541 155.66C25.2133 156 25.8026 155.01 25.1434 154.699Z" fill="#003A6C"/>
<path d="M29.766 154.81C29.2866 155.33 28.7672 155.89 28.3477 156.381C27.9283 156.871 28.6574 157.732 29.1567 157.181L30.5849 155.61C31.0743 155.1 30.2653 154.299 29.766 154.81Z" fill="#003A6C"/>
<path d="M27.4095 161.333C27.2067 161.13 26.9625 160.973 26.6936 160.873C26.4248 160.773 26.1376 160.732 25.8515 160.753C25.1224 160.753 25.1224 161.944 25.8515 161.884C25.9871 161.866 26.1249 161.88 26.2546 161.923C26.3843 161.966 26.5025 162.038 26.6006 162.134C27.1299 162.644 27.9389 161.854 27.4095 161.333Z" fill="#003A6C"/>
<path d="M31.6338 161.634L30.0658 163.495C29.5864 164.045 30.3854 164.856 30.8648 164.295L32.4528 162.444C32.9322 161.854 32.1132 161.103 31.6338 161.634Z" fill="#003A6C"/>
<path d="M30.2937 167.037L27.9966 166.166C27.2975 165.906 26.9979 167.007 27.687 167.247L29.9941 168.078C30.7432 168.378 30.9929 167.247 30.2937 167.037Z" fill="#003A6C"/>
<path d="M34.4415 167.247C33.7729 167.797 33.0422 168.267 32.2643 168.648C31.6151 168.988 32.1944 169.968 32.8535 169.648C33.6945 169.209 34.4849 168.679 35.2106 168.067C35.8198 167.607 35.0008 166.806 34.4415 167.247Z" fill="#003A6C"/>
<path d="M31.4456 172.11C30.6725 171.754 29.8569 171.498 29.0187 171.35C28.2896 171.22 28.0199 172.35 28.7191 172.42C29.4658 172.545 30.194 172.764 30.8863 173.071C31.5355 173.341 32.1248 172.36 31.4456 172.11Z" fill="#003A6C"/>
<path d="M34.9296 173.431C34.542 173.932 34.0516 174.345 33.4914 174.641C32.8422 174.992 33.4215 175.972 34.0607 175.642C34.7117 175.298 35.286 174.825 35.7486 174.251C36.1781 173.721 35.3591 172.86 34.9296 173.431Z" fill="#003A6C"/>
<path d="M33.1723 178.765C32.5499 178.407 31.8762 178.147 31.1748 177.994C30.4657 177.834 30.1761 178.935 30.8852 179.075C31.4902 179.205 32.0725 179.424 32.613 179.726C32.7575 179.771 32.9137 179.759 33.0495 179.692C33.1852 179.624 33.29 179.508 33.3421 179.365C33.3738 179.259 33.3747 179.147 33.3446 179.04C33.3145 178.934 33.2547 178.838 33.1723 178.765Z" fill="#003A6C"/>
<path d="M36.93 179.045C36.2956 179.519 35.6281 179.947 34.9325 180.326C34.2833 180.666 34.8626 181.667 35.5118 181.326C36.2116 180.955 36.8797 180.527 37.5093 180.046C38.0486 179.595 37.4694 178.595 36.93 179.045Z" fill="#003A6C"/>
<path d="M34.9318 184.669L32.7645 184.208C32.0355 184.058 31.6759 185.159 32.4649 185.289L34.6322 185.749C35.3113 185.929 35.621 184.829 34.9318 184.669Z" fill="#003A6C"/>
<path d="M67.08 119.576C66.9502 119.126 66.8304 118.686 66.7105 118.245C66.6382 118.111 66.5167 118.009 66.3714 117.963C66.2261 117.916 66.0684 117.928 65.9315 117.995C65.8331 118.048 65.7518 118.128 65.697 118.225C65.6422 118.323 65.6161 118.434 65.6219 118.546L65.9914 119.886C66.0635 120.021 66.1858 120.122 66.3316 120.167C66.4775 120.212 66.6352 120.197 66.7704 120.127C66.8704 120.076 66.9531 119.996 67.0082 119.898C67.0633 119.8 67.0883 119.688 67.08 119.576Z" fill="#002440"/>
<path d="M67.1409 123.739C66.4803 124.222 65.883 124.787 65.3631 125.42C64.9037 125.98 65.7126 126.791 66.1821 126.22C66.6171 125.659 67.1203 125.155 67.6802 124.719C68.3094 124.289 67.7301 123.298 67.1409 123.739Z" fill="#002440"/>
<path d="M63.6316 130.233L62.4531 128.161C62.3776 128.029 62.2526 127.931 62.1055 127.891C61.9585 127.851 61.8015 127.871 61.6691 127.946C61.5366 128.022 61.4396 128.147 61.3993 128.294C61.3591 128.442 61.3788 128.599 61.4543 128.732L62.6229 130.813C62.7017 130.944 62.8287 131.038 62.9764 131.075C63.1241 131.113 63.2805 131.09 63.4119 131.013C63.4788 130.978 63.5378 130.929 63.5853 130.87C63.6328 130.811 63.668 130.743 63.6885 130.67C63.709 130.597 63.7146 130.521 63.7048 130.446C63.695 130.37 63.6701 130.298 63.6316 130.233Z" fill="#002440"/>
<path d="M63.6928 135.887L62.3445 136.437C61.6654 136.707 61.965 137.808 62.6441 137.518L63.9925 136.947C64.6516 136.707 64.4119 135.606 63.6928 135.887Z" fill="#002440"/>
<path d="M61.0678 138.088C60.6772 137.786 60.3597 137.399 60.139 136.957C59.7894 136.307 58.8007 136.887 59.1403 137.528C59.467 138.137 59.9281 138.664 60.4886 139.069C61.0878 139.469 61.6471 138.468 61.0678 138.088Z" fill="#002440"/>
<path d="M62.1481 140.79L60.0707 141.35C60.0044 141.385 59.9456 141.433 59.8977 141.49C59.8498 141.548 59.8137 141.614 59.7914 141.686C59.7692 141.757 59.7612 141.833 59.768 141.907C59.7748 141.982 59.7962 142.055 59.831 142.121C59.8796 142.223 59.9585 142.307 60.0568 142.363C60.155 142.418 60.268 142.442 60.3803 142.431L62.4677 141.831C62.5893 141.741 62.671 141.607 62.6953 141.457C62.7196 141.307 62.6845 141.154 62.5975 141.03C62.5443 140.96 62.4766 140.902 62.399 140.861C62.3214 140.819 62.2358 140.795 62.1481 140.79Z" fill="#002440"/>
<path d="M58.4109 146.224L57.3223 144.493C56.9228 143.882 55.934 144.493 56.3235 145.063C56.7131 145.633 57.0626 146.224 57.4122 146.794C57.7617 147.364 58.8104 146.834 58.4109 146.224Z" fill="#002440"/>
<path d="M60.0696 148.905C59.4118 149.306 58.6695 149.546 57.9023 149.606C57.1732 149.676 57.1732 150.817 57.9023 150.746C58.8808 150.674 59.8301 150.379 60.6788 149.886C60.7471 149.851 60.8073 149.801 60.8558 149.742C60.9042 149.682 60.9399 149.613 60.9605 149.539C60.9811 149.464 60.9862 149.387 60.9756 149.311C60.9649 149.234 60.9387 149.161 60.8985 149.095C60.8587 149.026 60.8051 148.966 60.7409 148.918C60.6767 148.87 60.6034 148.837 60.5255 148.819C60.4477 148.801 60.367 148.799 60.2885 148.814C60.2101 148.829 60.1355 148.86 60.0696 148.905Z" fill="#002440"/>
<path d="M56.5652 153.728C56.0558 153.218 55.5665 152.728 55.0571 152.187C54.5477 151.647 53.7288 152.467 54.2481 152.998L55.7263 154.539C55.8335 154.65 55.9806 154.714 56.1351 154.717C56.2897 154.72 56.439 154.661 56.5502 154.554C56.6615 154.446 56.7256 154.299 56.7284 154.144C56.7312 153.989 56.6725 153.84 56.5652 153.728Z" fill="#002440"/>
<path d="M58.3802 156.811C57.781 157.21 57.097 157.463 56.3828 157.551C55.6537 157.631 55.6537 158.782 56.3828 158.682C57.2908 158.587 58.1654 158.286 58.9395 157.801C59.0601 157.722 59.146 157.599 59.1799 157.459C59.2138 157.318 59.1931 157.17 59.122 157.044C59.0509 156.918 58.9348 156.824 58.7971 156.781C58.6594 156.737 58.5104 156.748 58.3802 156.811Z" fill="#002440"/>
<path d="M54.9044 160.903L53.9057 159.962C53.7951 159.88 53.6588 159.839 53.5212 159.848C53.3837 159.858 53.2539 159.916 53.1552 160.012C53.0565 160.109 52.9954 160.237 52.9829 160.375C52.9703 160.512 53.0071 160.65 53.0867 160.763L54.0855 161.763C54.1953 161.87 54.3422 161.929 54.495 161.929C54.6477 161.929 54.7946 161.87 54.9044 161.763C55.01 161.655 55.069 161.509 55.069 161.358C55.069 161.207 55.01 161.061 54.9044 160.953V160.903Z" fill="#002440"/>
<path d="M56.5836 164.375L54.8557 164.575C54.1366 164.645 54.1366 165.795 54.8557 165.715L56.5836 165.525C57.3027 165.435 57.3126 164.295 56.5836 164.375Z" fill="#002440"/>
<path d="M52.9891 169.409L50.9117 166.957C50.4323 166.397 49.6333 167.207 50.1127 167.768L52.2799 170.219C52.6695 170.8 53.4685 169.989 52.9891 169.409Z" fill="#002440"/>
<path d="M54.7043 171.4L52.9964 171.84C52.9302 171.874 52.8714 171.922 52.8235 171.979C52.7756 172.037 52.7395 172.103 52.7172 172.175C52.6949 172.246 52.687 172.322 52.6938 172.396C52.7005 172.471 52.7219 172.543 52.7567 172.61C52.8054 172.711 52.8843 172.796 52.9825 172.851C53.0808 172.907 53.1938 172.931 53.3061 172.92L55.0139 172.48C55.1476 172.409 55.2485 172.289 55.2951 172.145C55.3418 172.002 55.3305 171.845 55.2636 171.71C55.2082 171.611 55.1266 171.53 55.0278 171.475C54.9291 171.421 54.8171 171.394 54.7043 171.4Z" fill="#002440"/>
<path d="M51.4492 174.192C50.8897 173.743 50.3926 173.221 49.9711 172.641C49.5516 172.05 48.5628 172.641 48.9723 173.211C49.4413 173.88 49.9953 174.486 50.6203 175.012C51.1995 175.472 52.0085 174.662 51.4492 174.192Z" fill="#002440"/>
<path d="M52.7469 176.723L51.039 176.503C50.3099 176.413 50.3099 177.583 51.039 177.583L52.7469 177.813C53.4759 177.963 53.466 176.823 52.7469 176.723Z" fill="#002440"/>
<path d="M49.4837 181.117C48.9353 180.606 48.5821 179.919 48.4849 179.175C48.395 178.455 47.2465 178.445 47.3963 179.175C47.5142 180.216 47.9869 181.185 48.7346 181.917C49.214 182.408 50.003 181.597 49.4837 181.117Z" fill="#002440"/>
<path d="M53.0004 183.117C51.5752 183.899 49.9894 184.341 48.3662 184.408C48.2152 184.408 48.0704 184.468 47.9636 184.575C47.8569 184.682 47.7969 184.827 47.7969 184.979C47.7969 185.13 47.8569 185.275 47.9636 185.382C48.0704 185.489 48.2152 185.549 48.3662 185.549C50.189 185.469 51.9707 184.98 53.5796 184.118C54.2288 183.788 53.6595 182.807 53.0004 183.117Z" fill="#002440"/>
<path d="M6.65544 158.291L4.73784 157.911C4.01874 157.771 3.65919 158.861 4.43822 158.991L6.34583 159.371C7.06492 159.531 7.38452 158.431 6.65544 158.291Z" fill="#002440"/>
<path d="M8.82041 159.612L8.64063 161.313C8.56074 162.044 9.72927 162.034 9.78919 161.313L9.97896 159.612C10.1088 158.872 8.90031 158.882 8.82041 159.612Z" fill="#002440"/>
<path d="M11.4678 165.486H9.55025C9.41097 165.504 9.28313 165.573 9.19053 165.679C9.09793 165.784 9.04688 165.92 9.04688 166.061C9.04688 166.201 9.09793 166.337 9.19053 166.443C9.28313 166.549 9.41097 166.617 9.55025 166.636H11.4678C11.6071 166.617 11.735 166.549 11.8276 166.443C11.9202 166.337 11.9712 166.201 11.9712 166.061C11.9712 165.92 11.9202 165.784 11.8276 165.679C11.735 165.573 11.6071 165.504 11.4678 165.486Z" fill="#002440"/>
<path d="M14.3674 165.716L13.6084 167.627C13.3387 168.308 14.4473 168.628 14.697 167.928C14.9467 167.227 15.1964 166.657 15.4561 166.016C15.7157 165.376 14.6371 165.106 14.3674 165.716Z" fill="#002440"/>
<path d="M17.3515 171.79C16.4879 171.588 15.6001 171.511 14.7148 171.56C13.9857 171.62 13.9857 172.75 14.7148 172.71C15.4984 172.65 16.2866 172.71 17.0519 172.89C17.761 173.05 18.0706 171.95 17.3515 171.79Z" fill="#002440"/>
<path d="M19.6975 171.56C19.4372 172.378 19.0712 173.158 18.6088 173.881C18.2093 174.512 19.1981 175.082 19.6076 174.462C20.1173 173.651 20.5265 172.78 20.8261 171.87C21.0258 171.2 19.8773 170.909 19.6975 171.56Z" fill="#002440"/>
<path d="M20.7974 178.805C20.0073 178.544 19.1822 178.406 18.3504 178.395C18.2786 178.418 18.2123 178.456 18.1554 178.506C18.0986 178.556 18.0525 178.616 18.0198 178.685C17.9871 178.753 17.9686 178.827 17.9654 178.903C17.9621 178.978 17.9742 179.054 18.0009 179.125C18.0309 179.204 18.0776 179.277 18.1379 179.337C18.1982 179.398 18.2706 179.444 18.3504 179.475C19.0907 179.487 19.8248 179.612 20.5277 179.845C21.1869 180.195 21.4865 179.045 20.7974 178.805Z" fill="#002440"/>
<path d="M24.2239 178.554C23.7017 179.159 23.1194 179.709 22.486 180.195C21.9068 180.635 22.486 181.616 23.0653 181.196C23.7964 180.657 24.4663 180.04 25.0628 179.355C25.1688 179.243 25.2262 179.094 25.2224 178.94C25.2187 178.786 25.1541 178.64 25.0428 178.534C24.9316 178.428 24.7828 178.37 24.6292 178.374C24.4756 178.378 24.3298 178.443 24.2239 178.554Z" fill="#002440"/>
<path d="M23.146 173.111C23.1278 173.945 22.9158 174.764 22.5268 175.502C22.1772 176.142 23.166 176.723 23.5255 176.072C24.0021 175.141 24.2681 174.116 24.3045 173.07C24.2992 172.917 24.2331 172.771 24.1208 172.666C24.0084 172.561 23.8589 172.505 23.7053 172.51C23.5517 172.515 23.4064 172.582 23.3015 172.694C23.1966 172.807 23.1407 172.957 23.146 173.111Z" fill="#002440"/>
<path d="M24.6335 184.648L22.5262 184.118C22.3927 184.103 22.2583 184.136 22.1467 184.211C22.0352 184.286 21.9537 184.398 21.9166 184.527C21.8796 184.657 21.8894 184.795 21.9442 184.918C21.9991 185.041 22.0956 185.14 22.2166 185.198L24.3239 185.749C24.4574 185.763 24.5918 185.73 24.7034 185.656C24.8149 185.581 24.8964 185.469 24.9335 185.339C24.9705 185.21 24.9607 185.072 24.9058 184.949C24.851 184.826 24.7545 184.726 24.6335 184.668V184.648Z" fill="#002440"/>
<path d="M26.6633 185.899C26.3536 186.41 26.034 186.9 25.6645 187.42C25.295 187.941 26.2638 188.621 26.6633 188.001L27.662 186.49C28.0515 185.859 27.0528 185.289 26.6633 185.899Z" fill="#002440"/>
<path d="M196.438 202.28H203.289C204.488 207.484 208.163 210.916 214.405 211.476C218.07 211.806 217.791 216.299 217.791 216.299H197.466C197.466 216.299 195.019 214.138 197.616 209.655C198.245 208.534 196.438 202.28 196.438 202.28Z" fill="#FFC4C2"/>
<path d="M214.405 211.486C218.07 211.816 217.791 216.309 217.791 216.309H197.466C197.466 216.309 195.019 214.147 197.616 209.664C198.984 210.435 202.49 211.255 206.835 208.514C209.07 210.123 211.673 211.145 214.405 211.486Z" fill="#00172F"/>
<path d="M210.214 210.406C210.214 210.406 206.738 208.354 206.308 206.543C205.879 204.732 203.722 206.383 203.522 206.893C203.322 207.404 206.059 210.315 210.214 210.406Z" fill="#00172F"/>
<path d="M174.527 202.28H181.378C182.597 207.484 186.252 210.916 192.504 211.476C196.17 211.806 195.88 216.299 195.88 216.299H175.556C175.556 216.299 173.119 214.138 175.705 209.655C176.355 208.534 174.527 202.28 174.527 202.28Z" fill="#FFC4C2"/>
<path d="M192.504 211.486C196.17 211.816 195.88 216.309 195.88 216.309H175.556C175.556 216.309 173.119 214.147 175.705 209.664C177.094 210.435 180.589 211.255 184.934 208.514C187.168 210.126 189.772 211.148 192.504 211.486Z" fill="#00172F"/>
<path d="M188.298 210.406C188.298 210.406 184.822 208.354 184.402 206.543C183.983 204.732 181.826 206.383 181.606 206.893C181.386 207.404 184.163 210.315 188.298 210.406Z" fill="#00172F"/>
<path d="M142.626 77.5088C142.584 79.8519 142.408 82.1907 142.096 84.5134L141.098 83.973C141.098 83.973 141.417 79.6602 141.307 77.849L142.626 77.5088Z" fill="#137EB2"/>
<path d="M136.29 86.9845C136.4 87.9852 136.71 89.6863 137.729 90.2266L137.888 90.2967C140.325 91.3774 142.682 89.216 142.632 86.154C142.677 85.1623 142.337 84.1918 141.684 83.4456C141.03 82.6995 140.114 82.2357 139.127 82.1514C138.905 82.1214 138.68 82.1214 138.458 82.1514C138.107 82.2284 137.78 82.3848 137.499 82.6086C137.219 82.8324 136.993 83.1175 136.84 83.4422C136.423 84.5746 136.236 85.7789 136.29 86.9845Z" fill="#FF3C24"/>
<path d="M136.292 86.9845C136.401 87.9852 136.711 89.6863 137.73 90.2266L137.89 90.2967C136.731 87.5749 136.621 84.583 138.459 82.1514C138.108 82.2309 137.78 82.3894 137.5 82.6147C137.22 82.8401 136.994 83.1265 136.841 83.4522C136.42 84.5801 136.233 85.7819 136.292 86.9845Z" fill="#6F8ADF"/>
<path d="M124.267 84.5228L125.616 84.3727C125.616 84.2827 124.527 74.8865 128.342 70.7238C128.914 70.072 129.622 69.5546 130.416 69.2087C131.21 68.8627 132.071 68.6967 132.937 68.7225H132.996C134.151 68.6483 135.308 68.8224 136.39 69.2332C137.472 69.6439 138.453 70.2819 139.269 71.1041C141.646 73.7558 141.266 77.7684 141.266 77.8084L142.614 77.9485C142.614 77.7684 143.074 73.3055 140.297 70.2135C139.356 69.2469 138.22 68.4933 136.964 68.0031C135.708 67.513 134.362 67.2977 133.016 67.3716C131.954 67.3391 130.897 67.5368 129.918 67.9513C128.939 68.3658 128.061 68.9873 127.344 69.7732C123.149 74.4563 124.207 84.1726 124.267 84.5228Z" fill="#137EB2"/>
<path d="M138.042 113.592C140.039 118.465 154.751 133.865 157.448 136.807C160.714 140.359 168.494 137.277 167.175 133.075C165.997 129.362 150.376 109.059 148.099 107.188C143.965 103.785 135.485 107.508 138.042 113.592Z" fill="#FFC4C2"/>
<path d="M136.375 146.283C127.386 149.986 134.257 164.485 145.883 168.238C157.508 171.99 170.442 169.659 180.519 170.399C183.376 170.599 190.687 165.876 185.323 160.042C179.96 154.209 148.51 141.24 136.375 146.283Z" fill="#00172F"/>
<path d="M181.966 157.641C192.573 162.844 201.382 196.216 205.257 201.399C202.416 204.165 199.186 206.498 195.669 208.324C195.669 208.324 173.756 172.981 171.948 168.748C168.113 159.922 178.47 155.939 181.966 157.641Z" fill="#00172F"/>
<path d="M148.95 146.313C148.95 146.313 169.834 156.44 173.919 161.773C177.395 166.316 191.747 184.348 195.642 208.323L169.944 166.106L156.501 170.048L138.523 152.787L148.95 146.313Z" fill="#050B0C"/>
<path d="M115.132 146.283C111.677 153.287 113.974 162.974 125.559 166.786C137.145 170.599 150.039 169.708 160.915 170.429C163.771 170.629 172.101 166.116 166.728 160.232C161.355 154.348 120.965 134.575 115.132 146.283Z" fill="#00172F"/>
<path d="M145.023 125.339C141.102 120.709 137.876 115.532 135.445 109.969C132.749 103.635 140.329 98.962 144.554 102.414C145.642 103.265 153.153 108.718 157.258 114.592C154.941 120.006 146.082 125.079 145.023 125.339Z" fill="white"/>
<path d="M126.167 148.535C126.167 148.535 115.979 151.777 121.353 157.771C126.726 163.765 154.231 170.249 154.231 170.249C154.231 170.249 120.913 171.7 115.38 159.102C110.606 148.165 117.447 143.202 117.447 143.202L126.167 148.535Z" fill="#050B0C"/>
<path d="M138.011 100.354C138.011 100.354 142.435 99.9734 144.772 102.355C147.109 104.737 148.318 113.222 150.205 124.94C152.093 136.657 154.48 145.953 154.48 145.953C154.48 145.953 138.56 153.768 112.982 148.435C112.982 148.435 107.829 115.103 113.901 103.406C115.829 99.6832 124.887 99.6832 126.216 99.5632C127.544 99.4431 138.011 100.354 138.011 100.354Z" fill="#00DBF5"/>
<path d="M136.905 95.1399C136.905 95.1399 136.196 99.2425 137.484 99.7829C138.451 100.14 139.457 100.381 140.48 100.503C140.48 100.503 133.389 110.7 125.27 99.5627C125.27 99.5627 127.677 99.5627 128.426 98.6421C129.175 97.7215 129.624 92.8884 129.255 89.7363L136.905 95.1399Z" fill="#FFC4C2"/>
<path d="M128.505 98.6421C129.254 97.6415 129.713 92.8884 129.344 89.7363L133.688 92.8183C132.835 93.7032 132.124 94.716 131.581 95.8203C130.492 97.9117 129.833 100.824 132.02 102.475C132.909 103.023 133.912 103.359 134.95 103.458C135.989 103.557 137.037 103.416 138.013 103.045C135.236 105.106 130.512 106.627 125.399 99.5527C125.369 99.5627 127.816 99.6028 128.505 98.6421Z" fill="#F99F98"/>
<path d="M108.007 106.828C104.152 110.44 94.8837 129.553 93.026 133.105C90.8587 137.418 94.9636 142.221 98.9086 140.22C102.274 138.528 116.636 116.664 117.585 113.872C119.343 108.849 112.831 102.295 108.007 106.828Z" fill="#FFC4C2"/>
<path d="M100.449 115.073C104.131 110.213 108.506 105.921 113.433 102.334C119.036 98.3319 125.298 104.606 122.941 109.449C120.639 114.207 117.717 118.639 114.252 122.628C108.339 121.617 100.969 116.013 100.449 115.073Z" fill="white"/>
<path d="M164.249 158.101C174.906 163.234 181.308 198.527 185.223 203.691C185.223 203.691 179.3 206.693 174.357 206.833C174.357 206.833 156.169 174.472 154.312 170.209C150.347 161.443 160.774 156.46 164.249 158.101Z" fill="#00172F"/>
<path d="M125.707 91.8377C125.931 92.1649 126.253 92.4127 126.626 92.5457C126.999 92.6787 127.404 92.69 127.784 92.5782C128.583 92.258 128.154 91.0172 127.874 90.4668C127.485 89.7263 127.655 81.531 127.615 81.521C126.567 82.0375 125.641 82.7708 124.898 83.6724C124.748 84.583 123.07 87.9452 125.707 91.8377Z" fill="#0C1540"/>
<path d="M140.516 78.7095V91.1075C140.436 92.7978 139.689 94.387 138.44 95.5259C137.191 96.6648 135.542 97.2603 133.855 97.1815C132.168 97.2576 130.52 96.6613 129.272 95.5229C128.023 94.3845 127.276 92.7969 127.193 91.1075V90.8274C126.847 90.9213 126.487 90.9462 126.131 90.9005C125.776 90.8548 125.434 90.7395 125.123 90.5611C124.812 90.3827 124.54 90.1447 124.321 89.8607C124.102 89.5768 123.941 89.2524 123.847 88.9061C123.754 88.5606 123.73 88.2001 123.777 87.8454C123.777 84.123 125.944 84.6133 125.944 84.6133V78.6694L140.516 78.7095Z" fill="#FFC4C2"/>
<path d="M125.926 84.6528V77.1079H131.109V92.7281C131.196 93.8428 131.709 94.8809 132.54 95.6265C133.372 96.3721 134.458 96.7676 135.574 96.7307C136.245 96.7014 136.9 96.52 137.491 96.2004C136.395 96.8547 135.142 97.2004 133.866 97.201C133.031 97.24 132.197 97.1138 131.41 96.8297C130.624 96.5455 129.902 96.1089 129.284 95.5448C128.666 94.9808 128.166 94.3003 127.81 93.5423C127.455 92.7842 127.253 91.9636 127.214 91.1271V90.8469C126.515 91.037 125.769 90.9415 125.14 90.5813C124.511 90.2211 124.05 89.6257 123.858 88.9256C123.772 88.5995 123.748 88.2599 123.789 87.925C123.818 84.1725 125.926 84.6528 125.926 84.6528Z" fill="#F99F98"/>
<path d="M125.924 84.6532C125.634 85.4837 127.133 86.6545 127.862 86.6545C129.35 86.6545 129.949 81.361 130.628 78.6492C132.146 79.3097 135.492 79.7299 136.79 78.6492C138.049 79.7299 139.897 79.5498 141.524 79.1596C143.961 78.5792 145.12 75.8374 144.671 73.5259C144.443 72.5921 143.895 71.768 143.123 71.1974C142.351 70.6268 141.404 70.3459 140.446 70.4039C138.948 68.5126 136.281 69.4032 135.452 69.9836C133.644 68.9129 127.522 68.7128 125.674 72.4452C122.159 73.5959 122.229 84.0528 125.924 84.6532Z" fill="#0C1540"/>
<path d="M124.268 84.5228L125.616 84.3727C125.616 84.2826 124.527 74.8865 128.343 70.7238C128.914 70.072 129.622 69.5546 130.417 69.2087C131.211 68.8627 132.071 68.6967 132.937 68.7225H132.997C134.033 68.7218 135.065 68.8632 136.063 69.1428L136.443 67.8519C135.325 67.5322 134.169 67.3705 133.007 67.3716C131.944 67.3391 130.888 67.5368 129.908 67.9513C128.929 68.3658 128.051 68.9872 127.334 69.7732C123.149 74.4562 124.208 84.1726 124.268 84.5228Z" fill="#137EB2"/>
<path d="M132.689 96.8414H133.618V95.9409C133.618 95.9409 129.853 96.141 128.355 95.2504C127.266 94.64 126.647 91.528 126.487 89.7168L125.578 89.8069C125.578 90.3172 126.107 94.9802 127.885 96.0309C129.41 96.6443 131.048 96.9207 132.689 96.8414Z" fill="#137EB2"/>
<path d="M128.662 88.1754C128.552 89.1761 128.243 90.8672 127.224 91.4076L127.064 91.4876C124.627 92.5683 122.27 90.4069 122.32 87.3449C122.278 86.3539 122.618 85.3847 123.271 84.6391C123.924 83.8935 124.839 83.429 125.826 83.3423C126.048 83.3123 126.273 83.3123 126.495 83.3423C126.845 83.4218 127.173 83.5803 127.453 83.8057C127.734 84.0311 127.959 84.3175 128.113 84.6431C128.53 85.772 128.716 86.9731 128.662 88.1754Z" fill="#FF3C24"/>
<path d="M128.659 88.1754C128.55 89.1761 128.24 90.8672 127.221 91.4075L127.061 91.4876C128.22 88.7658 128.33 85.7639 126.492 83.3423C126.843 83.4179 127.171 83.5738 127.452 83.7977C127.733 84.0216 127.958 84.3076 128.11 84.6331C128.532 85.7642 128.718 86.9695 128.659 88.1754Z" fill="#137EB2"/>
<path opacity="0.51" d="M124.571 88.8662C124.16 88.0595 124.064 87.1284 124.302 86.2545C124.323 86.1789 124.329 86.0999 124.319 86.0221C124.309 85.9442 124.284 85.8691 124.245 85.8011C124.206 85.733 124.154 85.6735 124.091 85.6259C124.029 85.5784 123.958 85.5437 123.882 85.524C123.806 85.5028 123.727 85.4968 123.648 85.5064C123.57 85.5161 123.494 85.5411 123.425 85.5802C123.357 85.6192 123.296 85.6715 123.248 85.734C123.2 85.7965 123.164 85.868 123.143 85.9443C122.816 87.1272 122.952 88.3904 123.523 89.4766C123.872 90.167 124.921 89.5666 124.571 88.8662Z" fill="#DEE7FF"/>
<path d="M134.805 96.2002C134.744 96.6315 134.515 97.0208 134.167 97.2826C133.82 97.5444 133.383 97.6572 132.952 97.5961C132.522 97.5351 132.133 97.3052 131.872 96.9571C131.611 96.609 131.498 96.1712 131.559 95.7399C131.589 95.528 131.659 95.324 131.768 95.1397C131.876 94.9554 132.02 94.7944 132.191 94.666C132.362 94.5376 132.556 94.4444 132.763 94.3917C132.97 94.339 133.186 94.3279 133.397 94.359C133.827 94.4163 134.217 94.6424 134.481 94.9876C134.745 95.3328 134.862 95.769 134.805 96.2002Z" fill="#FF3C24"/>
<path d="M186.3 151.637H143.773V153.868H186.3V151.637Z" fill="#003A6C"/>
<path d="M143.792 153.858H124.156V152.607C124.156 152.342 124.261 152.087 124.449 151.9C124.636 151.712 124.89 151.606 125.155 151.606H143.752L143.792 153.858Z" fill="#00172F"/>
<path d="M185.091 151.637H142.734L148.307 125.74C148.375 125.38 148.565 125.054 148.845 124.818C149.126 124.583 149.479 124.452 149.845 124.449H187.978C188.302 124.46 188.621 124.534 188.917 124.669C189.212 124.803 189.478 124.995 189.699 125.234C189.92 125.472 190.092 125.751 190.204 126.056C190.317 126.362 190.368 126.686 190.355 127.011C190.346 127.173 190.323 127.334 190.285 127.491L185.091 151.637Z" fill="#003A6C"/>
<path d="M186.12 151.637H143.793L149.366 125.74C149.436 125.383 149.626 125.06 149.904 124.826C150.182 124.591 150.531 124.458 150.894 124.449H189.845C190.081 124.457 190.313 124.511 190.527 124.609C190.742 124.707 190.935 124.847 191.096 125.02C191.256 125.193 191.381 125.396 191.463 125.617C191.545 125.839 191.582 126.074 191.573 126.31C191.566 126.432 191.55 126.552 191.523 126.671L186.12 151.637Z" fill="#00172F"/>
<path opacity="0.34" d="M169.49 124.439L181.425 151.637H175.972L163.598 124.439H169.49Z" fill="#DEE7FF"/>
<path opacity="0.34" d="M160.582 124.439L172.517 151.637H170.39L158.016 124.439H160.582Z" fill="#DEE7FF"/>
<path d="M95.7422 140.87C100.087 143.452 118.554 147.434 121.959 148.255C126.124 149.255 129.82 143.672 125.665 142.191C121.51 140.71 99.3877 131.234 96.8508 131.004C92.3565 130.563 90.2591 137.638 95.7422 140.87Z" fill="#FFC4C2"/>
<path d="M137.63 151.227C136.541 149.596 135.583 147.985 136.471 149.165C137.56 150.636 139.827 150.026 138.649 148.565C137.211 146.724 135.802 144.512 133.875 143.172C131.947 141.831 125.885 142.681 123.558 141.901C122.639 141.591 121.39 146.043 122.01 146.624C123.917 148.555 127.143 148.445 127.433 148.725C127.955 149.582 128.416 150.474 128.811 151.397C129.46 152.708 131.937 152.778 131.288 151.487C130.878 150.656 131.288 150.576 131.937 151.727C132.726 153.198 135.263 153.118 134.484 151.657C134.144 151.047 134.214 150.706 134.724 151.497C135.802 153.098 138.659 152.808 137.63 151.227Z" fill="#FFC4C2"/>
<path d="M298.75 153.878H300.118C300.383 153.878 300.637 153.773 300.825 153.585C301.012 153.397 301.117 153.143 301.117 152.877L300.188 149.815H296.902L297.841 152.877C297.84 153.128 297.933 153.37 298.101 153.555C298.27 153.74 298.501 153.856 298.75 153.878Z" fill="#D17300"/>
<path d="M299.349 153.878H300.708C300.973 153.878 301.227 153.773 301.414 153.585C301.601 153.397 301.706 153.143 301.706 152.877L300.768 149.815H297.512L298.451 152.877C298.449 153.126 298.541 153.367 298.707 153.552C298.873 153.737 299.102 153.853 299.349 153.878Z" fill="#FF8D00"/>
<path d="M287.802 153.878H289.16C289.425 153.878 289.679 153.773 289.866 153.585C290.054 153.397 290.159 153.143 290.159 152.877L291.088 149.815H287.812L286.883 152.877C286.882 153.13 286.976 153.373 287.147 153.558C287.317 153.744 287.551 153.858 287.802 153.878Z" fill="#D17300"/>
<path d="M279.012 136.787C278.988 133.872 279.83 131.016 281.429 128.581C283.028 126.147 285.313 124.242 287.994 123.111C290.675 121.98 293.631 121.672 296.488 122.226C299.344 122.781 301.971 124.174 304.036 126.227C306.101 128.28 307.51 130.902 308.085 133.759C308.66 136.616 308.375 139.58 307.266 142.275C306.157 144.97 304.274 147.274 301.855 148.894C299.437 150.514 296.593 151.379 293.684 151.377C291.764 151.385 289.862 151.013 288.085 150.284C286.309 149.555 284.693 148.483 283.331 147.128C281.968 145.773 280.885 144.162 280.144 142.388C279.404 140.614 279.019 138.711 279.012 136.787Z" fill="#D17300"/>
<path d="M305.901 127.201L299.988 124.159L302.505 119.316L308.418 122.358L305.901 127.201Z" fill="#D17300"/>
<path d="M299.21 121.638L308.408 126.321C308.719 125.72 308.908 125.064 308.964 124.39C309.02 123.716 308.942 123.038 308.733 122.394C308.525 121.751 308.191 121.156 307.752 120.643C307.312 120.13 306.774 119.709 306.171 119.406C304.948 118.775 303.525 118.655 302.215 119.073C300.904 119.491 299.812 120.414 299.18 121.638H299.21Z" fill="#FF8D00"/>
<path d="M290.39 124.939L285.067 128.902L281.781 124.549L287.105 120.586L290.39 124.939Z" fill="#D17300"/>
<path d="M281.622 127.151L289.882 120.997C289.05 119.911 287.825 119.197 286.472 119.009C285.118 118.822 283.745 119.177 282.651 119.997C282.105 120.392 281.644 120.892 281.293 121.468C280.943 122.044 280.71 122.684 280.609 123.35C280.507 124.017 280.539 124.698 280.703 125.352C280.867 126.006 281.159 126.621 281.562 127.161H281.622V127.151Z" fill="#FF8D00"/>
<path d="M280.274 136.837C280.246 133.922 281.084 131.065 282.68 128.627C284.276 126.19 286.56 124.283 289.24 123.148C291.92 122.013 294.876 121.702 297.733 122.254C300.59 122.805 303.219 124.195 305.287 126.246C307.354 128.298 308.766 130.919 309.344 133.776C309.922 136.633 309.64 139.598 308.533 142.294C307.426 144.99 305.544 147.295 303.127 148.918C300.709 150.54 297.865 151.407 294.956 151.407C293.037 151.416 291.135 151.047 289.359 150.319C287.582 149.592 285.966 148.522 284.603 147.169C283.24 145.816 282.156 144.207 281.413 142.434C280.67 140.662 280.283 138.76 280.274 136.837Z" fill="#FF8D00"/>
<path d="M288.395 153.878H289.763C290.028 153.878 290.282 153.773 290.469 153.585C290.657 153.397 290.762 153.143 290.762 152.877L291.691 149.815H288.435L287.496 152.877C287.495 153.126 287.586 153.367 287.752 153.552C287.919 153.737 288.148 153.853 288.395 153.878Z" fill="#FF8D00"/>
<path d="M282 136.787C281.979 134.249 282.71 131.762 284.101 129.641C285.493 127.521 287.482 125.862 289.816 124.876C292.15 123.889 294.723 123.62 297.21 124.101C299.697 124.583 301.986 125.794 303.785 127.581C305.583 129.368 306.812 131.65 307.314 134.137C307.816 136.625 307.57 139.206 306.605 141.553C305.641 143.9 304.003 145.907 301.898 147.319C299.794 148.731 297.318 149.485 294.784 149.485C293.113 149.493 291.456 149.171 289.908 148.537C288.361 147.903 286.953 146.97 285.766 145.79C284.579 144.611 283.635 143.209 282.989 141.664C282.343 140.119 282.007 138.462 282 136.787Z" fill="white"/>
<path d="M295.042 125.03H294.512V127.211H295.042V125.03Z" fill="#00172F"/>
<path d="M300.168 128.042L299.719 127.782L300.478 126.491L300.927 126.741L300.168 128.042Z" fill="#00172F"/>
<path d="M303.865 131.884L303.605 131.444L304.914 130.694L305.173 131.134L303.865 131.884Z" fill="#00172F"/>
<path d="M306.627 136.537H304.43V137.057H306.627V136.537Z" fill="#00172F"/>
<path d="M304.332 140.86L304.592 140.41L305.91 141.16L305.65 141.61L304.332 140.86Z" fill="#00172F"/>
<path d="M299.719 145.813L300.168 145.553L300.927 146.854L300.478 147.114L299.719 145.813Z" fill="#00172F"/>
<path d="M295.053 146.323H294.523V148.544H295.053V146.323Z" fill="#00172F"/>
<path d="M289.4 145.543L289.849 145.803L289.1 147.104L288.641 146.844L289.4 145.543Z" fill="#00172F"/>
<path d="M285.719 141.69L285.978 142.14L284.67 142.89L284.41 142.44L285.719 141.69Z" fill="#00172F"/>
<path d="M285.186 136.526H282.949V137.046H285.186V136.526Z" fill="#00172F"/>
<path d="M285.978 131.423L285.719 131.873L284.41 131.123L284.67 130.673L285.978 131.423Z" fill="#00172F"/>
<path d="M289.849 127.782L289.4 128.042L288.641 126.741L289.09 126.491L289.849 127.782Z" fill="#00172F"/>
<path d="M301.618 129.413L302.287 130.073L294.767 137.538L294.098 136.877L301.618 129.413Z" fill="#00172F"/>
<path d="M301.295 141.981L300.935 142.471L295.152 138.189L295.512 137.698L301.295 141.981Z" fill="#00172F"/>
<path d="M293.047 136.968C293.043 136.623 293.142 136.284 293.33 135.995C293.519 135.706 293.789 135.48 294.106 135.345C294.423 135.21 294.773 135.173 295.111 135.238C295.45 135.303 295.761 135.467 296.006 135.709C296.251 135.952 296.419 136.262 296.488 136.601C296.556 136.939 296.523 137.29 296.392 137.609C296.261 137.929 296.039 138.202 295.752 138.394C295.466 138.586 295.129 138.689 294.785 138.689C294.558 138.69 294.333 138.647 294.123 138.561C293.913 138.475 293.721 138.349 293.56 138.189C293.399 138.029 293.27 137.839 293.182 137.629C293.094 137.42 293.048 137.195 293.047 136.968Z" fill="#00172F"/>
<path d="M293.867 136.967C293.863 136.782 293.915 136.6 294.015 136.444C294.115 136.288 294.259 136.166 294.429 136.092C294.599 136.019 294.787 135.998 294.969 136.033C295.15 136.067 295.318 136.155 295.449 136.286C295.581 136.416 295.67 136.583 295.707 136.764C295.743 136.946 295.724 137.134 295.653 137.306C295.582 137.477 295.461 137.622 295.307 137.724C295.153 137.826 294.971 137.88 294.786 137.878C294.544 137.878 294.312 137.782 294.14 137.612C293.968 137.441 293.87 137.21 293.867 136.967Z" fill="white"/>
<defs>
<linearGradient id="paint0_linear_196_742" x1="25798.1" y1="15887.4" x2="31698.3" y2="15887.4" gradientUnits="userSpaceOnUse">
<stop stop-color="#FEC564"/>
<stop offset="0.32" stop-color="#FEAA62"/>
<stop offset="0.99" stop-color="#FF665E"/>
<stop offset="1" stop-color="#FF655E"/>
</linearGradient>
<linearGradient id="paint1_linear_196_742" x1="9678.46" y1="6061.88" x2="11824.6" y2="6061.88" gradientUnits="userSpaceOnUse">
<stop stop-color="#FEC564"/>
<stop offset="0.32" stop-color="#FEAA62"/>
<stop offset="0.99" stop-color="#FF665E"/>
<stop offset="1" stop-color="#FF655E"/>
</linearGradient>
</defs>
</svg>
