<svg width="285" height="371" viewBox="0 0 285 371" fill="none" xmlns="http://www.w3.org/2000/svg">
<path d="M194.297 190.543C194.169 189.848 193.582 189.355 192.905 189.318C192.776 189.3 192.648 189.318 192.538 189.336C191.714 189.483 191.182 190.269 191.329 191.091L199.243 233.481C199.372 234.194 200.251 234.487 200.782 233.975C201.643 233.152 202.028 231.946 201.808 230.758L194.297 190.543Z" fill="url(#paint0_linear_196_1247)"/>
<path d="M182.85 370.886L220.481 348.713L215.827 319.063L178.105 341.109L182.85 370.886Z" fill="url(#paint1_linear_196_1247)"/>
<path d="M176.342 347.819L225.129 319.212L208.934 302.596L160.477 331.349L176.342 347.819Z" fill="url(#paint2_linear_196_1247)"/>
<path d="M177.481 229.152L168.449 234.362L140.547 250.503L120.834 261.909L117.023 264.103L94.0312 259.186L137.927 233.905V233.869L139.136 233.192L150.531 226.63L156.046 223.449L171.105 227.452L176.62 228.933L177.481 229.152Z" fill="url(#paint3_linear_196_1247)"/>
<path d="M145.28 229.759L185.09 206.362L163.637 200.677L122.27 224.824L145.28 229.759Z" fill="url(#paint4_linear_196_1247)"/>
<path d="M178.443 281.312L161.57 291.275L161.424 291.348L132.917 308.256L132.734 307.836L125.516 291.275L153.876 274.567L157.137 272.684L170.566 264.751C170.602 264.788 170.602 264.788 170.602 264.824C172.489 270.399 175.072 275.956 178.388 281.203C178.37 281.239 178.407 281.276 178.443 281.312Z" fill="url(#paint5_linear_196_1247)"/>
<path d="M206.062 304.323V304.432L205.311 304.889H205.274L187.687 315.345L160.572 331.413L133.22 347.645L131.406 339.035L149.708 328.214L152.548 326.551L172.096 314.998L196.645 300.466L205.787 295.073V295.293L206.062 304.323Z" fill="url(#paint6_linear_196_1247)"/>
<path d="M170.587 264.743C170.623 264.779 170.623 264.779 170.623 264.816L157.158 272.694L153.933 274.577L125.537 291.248L120.847 261.891L120.773 261.434L140.486 249.973L168.7 233.521L176.632 228.915L177.493 229.134L168.461 234.344C166.831 240.76 166.831 248.236 168.315 255.932C168.883 258.857 169.634 261.8 170.587 264.743Z" fill="url(#paint7_linear_196_1247)"/>
<path d="M196.819 300.576L172.159 315.035L152.538 326.533L149.699 328.197L131.012 308.839L132.752 307.815L161.387 291.144L161.992 290.76L178.407 281.182C178.407 281.218 178.443 281.255 178.48 281.291C179.836 283.485 181.393 285.624 183.023 287.707C185.478 290.797 188.062 293.52 190.7 295.86C192.623 297.597 194.639 299.15 196.635 300.467L196.819 300.576Z" fill="url(#paint8_linear_196_1247)"/>
<path d="M188.192 263.519C181.065 254.544 171.667 251.967 166.262 257.103L147.832 267.523L169.175 308.487L189.273 296.715C190.665 296.057 191.911 295.052 192.937 293.662C198.012 286.698 195.905 273.226 188.192 263.519Z" fill="url(#paint9_linear_196_1247)"/>
<path d="M149.301 300.481C157.014 310.188 167.384 312.436 172.477 305.527C177.57 298.599 175.463 285.108 167.732 275.402C160.019 265.695 149.649 263.447 144.556 270.375C139.482 277.303 141.588 290.775 149.301 300.481Z" fill="url(#paint10_radial_196_1247)"/>
<path d="M218.169 345.583L253.491 324.927L244.826 311.309L207.965 332.714L218.169 345.583Z" fill="url(#paint11_linear_196_1247)"/>
<path d="M196.801 261.306L227.103 244.014L235.365 234.106L203.506 252.167L196.801 261.306Z" fill="url(#paint12_linear_196_1247)"/>
<path d="M218.638 286.26L247.896 269.297L237.416 265.86L206.602 283.573L218.638 286.26Z" fill="url(#paint13_linear_196_1247)"/>
<path d="M205.371 362.875L239.117 342.858L253.426 324.762L218.122 345.546L205.371 362.875Z" fill="url(#paint14_linear_196_1247)"/>
<path d="M202.449 307.551L208.092 332.777L244.55 311.463C244.843 307.478 244.879 303.365 244.605 299.161L242.278 284.409L202.449 307.551Z" fill="url(#paint15_linear_196_1247)"/>
<path d="M196.691 261.367L206.584 283.576L237.399 265.845C234.67 258.442 231.225 251.075 227.067 244.02L196.691 261.367Z" fill="url(#paint16_linear_196_1247)"/>
<path d="M159.875 224.718L177.133 236.783L208.058 218.979C203.056 213.879 197.853 209.547 192.559 206.019L159.875 224.718Z" fill="url(#paint17_linear_196_1247)"/>
<path d="M203.508 252.168L235.367 234.108L217.468 208.736L184.07 227.546L203.508 252.168Z" fill="url(#paint18_linear_196_1247)"/>
<path d="M223.41 315.988L252.595 298.951L247.923 269.302L218.684 286.192L223.41 315.988Z" fill="url(#paint19_linear_196_1247)"/>
<path d="M159.798 224.806L192.829 205.96L190.393 190.386L157.27 209.086L159.798 224.806Z" fill="url(#paint20_linear_196_1247)"/>
<path d="M122.237 224.839L163.769 200.93L153.675 188.207L112.051 211.97L122.237 224.839Z" fill="url(#paint21_linear_196_1247)"/>
<path d="M110.718 291.503C113.155 299.034 116.453 306.565 120.63 313.731L113.851 322.944L133.363 347.511L140.141 338.298C145.784 343.472 151.646 347.511 157.49 350.381L159.945 366.029L182.864 371.001L180.409 355.353C185.741 354.915 190.705 353.215 195.047 350.217L205.307 363.122L218.204 345.592L207.945 332.687C210.088 326.874 211.188 320.311 211.316 313.329L223.352 315.924L218.681 286.165L206.644 283.551C204.244 276.02 200.928 268.507 196.751 261.323L203.53 252.111L184.018 227.525L177.24 236.737C171.616 231.564 165.735 227.525 159.89 224.655L157.436 209.026L134.517 204.054L136.972 219.701C131.659 220.14 126.694 221.821 122.334 224.838L112.074 211.932L99.1949 229.462L109.436 242.368C107.311 248.18 106.212 254.743 106.065 261.726L94.0469 259.093L98.7186 288.871L110.718 291.503ZM129.277 250.539C140.013 235.97 161.851 240.704 178.083 261.141C194.333 281.577 198.785 309.984 188.049 324.571C177.331 339.158 155.475 334.405 139.243 313.95C123.011 293.514 118.56 265.126 129.277 250.539Z" fill="url(#paint22_linear_196_1247)"/>
<path d="M134.484 204.097L157.495 209.032L190.398 190.387L168.945 184.702L134.484 204.097Z" fill="url(#paint23_linear_196_1247)"/>
<path d="M163.948 181.444L143.301 233.175C143.008 233.961 143.393 234.821 144.162 235.113C144.95 235.405 145.811 235.022 146.123 234.254L166.77 182.505C165.707 183.089 164.37 182.578 163.948 181.444Z" fill="url(#paint24_linear_196_1247)"/>
<path d="M146.172 233.34C146.044 232.645 145.457 232.152 144.78 232.115C144.651 232.115 144.523 232.115 144.413 232.134C143.589 232.298 143.057 233.084 143.204 233.888L147.106 253.393C147.326 254.562 147.839 255.44 148.975 255.093C150.239 254.709 150.367 253.63 150.221 252.899L146.172 233.34Z" fill="url(#paint25_linear_196_1247)"/>
<path d="M169.378 181.626C169.433 182.851 168.389 183.82 167.18 183.692L191.546 191.46C192.114 192.064 193.066 192.1 193.689 191.515C194.294 190.949 194.312 189.998 193.744 189.377L169.378 181.626Z" fill="url(#paint26_linear_196_1247)"/>
<path d="M171.156 175.395C171.485 177.478 169.287 179.562 165.989 180.184C162.472 180.842 159.119 179.544 158.496 177.314C158.496 177.277 159.54 182.962 159.577 183.09C160.2 185.32 163.553 186.6 167.07 185.942C170.423 185.32 172.621 183.182 172.218 181.079L171.156 175.395Z" fill="url(#paint27_linear_196_1247)"/>
<path d="M163.579 172.23C160.153 172.87 157.863 175.137 158.468 177.33C159.091 179.56 162.443 180.858 165.961 180.2C169.478 179.542 171.75 177.202 171.036 174.99C170.34 172.815 167.005 171.59 163.579 172.23Z" fill="#8C51FD"/>
<path d="M167.54 173.052C167.43 172.467 166.954 171.955 166.129 171.663C164.645 171.114 162.63 171.498 161.604 172.503C161.128 172.96 160.963 173.491 161.036 173.966L161.384 175.867C161.476 176.434 161.952 176.964 162.777 177.256C164.279 177.823 166.331 177.439 167.357 176.397C167.815 175.94 167.98 175.428 167.906 174.953L167.54 173.052Z" fill="#6626C3"/>
<path d="M166.139 171.661C165.773 171.533 165.37 171.442 164.966 171.424C163.721 171.35 162.383 171.753 161.614 172.502C160.588 173.526 160.936 174.805 162.438 175.354C163.941 175.92 165.992 175.536 167.018 174.495C168.008 173.489 167.623 172.21 166.139 171.661Z" fill="url(#paint28_radial_196_1247)"/>
<path d="M153.173 105.51C152.459 106.716 150.865 107.009 149.766 106.15L162.242 172.669C162.425 173.601 163.323 174.222 164.257 174.058C165.191 173.875 165.814 172.979 165.649 172.047L153.173 105.51Z" fill="#E1D6F2"/>
<path d="M150.879 142.378C150.879 142.378 150.714 141.209 150.714 140.715L150.677 128.833L152.271 127.919L147.508 125.159L145.914 126.073L145.951 137.955C145.951 140.752 146.958 142.708 148.552 143.621L153.316 146.382C152.07 145.651 151.209 144.28 150.879 142.378Z" fill="url(#paint29_linear_196_1247)"/>
<path d="M176.483 108.472L176.52 120.354C176.52 120.902 176.465 121.45 176.392 122.017C176.373 122.109 176.355 122.2 176.355 122.273C176.263 122.803 176.135 123.333 175.989 123.863C175.97 123.918 175.952 123.955 175.934 124.01C175.75 124.595 175.549 125.161 175.292 125.728C175.292 125.746 175.292 125.746 175.274 125.764C175.018 126.349 174.724 126.916 174.413 127.464C174.413 127.483 174.395 127.501 174.395 127.519C174.083 128.049 173.735 128.579 173.369 129.073C173.332 129.11 173.296 129.164 173.277 129.201C172.947 129.658 172.581 130.078 172.215 130.481C172.141 130.572 172.05 130.645 171.976 130.736C171.683 131.047 171.372 131.321 171.06 131.596C170.914 131.724 170.786 131.852 170.639 131.961C170.199 132.309 169.741 132.638 169.265 132.912L154.902 141.192C154.444 141.467 154.004 141.649 153.564 141.814C153.473 141.85 153.4 141.869 153.308 141.905C152.887 142.033 152.502 142.125 152.117 142.161C152.08 142.161 152.044 142.307 152.007 142.307C151.989 142.307 151.989 142.435 151.971 142.435C151.952 142.435 152.08 142.435 152.08 142.435V142.984L154.554 144.446C154.572 144.446 154.499 144.464 154.517 144.464C154.627 144.538 154.755 144.592 154.883 144.647C155.012 144.702 155.14 144.739 155.268 144.775C155.36 144.793 155.433 144.812 155.525 144.83C155.543 144.83 155.561 144.83 155.58 144.848C155.616 144.848 155.635 144.867 155.671 144.867C155.818 144.885 155.964 144.903 156.111 144.921C156.276 144.94 156.422 144.94 156.587 144.921C156.642 144.921 156.697 144.903 156.734 144.903C156.771 144.903 156.807 144.903 156.844 144.885C156.935 144.885 157.027 144.867 157.137 144.867C157.338 144.83 157.558 144.793 157.778 144.72C157.87 144.702 157.961 144.647 158.053 144.629C158.145 144.611 158.218 144.574 158.309 144.538C158.419 144.501 158.529 144.464 158.639 144.428C158.969 144.3 159.299 144.117 159.647 143.934L174.01 135.654C174.486 135.379 174.926 135.069 175.384 134.703C175.531 134.593 175.659 134.465 175.805 134.338C176.025 134.155 176.245 133.972 176.447 133.771C176.538 133.679 176.63 133.57 176.721 133.478C176.795 133.387 176.886 133.314 176.96 133.222C177.051 133.131 177.143 133.04 177.234 132.93C177.436 132.692 177.637 132.455 177.821 132.217C177.894 132.126 177.949 132.034 178.022 131.943C178.059 131.888 178.095 131.852 178.114 131.815C178.169 131.724 178.242 131.65 178.297 131.559C178.444 131.358 178.59 131.139 178.718 130.919C178.847 130.718 178.975 130.517 179.103 130.298C179.121 130.279 179.121 130.261 179.14 130.243C179.14 130.225 179.158 130.206 179.176 130.188C179.268 130.024 179.36 129.859 179.451 129.676C179.561 129.475 179.671 129.274 179.763 129.055C179.854 128.872 179.946 128.671 180.019 128.488C180.019 128.488 180.019 128.47 180.037 128.452C180.037 128.433 180.056 128.433 180.056 128.415C180.147 128.196 180.239 127.976 180.331 127.757C180.422 127.519 180.495 127.3 180.587 127.062C180.624 126.953 180.66 126.843 180.697 126.715C180.715 126.66 180.734 126.624 180.734 126.569C180.77 126.477 180.789 126.404 180.807 126.313C180.88 126.039 180.953 125.764 181.008 125.472C181.045 125.307 181.063 125.143 181.1 124.978C181.118 124.887 181.137 124.796 181.155 124.723C181.173 124.649 181.192 124.558 181.192 124.485C181.247 124.01 181.283 123.534 181.283 123.077L181.247 111.196L182.84 110.282L178.077 107.521L176.483 108.472Z" fill="url(#paint30_linear_196_1247)"/>
<path d="M181.229 111.231L181.265 123.113C181.284 127.719 178.023 133.35 174.011 135.671L159.647 143.952C155.635 146.255 152.356 144.39 152.338 139.802L152.301 127.921L150.707 128.835L150.744 140.716C150.762 146.328 154.774 148.595 159.647 145.78L174.029 137.499C178.92 134.684 182.896 127.811 182.878 122.199L182.841 110.317L181.229 111.231Z" fill="#7029D8"/>
<path d="M106.828 125.418C106.828 125.418 106.663 124.248 106.663 123.754L106.627 111.872L108.22 110.958L103.457 108.198L101.863 109.112L101.9 120.994C101.9 123.791 102.908 125.747 104.501 126.661L109.265 129.421C108.001 128.708 107.14 127.319 106.828 125.418Z" fill="url(#paint31_linear_196_1247)"/>
<path d="M134.013 90.6123L132.419 91.5263L132.456 103.408C132.456 103.956 132.401 104.505 132.327 105.071C132.309 105.163 132.291 105.254 132.291 105.346C132.199 105.876 132.089 106.406 131.924 106.936C131.906 106.991 131.888 107.027 131.888 107.082C131.704 107.667 131.503 108.234 131.246 108.8C131.246 108.819 131.228 108.819 131.228 108.837C130.972 109.404 130.679 109.989 130.367 110.537C130.349 110.555 130.349 110.574 130.33 110.592C130.019 111.122 129.671 111.652 129.323 112.146C129.286 112.2 129.25 112.237 129.213 112.274C128.883 112.731 128.517 113.151 128.15 113.553C128.077 113.644 127.985 113.736 127.912 113.809C127.619 114.12 127.308 114.394 126.996 114.668C126.85 114.796 126.721 114.924 126.575 115.034C126.135 115.381 125.677 115.71 125.201 115.984L110.838 124.265C110.379 124.521 109.94 124.722 109.5 124.886C109.409 124.923 109.335 124.941 109.244 124.978C108.822 125.106 108.438 125.197 108.053 125.234C108.016 125.234 107.98 125.307 107.943 125.307C107.925 125.307 107.925 125.38 107.906 125.38H108.071V126.056L110.508 127.519C110.526 127.519 110.489 127.537 110.489 127.537C110.599 127.61 110.709 127.665 110.838 127.72C110.966 127.775 111.076 127.811 111.204 127.848C111.296 127.866 111.369 127.884 111.46 127.903C111.479 127.903 111.497 127.921 111.515 127.921C111.552 127.921 111.57 127.939 111.607 127.939C111.754 127.957 111.9 127.976 112.047 127.994C112.212 127.994 112.358 127.994 112.523 127.994C112.578 127.994 112.633 127.976 112.67 127.976C112.706 127.976 112.743 127.976 112.779 127.976C112.871 127.957 112.963 127.957 113.073 127.939C113.274 127.903 113.494 127.866 113.714 127.811C113.805 127.793 113.897 127.738 113.989 127.72C114.08 127.701 114.153 127.665 114.245 127.628C114.355 127.592 114.465 127.555 114.575 127.519C114.905 127.372 115.234 127.208 115.583 127.025L129.946 118.744C130.422 118.47 130.88 118.141 131.32 117.794C131.466 117.684 131.595 117.556 131.741 117.428C131.961 117.246 132.181 117.063 132.382 116.862C132.474 116.77 132.566 116.661 132.657 116.569C132.73 116.478 132.822 116.405 132.895 116.313C132.987 116.222 133.078 116.131 133.17 116.021C133.372 115.783 133.573 115.546 133.756 115.308C133.83 115.217 133.885 115.125 133.958 115.034C133.995 114.979 134.031 114.942 134.049 114.906C134.104 114.814 134.178 114.741 134.233 114.65C134.379 114.449 134.526 114.229 134.654 114.028C134.782 113.827 134.911 113.626 135.039 113.407C135.057 113.389 135.057 113.37 135.075 113.352C135.075 113.334 135.094 113.315 135.112 113.297C135.204 113.133 135.314 112.968 135.387 112.785C135.497 112.584 135.607 112.365 135.698 112.164C135.79 111.981 135.882 111.78 135.955 111.597C135.955 111.597 135.973 111.579 135.973 111.561C135.973 111.542 135.991 111.542 135.991 111.524C136.083 111.305 136.175 111.085 136.266 110.866C136.358 110.628 136.431 110.409 136.523 110.171C136.559 110.062 136.596 109.934 136.633 109.824C136.651 109.769 136.669 109.733 136.688 109.678C136.706 109.605 136.743 109.513 136.761 109.422C136.834 109.148 136.907 108.874 136.962 108.581C136.999 108.417 137.017 108.252 137.054 108.088C137.072 107.996 137.091 107.905 137.091 107.832C137.109 107.758 137.127 107.667 137.127 107.594C137.182 107.119 137.219 106.643 137.219 106.186L137.182 94.3048L138.776 93.3908L134.013 90.6123Z" fill="#7029D8"/>
<path d="M137.162 94.287L137.199 106.169C137.217 110.775 133.956 116.405 129.944 118.727L115.581 127.007C111.569 129.311 108.289 127.446 108.271 122.858L108.235 110.976L106.641 111.89L106.677 123.772C106.696 129.384 110.708 131.65 115.581 128.835L129.944 120.555C134.836 117.74 138.811 110.867 138.793 105.255L138.756 93.373L137.162 94.287Z" fill="#7029D8"/>
<path d="M108.293 139.273L121.007 146.603L121.044 134.648L108.33 127.318L108.293 139.273Z" fill="#934AFD"/>
<path d="M108.344 127.355L121.058 134.667L126.115 131.742L113.4 124.412L108.344 127.355Z" fill="#6626C4"/>
<path d="M121 146.601L126.056 143.658L126.093 131.722L121.037 134.646L121 146.601Z" fill="#6626C3"/>
<path d="M116.613 138.682C116.613 138.627 116.906 138.573 116.906 138.536C116.906 138.481 117.053 138.445 117.053 138.39C117.053 138.335 117.126 138.298 117.108 138.244C117.108 138.189 116.869 138.152 116.851 138.097C116.851 138.042 116.595 137.988 116.595 137.951C116.595 137.896 116.851 137.86 116.833 137.805C116.815 137.75 116.943 137.695 116.943 137.64C116.924 137.586 116.979 137.531 116.979 137.476C116.961 137.421 116.979 137.366 116.979 137.311C116.961 137.275 116.979 137.22 116.961 137.183C116.961 137.183 116.961 137.183 116.961 137.165V137.147C116.943 137.092 116.924 137.037 116.906 136.982C116.888 136.927 116.869 136.873 116.851 136.818C116.833 136.763 116.815 136.726 116.796 136.672C116.778 136.617 116.76 136.58 116.741 136.525C116.723 136.489 116.705 136.452 116.686 136.416C116.686 136.416 116.686 136.416 116.686 136.397C116.686 136.397 116.686 136.379 116.668 136.379C116.65 136.324 116.631 136.269 116.595 136.233C116.576 136.178 116.54 136.123 116.521 136.068C116.485 136.013 116.448 135.94 116.43 135.886C116.393 135.831 116.356 135.758 116.32 135.703C116.32 135.684 116.302 135.684 116.302 135.666C116.302 135.648 116.283 135.63 116.283 135.63C116.21 135.502 116.137 135.392 116.063 135.264C116.008 135.173 115.935 135.081 115.88 134.99C115.844 134.935 115.789 134.88 115.752 134.807C115.715 134.752 115.679 134.716 115.642 134.661C115.605 134.606 115.569 134.569 115.514 134.515C115.477 134.478 115.44 134.423 115.404 134.387L115.386 134.368C115.386 134.368 115.386 134.368 115.367 134.368C115.331 134.332 115.312 134.295 115.276 134.277C115.239 134.24 115.184 134.186 115.147 134.149C115.111 134.112 115.056 134.058 115.019 134.021C114.982 133.984 114.927 133.93 114.891 133.911C114.873 133.893 114.854 133.875 114.818 133.856C114.818 133.856 114.799 133.856 114.799 133.838C114.781 133.82 114.763 133.82 114.744 133.802C114.708 133.765 114.653 133.729 114.616 133.692C114.579 133.655 114.524 133.637 114.488 133.601C114.451 133.564 114.396 133.546 114.36 133.509C114.323 133.473 114.268 133.454 114.231 133.436C114.213 133.436 114.213 133.418 114.195 133.418C114.158 133.399 114.121 133.381 114.103 133.363C114.066 133.345 114.011 133.326 113.975 133.308C113.938 133.29 113.883 133.272 113.847 133.253C113.81 133.235 113.773 133.217 113.718 133.198C113.682 133.18 113.627 133.162 113.59 133.144C113.572 133.144 113.572 133.144 113.553 133.144C113.553 133.144 113.553 133.144 113.535 133.144C113.499 133.144 113.48 133.125 113.444 133.107C113.407 133.089 113.352 133.089 113.315 133.07C113.279 133.052 113.224 133.052 113.187 133.034C113.15 133.034 113.095 133.016 113.059 133.016C113.022 133.016 113.004 133.016 112.967 133.016H112.949C112.931 133.016 112.931 133.016 112.912 133.016C112.857 133.016 112.821 133.016 112.766 133.016C112.711 133.016 112.656 133.016 112.601 133.016C112.546 133.016 112.473 133.034 112.418 133.052C112.418 133.052 112.418 133.052 112.399 133.052C112.326 133.07 112.253 133.089 112.198 133.107C112.106 133.144 112.033 133.18 111.941 133.217L108.57 135.173C108.699 135.081 108.863 135.026 109.028 135.008C109.193 134.972 109.358 134.972 109.541 134.972H109.56C109.743 134.99 109.926 135.026 110.128 135.099C110.128 135.099 110.128 135.099 110.146 135.099C110.347 135.173 110.549 135.264 110.769 135.392C110.97 135.52 111.19 135.648 111.373 135.812C111.373 135.812 111.392 135.812 111.392 135.831C111.593 135.995 111.776 136.16 111.96 136.361C111.96 136.361 111.96 136.361 111.978 136.379C112.161 136.58 112.326 136.781 112.491 137.001C112.656 137.22 112.802 137.439 112.931 137.677C112.931 137.695 112.949 137.695 112.949 137.713C113.077 137.951 113.205 138.189 113.315 138.426C113.425 138.664 113.517 138.92 113.59 139.176C113.59 139.176 113.662 139.377 113.68 139.395C113.754 139.651 113.773 139.837 113.773 140.074C113.773 140.33 113.814 140.437 113.814 140.693C113.814 140.931 113.828 140.94 113.773 141.141L113.68 141.551C113.644 141.752 113.682 141.753 113.608 141.899C113.608 141.899 113.552 142.029 113.608 141.918C113.553 142.046 113.462 142.174 113.37 142.265C113.334 142.302 113.315 142.338 113.279 142.375C113.169 142.484 113.059 142.576 112.949 142.649L116.32 140.693C116.448 140.62 116.558 140.529 116.65 140.419C116.686 140.382 116.705 140.346 116.741 140.309C116.778 140.254 116.815 140.218 116.851 140.181C116.888 140.108 116.943 140.053 116.961 139.98C116.961 139.98 116.961 139.98 116.961 139.962C116.961 139.962 116.961 139.962 116.961 139.944C116.979 139.889 116.998 139.852 117.034 139.797C117.053 139.742 117.071 139.688 117.089 139.633C117.108 139.578 117.126 139.523 117.126 139.468C117.126 139.45 117.126 139.413 117.144 139.395V139.377C117.144 139.359 117.163 139.34 117.163 139.322C117.163 139.267 117.181 139.231 117.181 139.176C117.181 139.121 117.199 139.084 117.199 139.03C117.199 138.975 116.906 138.938 116.906 138.883C116.906 138.774 116.613 138.737 116.613 138.682Z" fill="url(#paint32_linear_196_1247)"/>
<path d="M110.785 135.321C109.099 134.352 107.707 135.138 107.707 137.076C107.707 139.032 109.081 141.39 110.767 142.377C112.47 143.364 113.844 142.578 113.844 140.622C113.844 138.685 112.47 136.308 110.785 135.321Z" fill="url(#paint33_linear_196_1247)"/>
<path d="M183.377 105.963C183.01 106.439 182.571 106.896 182.094 107.353C181.673 107.736 181.233 108.12 180.739 108.486C180.684 108.522 180.629 108.559 180.574 108.596C180.079 108.943 179.566 109.308 178.98 109.637L153.24 124.572C152.544 124.974 151.811 125.34 151.06 125.669C150.821 125.778 150.547 125.87 150.308 125.979C149.777 126.199 149.246 126.4 148.715 126.583C148.293 126.729 147.854 126.857 147.414 126.985C147.194 127.04 146.974 127.113 146.754 127.168C146.04 127.35 145.325 127.515 144.611 127.661L144.574 136.49C145.307 136.344 146.022 136.179 146.718 135.997C146.938 135.942 147.157 135.869 147.377 135.814C147.707 135.722 148.037 135.631 148.348 135.54C148.458 135.503 148.568 135.448 148.678 135.412C149.228 135.229 149.759 135.028 150.272 134.808C150.528 134.699 150.785 134.607 151.023 134.498C151.774 134.169 152.507 133.803 153.203 133.401L178.943 118.467C179.053 118.412 179.163 118.339 179.255 118.284C179.713 118.01 180.134 117.717 180.537 117.425C180.592 117.388 180.647 117.351 180.702 117.315C181.16 116.968 181.581 116.62 181.985 116.255C182.021 116.236 182.021 116.2 182.058 116.182C182.534 115.743 182.974 115.268 183.34 114.792C183.688 114.354 183.981 113.915 184.22 113.476C184.22 113.476 184.22 113.458 184.238 113.458H236.726C243.211 113.458 248.488 109.51 248.506 104.629H184.256C184.036 105.086 183.725 105.543 183.377 105.963Z" fill="#7029D8"/>
<path d="M131.543 127.81C130.59 127.646 129.674 127.463 128.758 127.225C128.556 127.17 128.336 127.134 128.135 127.079C127.072 126.787 126.028 126.458 125.039 126.055C124.984 126.037 124.91 126.001 124.856 125.982C123.83 125.562 122.859 125.105 121.943 124.575L108.221 116.678C104.41 114.484 102.285 111.688 101.808 108.818H38.6397L38.6031 103.59L38.5664 112.419C38.5847 115.307 41.7175 117.647 45.5648 117.647H101.79C102.266 120.517 104.41 123.313 108.202 125.489L121.924 133.385C122.84 133.916 123.811 134.373 124.837 134.793C124.892 134.811 124.965 134.848 125.02 134.866C125.057 134.884 125.094 134.903 125.13 134.903C125.991 135.232 126.871 135.542 127.787 135.798C127.897 135.835 128.007 135.853 128.117 135.871C128.318 135.926 128.538 135.981 128.739 136.018C129.197 136.127 129.637 136.255 130.114 136.347C130.59 136.438 131.066 136.511 131.524 136.584C131.689 136.621 131.854 136.639 132.019 136.676C132.11 136.694 132.202 136.712 132.294 136.731C133.008 136.822 133.723 136.913 134.455 136.968C134.822 137.005 135.17 137.023 135.536 137.041L135.555 128.212C134.364 128.158 133.191 128.03 132.037 127.847C131.872 127.865 131.707 127.828 131.543 127.81Z" fill="#7029D8"/>
<path d="M185.302 99.4016C184.826 96.5317 182.683 93.7533 178.872 91.5597L165.15 83.663C161.339 81.4694 156.503 80.2447 151.556 79.9705L151.428 38.5674L142.451 38.7136H142.378L142.488 80.7382C139.337 81.3415 136.369 82.292 133.859 83.7361L108.119 98.5242C105.609 99.9683 103.85 102.162 102.806 103.368H38.5742L38.6109 108.706L101.78 108.761C102.256 111.631 104.399 114.446 108.192 116.639L121.914 124.554C125.724 126.748 130.561 127.973 135.526 128.247L135.654 166.305H144.704L144.576 127.643C147.746 127.04 150.714 126.017 153.223 124.573L178.964 109.656C181.473 108.194 183.232 106.476 184.258 104.648H248.508L248.471 99.4199L185.302 99.4016Z" fill="url(#paint34_radial_196_1247)"/>
<path d="M163.879 95.6204L159.647 93.1893C157.504 91.9463 154.334 91.142 150.981 90.9592L147.775 90.7764L144.588 91.3796C142.572 91.7635 140.777 92.385 139.421 93.171L123.226 102.567C119.36 104.797 119.379 110.372 123.244 112.602L127.476 115.033C129.62 116.258 132.771 117.081 136.16 117.263L139.403 117.446L142.536 116.843C144.588 116.441 146.383 115.838 147.72 115.07L163.916 105.674C167.763 103.426 167.745 97.8505 163.879 95.6204Z" fill="url(#paint35_radial_196_1247)"/>
<path d="M143.959 144.369C106.695 144.369 101.126 168.114 101.126 168.114V170.984C100.338 184.584 116.277 195.881 138.463 195.881C161.986 195.881 181.168 183.177 181.296 168.498C181.296 168.187 181.277 163.453 181.277 163.453C181.277 163.453 172.227 144.369 143.959 144.369ZM138.444 190.982C125.84 190.982 114.628 186.869 109.223 180.252C106.475 176.907 105.486 173.269 106.255 169.467C108.545 158.316 125.455 149.25 143.94 149.25C155.574 149.25 166.053 152.796 171.952 158.719C174.902 161.698 176.386 164.97 176.368 168.425C176.276 180.453 158.56 190.982 138.444 190.982Z" fill="#E1D6F2"/>
<path d="M149.617 168.351C149.617 171.385 145.385 173.871 140.659 173.871C136.225 173.871 132.909 171.677 132.836 168.899L132.854 176.54C132.854 179.355 136.207 181.603 140.695 181.603C145.422 181.603 149.434 179.117 149.691 176.083C149.691 175.918 149.617 168.351 149.617 168.351Z" fill="url(#paint36_linear_196_1247)"/>
<path d="M141.918 162.977C137.319 162.977 133.289 165.371 132.904 168.351C132.519 171.385 136.018 173.871 140.745 173.871C145.472 173.871 149.502 171.385 149.777 168.351C150.015 165.371 146.498 162.977 141.918 162.977Z" fill="#6F74FC"/>
<path d="M144.543 162.865C142.967 161.805 140.256 161.805 138.461 162.865C137.471 163.45 136.977 164.236 136.977 165.004V167.582C136.995 168.203 137.343 168.825 138.039 169.3C139.615 170.397 142.381 170.397 144.176 169.3C145.147 168.715 145.642 167.929 145.624 167.161V164.62C145.624 163.981 145.276 163.341 144.543 162.865Z" fill="#6626C3"/>
<path d="M164.085 152.043C163.572 151.714 162.729 151.732 162.198 152.043L139.517 165.606L136.311 167.525C135.835 167.818 135.157 167.873 134.625 167.672L131.951 166.666C131.438 166.465 130.742 166.538 130.284 166.813L111.725 177.104C111.725 177.104 111.322 178.054 111.908 178.676C112.806 179.645 113.85 180.577 115.041 181.454C115.041 181.454 115.041 181.454 115.059 181.454C115.554 181.82 116.452 181.802 117.075 181.454L141.349 166.849L144.519 164.948C144.977 164.674 145.654 164.601 146.186 164.802L148.879 165.807C149.41 166.008 150.088 165.935 150.546 165.661L167.163 155.571C167.877 155.077 167.584 153.889 167.584 153.889C167.584 153.889 165.294 152.81 164.085 152.043Z" fill="url(#paint37_linear_196_1247)"/>
<path d="M164.089 150.895C163.832 150.73 163.502 150.657 163.173 150.657C162.825 150.657 162.477 150.749 162.22 150.895L139.539 164.458L136.333 166.378C135.857 166.652 135.179 166.725 134.648 166.524L131.973 165.518C131.46 165.317 130.764 165.391 130.306 165.665L112.279 176.322C111.747 176.632 111.582 177.144 111.912 177.51C112.81 178.479 113.854 179.411 115.045 180.288C115.045 180.288 115.045 180.288 115.063 180.288C115.558 180.654 116.456 180.654 117.079 180.288L141.353 165.701L144.523 163.782C144.981 163.508 145.658 163.453 146.19 163.636L148.883 164.641C149.414 164.842 150.092 164.769 150.55 164.495L167.167 154.405C167.643 154.112 167.734 153.673 167.368 153.344C166.379 152.485 165.298 151.663 164.089 150.895Z" fill="url(#paint38_linear_196_1247)"/>
<path d="M144.545 162.868C143.757 162.338 142.676 162.063 141.577 162.063C140.477 162.063 139.342 162.338 138.462 162.868C136.667 163.946 136.465 165.683 138.041 166.761C139.616 167.858 142.383 167.858 144.178 166.761C145.974 165.683 146.138 163.928 144.545 162.868Z" fill="url(#paint39_radial_196_1247)"/>
<path d="M143.961 140.292C123.222 140.292 104.297 150.711 101.494 164.421C98.4715 179.099 114.942 191.804 138.465 191.804C161.988 191.804 181.17 179.099 181.298 164.421C181.39 150.711 164.681 140.292 143.961 140.292ZM138.447 186.905C125.842 186.905 114.63 182.792 109.226 176.175C106.477 172.83 105.488 169.192 106.258 165.39C108.548 154.239 125.457 145.173 143.943 145.173C155.576 145.173 166.055 148.719 171.955 154.641C174.904 157.621 176.388 160.893 176.37 164.348C176.278 176.376 158.562 186.905 138.447 186.905Z" fill="#F7F8FB"/>
<path d="M107.958 153.217L105.118 152.449C102.205 155.794 100.3 159.395 99.4755 163.179C98.6327 167.036 98.9808 170.838 100.501 174.513L103.836 173.653C102.388 170.272 102.059 166.744 102.81 163.179C103.561 159.67 105.301 156.324 107.958 153.217Z" fill="#D3D3D3"/>
<path d="M99.4989 163.179C98.6562 167.036 99.0042 170.838 100.525 174.513L103.859 173.653C102.43 170.272 102.082 166.744 102.833 163.179C103.566 159.67 105.306 156.324 107.981 153.217L105.142 152.449C102.229 155.794 100.323 159.395 99.4989 163.179Z" fill="url(#paint40_linear_196_1247)"/>
<path d="M99.0574 167.145L99.0391 171.002C99.0391 175.188 100.505 178.35 100.505 178.35L102.19 177.911V174.913L103.839 174.493V173.67L100.505 174.529C99.5154 172.117 99.0391 169.649 99.0574 167.145Z" fill="#DAF0F5"/>
<path d="M102.444 167.31C102.462 166.214 102.59 165.117 102.81 164.002C103.543 160.492 105.283 157.147 107.958 154.039V153.217C105.283 156.324 103.543 159.669 102.81 163.179C102.535 164.568 102.407 165.939 102.444 167.31Z" fill="#DAF0F5"/>
<path d="M246.654 67.5068C209.39 67.5068 203.821 91.2519 203.821 91.2519V94.1218C203.033 107.722 218.972 119.019 241.158 119.019C264.681 119.019 283.863 106.314 283.991 91.6358C283.991 91.325 283.973 86.5906 283.973 86.5906C283.973 86.5906 274.922 67.5068 246.654 67.5068ZM241.158 114.12C228.554 114.12 217.341 110.007 211.937 103.39C209.189 100.044 208.2 96.4067 208.969 92.6046C211.259 81.4541 228.169 72.3875 246.654 72.3875C258.288 72.3875 268.767 75.9337 274.666 81.8745C277.616 84.8541 279.1 88.1261 279.081 91.581C278.99 103.591 261.255 114.12 241.158 114.12Z" fill="#E1D6F2"/>
<path d="M252.332 91.4883C252.332 94.5227 248.1 97.0087 243.374 97.0087C238.94 97.0087 235.624 94.8152 235.551 92.0367L235.569 99.6775C235.569 102.493 238.922 104.759 243.392 104.759C248.119 104.759 252.131 102.273 252.387 99.2388C252.424 99.0743 252.332 91.4883 252.332 91.4883Z" fill="url(#paint41_linear_196_1247)"/>
<path d="M244.617 86.1143C240.018 86.1143 235.988 88.5089 235.603 91.4884C235.218 94.5228 238.718 97.0088 243.444 97.0088C248.171 97.0088 252.201 94.5228 252.476 91.4884C252.733 88.5089 249.215 86.1143 244.617 86.1143Z" fill="#6F74FC"/>
<path d="M247.269 86.0032C245.694 84.943 242.982 84.943 241.187 86.0032C240.198 86.5881 239.703 87.3741 239.703 88.1419V90.7193C239.721 91.3408 240.07 91.9623 240.766 92.4558C242.341 93.5526 245.108 93.5526 246.903 92.4558C247.874 91.8709 248.369 91.0849 248.35 90.3171V87.7763C248.332 87.1182 247.984 86.4967 247.269 86.0032Z" fill="#6626C3"/>
<path d="M266.809 75.1804C266.296 74.8514 265.453 74.8696 264.922 75.1804L239.035 90.6632C238.558 90.9373 237.881 91.0105 237.368 90.8094L234.693 89.804C234.18 89.6029 233.484 89.6761 233.026 89.9503L214.467 100.242C214.467 100.242 214.064 101.192 214.65 101.814C215.548 102.782 216.592 103.715 217.783 104.592C218.278 104.958 219.194 104.939 219.798 104.574L247.261 88.0675C247.719 87.7933 248.397 87.7384 248.928 87.9212L251.621 88.9266C252.152 89.1277 252.83 89.0546 253.288 88.7804L269.905 78.6901C270.619 78.1965 270.326 77.0083 270.326 77.0083C270.326 77.0083 268.018 75.9481 266.809 75.1804Z" fill="url(#paint42_linear_196_1247)"/>
<path d="M266.804 74.0326C266.547 73.868 266.217 73.7949 265.888 73.7949C265.539 73.7949 265.191 73.8863 264.935 74.0326L242.254 87.596L239.048 89.5153C238.572 89.7895 237.894 89.8626 237.363 89.6615L234.688 88.6562C234.175 88.4551 233.479 88.5282 233.021 88.8024L214.993 99.4594C214.462 99.7701 214.297 100.282 214.627 100.648C215.525 101.616 216.569 102.549 217.76 103.426C217.76 103.426 217.76 103.426 217.778 103.426C218.273 103.792 219.189 103.792 219.793 103.426L244.068 88.839L247.237 86.9196C247.695 86.6454 248.373 86.5906 248.905 86.7734L251.598 87.7788C252.129 87.9798 252.807 87.9067 253.265 87.6325L269.881 77.5422C270.358 77.2498 270.449 76.811 270.083 76.482C269.112 75.6229 268.013 74.8003 266.804 74.0326Z" fill="url(#paint43_linear_196_1247)"/>
<path d="M247.271 86.0055C246.483 85.4754 245.402 85.2012 244.303 85.2012C243.204 85.2012 242.068 85.4754 241.189 86.0055C239.393 87.0657 239.192 88.8205 240.767 89.899C242.343 90.9958 245.109 90.9958 246.905 89.899C248.7 88.8205 248.847 87.084 247.271 86.0055Z" fill="url(#paint44_radial_196_1247)"/>
<path d="M246.664 63.4297C225.925 63.4297 207 73.8673 204.197 87.5587C201.174 102.237 217.663 114.941 241.168 114.941C264.691 114.941 283.873 102.237 284.001 87.5587C284.111 73.8673 267.384 63.4297 246.664 63.4297ZM241.168 110.042C228.563 110.042 217.351 105.93 211.947 99.3124C209.199 95.9672 208.209 92.3296 208.979 88.5275C211.269 77.377 228.179 68.3103 246.664 68.3103C258.297 68.3103 268.777 71.8565 274.676 77.7791C277.625 80.7587 279.109 84.0307 279.091 87.4855C278.999 99.5135 261.265 110.042 241.168 110.042Z" fill="#F7F8FB"/>
<path d="M210.684 76.3713L207.845 75.6035C204.932 78.9487 203.026 82.5497 202.202 86.3336C201.359 90.1906 201.707 93.9927 203.228 97.6669L206.562 96.8078C205.115 93.426 204.785 89.8981 205.536 86.3336C206.269 82.8056 208.01 79.4605 210.684 76.3713Z" fill="#D3D3D3"/>
<path d="M202.202 86.317C201.359 90.174 201.707 93.9761 203.228 97.6503L206.562 96.7912C205.115 93.4094 204.785 89.8815 205.536 86.317C206.269 82.8073 208.01 79.4622 210.684 76.3547L207.845 75.5869C204.932 78.9321 203.026 82.5331 202.202 86.317Z" fill="url(#paint45_linear_196_1247)"/>
<path d="M201.76 90.2998L201.742 94.1568C201.742 98.3428 203.208 101.505 203.208 101.505L204.893 101.066V98.0686L206.542 97.6482V96.8256L203.208 97.6847C202.237 95.2535 201.76 92.7858 201.76 90.2998Z" fill="#DAF0F5"/>
<path d="M205.18 90.448C205.199 89.3512 205.327 88.2545 205.547 87.1394C206.28 83.6297 208.02 80.2846 210.695 77.1771V76.3545C208.02 79.462 206.28 82.8072 205.547 86.3168C205.254 87.7061 205.125 89.077 205.18 90.448Z" fill="#DAF0F5"/>
<path d="M150.084 4.07715C112.82 4.07715 107.251 27.8222 107.251 27.8222V30.6921C106.463 44.2921 122.402 55.5888 144.588 55.5888C168.111 55.5888 187.293 42.8846 187.421 28.2061C187.421 27.8954 187.402 23.161 187.402 23.161C187.402 23.161 178.352 4.07715 150.084 4.07715ZM144.569 50.6899C131.965 50.6899 120.753 46.577 115.348 39.9598C112.6 36.6147 111.611 32.9771 112.38 29.1749C114.67 18.0244 131.58 8.95778 150.065 8.95778C161.699 8.95778 172.178 12.504 178.077 18.4448C181.027 21.4244 182.511 24.6964 182.493 28.1513C182.401 40.1609 164.685 50.6899 144.569 50.6899Z" fill="#E1D6F2"/>
<path d="M155.727 28.0586C155.727 31.093 151.495 33.579 146.768 33.579C142.335 33.579 139.019 31.3855 138.945 28.6253L138.964 36.2661C138.964 39.0811 142.316 41.3478 146.805 41.3478C151.531 41.3478 155.544 38.8618 155.8 35.8274C155.818 35.6263 155.727 28.0586 155.727 28.0586Z" fill="url(#paint46_linear_196_1247)"/>
<path d="M148.007 22.6846C143.409 22.6846 139.378 25.0792 138.994 28.0588C138.609 31.0932 142.108 33.5792 146.835 33.5792C151.562 33.5792 155.592 31.0932 155.849 28.0588C156.123 25.0609 152.606 22.6846 148.007 22.6846Z" fill="#6F74FC"/>
<path d="M150.668 22.5569C149.092 21.4967 146.381 21.4967 144.586 22.5569C143.596 23.1418 143.102 23.9278 143.102 24.6956V27.273C143.12 27.8945 143.468 28.516 144.164 29.0095C145.74 30.088 148.506 30.088 150.301 29.0095C151.272 28.4246 151.767 27.6203 151.749 26.8708V24.33C151.749 23.6719 151.382 23.0504 150.668 22.5569Z" fill="#6626C3"/>
<path d="M170.214 11.7507C170.214 11.7324 170.214 11.7324 170.214 11.7507C169.701 11.4217 168.858 11.44 168.327 11.7507L145.646 25.3141L142.44 27.2335C141.964 27.5077 141.286 27.5808 140.754 27.3797L138.08 26.3743C137.567 26.1733 136.87 26.2464 136.412 26.5206L117.854 36.7937C117.854 36.7937 117.469 37.7625 118.037 38.3657C118.935 39.3345 119.979 40.2668 121.17 41.1442C121.17 41.1442 121.17 41.1442 121.188 41.1442C121.683 41.5098 122.599 41.4915 123.203 41.1259L147.478 26.5388L150.647 24.6378C151.105 24.3636 151.783 24.3088 152.315 24.4915L155.008 25.4969C155.539 25.698 156.217 25.6249 156.675 25.3507L173.291 15.2604C174.006 14.7668 173.713 13.5787 173.713 13.5787C173.713 13.5787 171.423 12.5184 170.214 11.7507Z" fill="url(#paint47_linear_196_1247)"/>
<path d="M170.228 10.6029C169.972 10.4384 169.642 10.3652 169.312 10.3652C168.964 10.3652 168.616 10.4384 168.359 10.6029L145.679 24.1663L142.473 26.0856C141.996 26.3598 141.318 26.4329 140.787 26.2319L138.112 25.2265C137.599 25.0254 136.903 25.0985 136.427 25.3727L118.4 36.0297C117.868 36.3404 117.703 36.8523 118.033 37.2179C118.931 38.1867 119.975 39.1189 121.166 39.9963C121.166 39.9963 121.166 39.9963 121.184 39.9963C121.679 40.3619 122.577 40.3619 123.2 39.9781L147.474 25.391L150.662 23.4716C151.12 23.1975 151.798 23.1426 152.329 23.3254L155.022 24.3308C155.553 24.5319 156.231 24.4587 156.689 24.1845L173.306 14.0943C173.782 13.8018 173.874 13.3631 173.507 13.034C172.518 12.1932 171.437 11.3706 170.228 10.6029Z" fill="url(#paint48_linear_196_1247)"/>
<path d="M150.669 22.5575C149.882 22.0274 148.801 21.7715 147.702 21.7715C146.602 21.7715 145.485 22.0274 144.587 22.5575C142.792 23.636 142.59 25.3726 144.166 26.4511C145.741 27.5478 148.508 27.5478 150.303 26.4511C152.098 25.3908 152.245 23.636 150.669 22.5575Z" fill="url(#paint49_radial_196_1247)"/>
<path d="M150.088 0C129.35 0 110.425 10.4376 107.603 24.129C104.581 38.8074 121.069 51.5117 144.574 51.5117C168.097 51.5117 187.279 38.8074 187.407 24.129C187.517 10.4193 170.809 0 150.088 0ZM144.574 46.6128C131.97 46.6128 120.757 42.4999 115.353 35.8827C112.605 32.5375 111.616 28.8999 112.385 25.0978C114.675 13.9473 131.585 4.88063 150.07 4.88063C161.704 4.88063 172.183 8.42686 178.082 14.3494C181.032 17.329 182.516 20.601 182.497 24.0558C182.406 36.0838 164.69 46.6128 144.574 46.6128Z" fill="#F7F8FB"/>
<path d="M114.083 12.925L111.243 12.1572C108.33 15.5024 106.425 19.1034 105.6 22.8873C104.758 26.7443 105.106 30.5464 106.626 34.2206L109.961 33.3615C108.513 29.9798 108.184 26.4518 108.935 22.8873C109.668 19.3776 111.408 16.0325 114.083 12.925Z" fill="#D3D3D3"/>
<path d="M105.624 22.8856C104.781 26.7426 105.129 30.5448 106.65 34.2189L109.984 33.3598C108.555 29.9781 108.207 26.4501 108.958 22.8856C109.691 19.376 111.431 16.0308 114.106 12.9416L111.267 12.1738C108.354 15.4824 106.448 19.1018 105.624 22.8856Z" fill="url(#paint50_linear_196_1247)"/>
<path d="M105.182 26.8525L105.164 30.6912C105.164 34.8773 106.63 38.0396 106.63 38.0396L108.315 37.6009V34.6031L109.964 34.1826V33.3418L106.63 34.2009C105.64 31.8063 105.164 29.3568 105.182 26.8525Z" fill="#DAF0F5"/>
<path d="M108.569 27.0166C108.588 25.9199 108.716 24.8231 108.936 23.7081C109.669 20.1984 111.409 16.8532 114.084 13.764V12.9414C111.409 16.0489 109.669 19.3941 108.936 22.9038C108.643 24.2747 108.533 25.6457 108.569 27.0166Z" fill="#DAF0F5"/>
<path d="M44.9119 74.8359C7.64815 74.8359 2.07875 98.581 2.07875 98.581V101.451C1.29097 115.051 17.2297 126.348 39.4158 126.348C62.9392 126.348 82.1206 113.643 82.2489 98.9649C82.2489 98.6542 82.2306 93.9015 82.2306 93.9015C82.2306 93.9015 73.1803 74.8359 44.9119 74.8359ZM39.3974 121.449C26.793 121.449 15.5809 117.336 10.1764 110.719C7.42831 107.373 6.439 103.736 7.20846 99.9337C9.49851 88.7832 26.4083 79.7166 44.8936 79.7166C56.527 79.7166 67.0063 83.2628 72.9055 89.1854C75.8551 92.1649 77.339 95.437 77.3207 98.8918C77.2291 110.92 59.5132 121.449 39.3974 121.449Z" fill="#E1D6F2"/>
<path d="M50.5901 98.8174C50.5901 101.852 46.3581 104.338 41.6314 104.338C37.1979 104.338 33.8819 102.144 33.8086 99.3658L33.8269 107.007C33.8269 109.822 37.1796 112.088 41.6681 112.088C46.3947 112.088 50.4069 109.602 50.6634 106.568C50.6634 106.385 50.5901 98.8174 50.5901 98.8174Z" fill="url(#paint51_linear_196_1247)"/>
<path d="M42.8746 93.4434C38.2762 93.4434 34.2457 95.838 33.8609 98.8175C33.4762 101.852 36.9754 104.338 41.7021 104.338C46.4287 104.338 50.4593 101.852 50.7341 98.8175C50.9722 95.8197 47.4547 93.4434 42.8746 93.4434Z" fill="#6F74FC"/>
<path d="M45.5116 93.3323C43.9361 92.2721 41.2247 92.2721 39.4293 93.3323C38.44 93.9172 37.9453 94.7032 37.9453 95.471V98.0484C37.9636 98.6699 38.3117 99.2914 39.0079 99.7849C40.5834 100.863 43.3498 100.863 45.1452 99.7849C46.1162 99.2 46.6109 98.3957 46.5926 97.628V95.0871C46.5926 94.429 46.2261 93.8075 45.5116 93.3323Z" fill="#6626C3"/>
<path d="M65.064 82.4939C64.551 82.1648 63.7083 82.1831 63.177 82.4939L40.4963 96.0573L37.2903 97.9766C36.8139 98.2508 36.1361 98.3239 35.6048 98.1229L32.93 97.1175C32.417 96.9164 31.7209 96.9895 31.2445 97.2637L12.6859 107.555C12.6859 107.555 12.3012 108.506 12.8691 109.127C13.7668 110.096 14.8111 111.028 16.0019 111.906C16.4966 112.271 17.4126 112.253 18.0172 111.887L42.2917 97.3003L45.4795 95.3809C45.9375 95.1067 46.6154 95.0519 47.1467 95.2347L49.8398 96.2401C50.371 96.4412 51.0489 96.368 51.5069 96.0938L68.1235 86.0035C68.838 85.51 68.5449 84.3218 68.5449 84.3218C68.5449 84.3218 66.2732 83.2799 65.064 82.4939Z" fill="url(#paint52_linear_196_1247)"/>
<path d="M65.0601 81.3617C64.8037 81.1971 64.4739 81.124 64.1441 81.124C63.796 81.124 63.4479 81.2154 63.1915 81.3617L40.5108 94.9251L37.3047 96.8444C36.8284 97.1369 36.1505 97.1917 35.6192 96.9906L32.9445 95.9853C32.4315 95.7842 31.7353 95.8573 31.259 96.1315L13.2317 106.788C12.7004 107.099 12.5355 107.611 12.8653 107.977C13.763 108.945 14.8072 109.878 15.9981 110.755C15.9981 110.755 15.9981 110.755 16.0164 110.755C16.511 111.121 17.4087 111.102 18.0316 110.737L42.3062 96.1498L45.4939 94.2487C45.952 93.9745 46.6298 93.9197 47.1611 94.1025L49.8542 95.1079C50.3855 95.3089 51.0633 95.2358 51.5214 94.9616L68.138 84.8713C68.6143 84.5789 68.7059 84.1401 68.3395 83.8111C67.3502 82.952 66.2693 82.1294 65.0601 81.3617Z" fill="url(#paint53_linear_196_1247)"/>
<path d="M45.5106 93.3346C44.7228 92.8045 43.6419 92.5303 42.561 92.5303C41.4617 92.5303 40.3442 92.8045 39.4465 93.3346C37.6511 94.3948 37.4496 96.1496 39.0251 97.2281C40.6007 98.3066 43.3671 98.3066 45.1625 97.2281C46.9396 96.1313 47.1044 94.3948 45.5106 93.3346Z" fill="url(#paint54_radial_196_1247)"/>
<path d="M44.9324 70.7588C24.1937 70.7588 5.26868 81.1964 2.44734 94.8877C-0.557209 109.566 15.9128 122.27 39.4179 122.27C62.9414 122.27 82.1229 109.566 82.2511 94.8877C82.361 81.1781 65.6528 70.7588 44.9324 70.7588ZM39.4179 117.372C26.8135 117.372 15.6014 113.259 10.1969 106.641C7.44882 103.296 6.45951 99.6587 7.22897 95.8566C9.51902 84.7061 26.4288 75.6394 44.9141 75.6394C56.5475 75.6394 67.0268 79.1856 72.926 85.1265C75.8756 88.1061 77.3595 91.3781 77.3412 94.8329C77.2496 106.843 59.5338 117.372 39.4179 117.372Z" fill="#F7F8FB"/>
<path d="M8.92835 83.6838L6.08869 82.916C3.17574 86.2612 1.27042 89.8622 0.464323 93.6461C-0.378417 97.5031 -0.0486534 101.323 1.49026 104.979L4.82458 104.12C3.37726 100.739 3.0475 97.2106 3.79864 93.6461C4.53145 90.1364 6.25357 86.7913 8.92835 83.6838Z" fill="#D3D3D3"/>
<path d="M0.464323 93.6461C-0.378417 97.5031 -0.0486534 101.323 1.49026 104.979L4.82458 104.12C3.37726 100.739 3.0475 97.2106 3.79864 93.6461C4.53146 90.1364 6.27189 86.7913 8.94667 83.702L6.107 82.916C3.19405 86.2429 1.28874 89.8622 0.464323 93.6461Z" fill="url(#paint55_linear_196_1247)"/>
<path d="M0.0183104 97.6113L0 101.468C0 105.654 1.46563 108.817 1.46563 108.817L3.1511 108.378V105.38L4.79994 104.96V104.137L1.46563 104.996C0.476322 102.565 -1.00633e-05 100.097 0.0183104 97.6113Z" fill="#DAF0F5"/>
<path d="M3.41629 97.7771C3.43461 96.6803 3.56285 95.5836 3.78269 94.4685C4.51551 90.9588 6.25594 87.6137 8.93073 84.5062V83.6836C6.25594 86.7911 4.51551 90.1363 3.78269 93.6459C3.50789 95.0169 3.37965 96.4061 3.41629 97.7771Z" fill="#DAF0F5"/>
<defs>
<linearGradient id="paint0_linear_196_1247" x1="191.304" y1="211.775" x2="201.864" y2="211.775" gradientUnits="userSpaceOnUse">
<stop stop-color="#33BAFA"/>
<stop offset="0.1069" stop-color="#60CCFF"/>
<stop offset="0.2058" stop-color="#6DD0FF"/>
<stop offset="0.3016" stop-color="#72D2FF"/>
<stop offset="0.3954" stop-color="#55C8FF"/>
<stop offset="0.4869" stop-color="#37BFFF"/>
<stop offset="0.5405" stop-color="#21B8FF"/>
<stop offset="1" stop-color="#934AFD"/>
</linearGradient>
<linearGradient id="paint1_linear_196_1247" x1="207.889" y1="331.107" x2="187.318" y2="356.279" gradientUnits="userSpaceOnUse">
<stop stop-color="#EBF0FF"/>
<stop offset="0.390625" stop-color="#DCE5FF"/>
<stop offset="0.6947" stop-color="#F7F8FB"/>
<stop offset="1" stop-color="#F7F8FB"/>
</linearGradient>
<linearGradient id="paint2_linear_196_1247" x1="205.917" y1="313.105" x2="191.864" y2="343.173" gradientUnits="userSpaceOnUse">
<stop stop-color="#EBF0FF"/>
<stop offset="0.390625" stop-color="#DCE5FF"/>
<stop offset="0.6947" stop-color="#F7F8FB"/>
<stop offset="1" stop-color="#F7F8FB"/>
</linearGradient>
<linearGradient id="paint3_linear_196_1247" x1="152.683" y1="232.897" x2="142.989" y2="262.675" gradientUnits="userSpaceOnUse">
<stop stop-color="#EBF0FF"/>
<stop offset="0.390625" stop-color="#DCE5FF"/>
<stop offset="0.6947" stop-color="#F7F8FB"/>
<stop offset="1" stop-color="#F7F8FB"/>
</linearGradient>
<linearGradient id="paint4_linear_196_1247" x1="122.276" y1="215.223" x2="185.096" y2="215.223" gradientUnits="userSpaceOnUse">
<stop stop-color="#00CBF2"/>
<stop offset="0.3401" stop-color="#0089B6" stop-opacity="0.9762"/>
<stop offset="0.6459" stop-color="#015486" stop-opacity="0.9548"/>
<stop offset="0.8744" stop-color="#013368" stop-opacity="0.9388"/>
<stop offset="1" stop-color="#01275D" stop-opacity="0.93"/>
</linearGradient>
<linearGradient id="paint5_linear_196_1247" x1="162.716" y1="274.861" x2="147.844" y2="301.937" gradientUnits="userSpaceOnUse">
<stop stop-color="#EBF0FF"/>
<stop offset="0.390625" stop-color="#DCE5FF"/>
<stop offset="0.6947" stop-color="#F7F8FB"/>
<stop offset="1" stop-color="#F7F8FB"/>
</linearGradient>
<linearGradient id="paint6_linear_196_1247" x1="183.878" y1="307.291" x2="167.47" y2="342.159" gradientUnits="userSpaceOnUse">
<stop stop-color="#EBF0FF"/>
<stop offset="0.390625" stop-color="#DCE5FF"/>
<stop offset="0.6947" stop-color="#F7F8FB"/>
<stop offset="1" stop-color="#F7F8FB"/>
</linearGradient>
<linearGradient id="paint7_linear_196_1247" x1="83806.6" y1="40541" x2="83806.6" y2="63335" gradientUnits="userSpaceOnUse">
<stop offset="0.13" stop-color="#8E7AED"/>
<stop offset="1" stop-color="#5635DC"/>
</linearGradient>
<linearGradient id="paint8_linear_196_1247" x1="97223.9" y1="30686.7" x2="97223.9" y2="47879.1" gradientUnits="userSpaceOnUse">
<stop offset="0.13" stop-color="#8E7AED"/>
<stop offset="1" stop-color="#5635DC"/>
</linearGradient>
<linearGradient id="paint9_linear_196_1247" x1="181.476" y1="267.036" x2="160.448" y2="294.932" gradientUnits="userSpaceOnUse">
<stop stop-color="#EBF0FF"/>
<stop offset="0.390625" stop-color="#DCE5FF"/>
<stop offset="0.6947" stop-color="#F7F8FB"/>
<stop offset="1" stop-color="#F7F8FB"/>
</linearGradient>
<radialGradient id="paint10_radial_196_1247" cx="0" cy="0" r="1" gradientUnits="userSpaceOnUse" gradientTransform="translate(105.5 325) rotate(-41.8605) scale(84.4217 105.242)">
<stop stop-color="#6FD1FF"/>
<stop offset="0.380208" stop-color="#49C4FF"/>
<stop offset="0.567708" stop-color="#70D1FF"/>
<stop offset="0.697917" stop-color="#6ED0FF"/>
<stop offset="1" stop-color="#8C51FD"/>
</radialGradient>
<linearGradient id="paint11_linear_196_1247" x1="239.963" y1="319.274" x2="228.816" y2="341.432" gradientUnits="userSpaceOnUse">
<stop stop-color="#EBF0FF"/>
<stop offset="0.390625" stop-color="#DCE5FF"/>
<stop offset="0.6947" stop-color="#F7F8FB"/>
<stop offset="1" stop-color="#F7F8FB"/>
</linearGradient>
<linearGradient id="paint12_linear_196_1247" x1="57095.6" y1="17824.9" x2="57095.6" y2="27771.3" gradientUnits="userSpaceOnUse">
<stop offset="0.13" stop-color="#8E7AED"/>
<stop offset="1" stop-color="#5635DC"/>
</linearGradient>
<linearGradient id="paint13_linear_196_1247" x1="61132.9" y1="13458.9" x2="61132.9" y2="20918.8" gradientUnits="userSpaceOnUse">
<stop offset="0.13" stop-color="#8E7AED"/>
<stop offset="1" stop-color="#5635DC"/>
</linearGradient>
<linearGradient id="paint14_linear_196_1247" x1="71105.9" y1="24973.1" x2="71105.9" y2="38910.2" gradientUnits="userSpaceOnUse">
<stop offset="0.13" stop-color="#8E7AED"/>
<stop offset="1" stop-color="#5635DC"/>
</linearGradient>
<linearGradient id="paint15_linear_196_1247" x1="62674.9" y1="31564.7" x2="62674.9" y2="49251.8" gradientUnits="userSpaceOnUse">
<stop offset="0.13" stop-color="#8E7AED"/>
<stop offset="1" stop-color="#5635DC"/>
</linearGradient>
<linearGradient id="paint16_linear_196_1247" x1="225.303" y1="253.212" x2="210.666" y2="275.754" gradientUnits="userSpaceOnUse">
<stop stop-color="#EBF0FF"/>
<stop offset="0.390625" stop-color="#DCE5FF"/>
<stop offset="0.6947" stop-color="#F7F8FB"/>
<stop offset="1" stop-color="#F7F8FB"/>
</linearGradient>
<linearGradient id="paint17_linear_196_1247" x1="71249.6" y1="20102" x2="71249.6" y2="31351.9" gradientUnits="userSpaceOnUse">
<stop offset="0.13" stop-color="#8E7AED"/>
<stop offset="1" stop-color="#5635DC"/>
</linearGradient>
<linearGradient id="paint18_linear_196_1247" x1="220.124" y1="218.83" x2="205.045" y2="245.483" gradientUnits="userSpaceOnUse">
<stop stop-color="#EBF0FF"/>
<stop offset="0.390625" stop-color="#DCE5FF"/>
<stop offset="0.6947" stop-color="#F7F8FB"/>
<stop offset="1" stop-color="#F7F8FB"/>
</linearGradient>
<linearGradient id="paint19_linear_196_1247" x1="242.518" y1="280.151" x2="223.673" y2="300.636" gradientUnits="userSpaceOnUse">
<stop stop-color="#EBF0FF"/>
<stop offset="0.390625" stop-color="#DCE5FF"/>
<stop offset="0.6947" stop-color="#F7F8FB"/>
<stop offset="1" stop-color="#F7F8FB"/>
</linearGradient>
<linearGradient id="paint20_linear_196_1247" x1="182.263" y1="198.385" x2="169.547" y2="218.045" gradientUnits="userSpaceOnUse">
<stop stop-color="#EBF0FF"/>
<stop offset="0.390625" stop-color="#DCE5FF"/>
<stop offset="0.6947" stop-color="#F7F8FB"/>
<stop offset="1" stop-color="#F7F8FB"/>
</linearGradient>
<linearGradient id="paint21_linear_196_1247" x1="148.401" y1="196.72" x2="136.926" y2="220.965" gradientUnits="userSpaceOnUse">
<stop stop-color="#EBF0FF"/>
<stop offset="0.390625" stop-color="#DCE5FF"/>
<stop offset="0.6947" stop-color="#F7F8FB"/>
<stop offset="1" stop-color="#F7F8FB"/>
</linearGradient>
<linearGradient id="paint22_linear_196_1247" x1="125.371" y1="325.981" x2="180.644" y2="241.619" gradientUnits="userSpaceOnUse">
<stop stop-color="#32BBFA"/>
<stop offset="0.34" stop-color="#30BEFA"/>
<stop offset="0.3401" stop-color="#35B8FA"/>
<stop offset="0.6459" stop-color="#934AFD" stop-opacity="0.9548"/>
<stop offset="0.8744" stop-color="#934AFD" stop-opacity="0.9388"/>
<stop offset="1" stop-color="#934AFD" stop-opacity="0.93"/>
</linearGradient>
<linearGradient id="paint23_linear_196_1247" x1="82630.9" y1="15919.4" x2="82630.9" y2="24816.4" gradientUnits="userSpaceOnUse">
<stop offset="0.13" stop-color="#8E7AED"/>
<stop offset="1" stop-color="#5635DC"/>
</linearGradient>
<linearGradient id="paint24_linear_196_1247" x1="143.202" y1="208.332" x2="166.76" y2="208.332" gradientUnits="userSpaceOnUse">
<stop stop-color="#33BAFA"/>
<stop offset="0.1069" stop-color="#60CCFF"/>
<stop offset="0.2058" stop-color="#6DD0FF"/>
<stop offset="0.3016" stop-color="#72D2FF"/>
<stop offset="0.3954" stop-color="#55C8FF"/>
<stop offset="0.4869" stop-color="#37BFFF"/>
<stop offset="0.5405" stop-color="#21B8FF"/>
<stop offset="1" stop-color="#934AFD"/>
</linearGradient>
<linearGradient id="paint25_linear_196_1247" x1="143.179" y1="243.644" x2="150.266" y2="243.644" gradientUnits="userSpaceOnUse">
<stop stop-color="#33BAFA"/>
<stop offset="0.1069" stop-color="#60CCFF"/>
<stop offset="0.2058" stop-color="#6DD0FF"/>
<stop offset="0.3016" stop-color="#72D2FF"/>
<stop offset="0.3954" stop-color="#55C8FF"/>
<stop offset="0.4869" stop-color="#37BFFF"/>
<stop offset="0.5405" stop-color="#21B8FF"/>
<stop offset="1" stop-color="#934AFD"/>
</linearGradient>
<linearGradient id="paint26_linear_196_1247" x1="167.179" y1="186.781" x2="194.145" y2="186.781" gradientUnits="userSpaceOnUse">
<stop stop-color="#33BAFA"/>
<stop offset="0.1069" stop-color="#60CCFF"/>
<stop offset="0.2058" stop-color="#6DD0FF"/>
<stop offset="0.3016" stop-color="#72D2FF"/>
<stop offset="0.3954" stop-color="#55C8FF"/>
<stop offset="0.4869" stop-color="#37BFFF"/>
<stop offset="0.5405" stop-color="#21B8FF"/>
<stop offset="1" stop-color="#934AFD"/>
</linearGradient>
<linearGradient id="paint27_linear_196_1247" x1="158.496" y1="180.755" x2="172.26" y2="180.755" gradientUnits="userSpaceOnUse">
<stop stop-color="#33BAFA"/>
<stop offset="0.1069" stop-color="#60CCFF"/>
<stop offset="0.2058" stop-color="#6DD0FF"/>
<stop offset="0.3016" stop-color="#72D2FF"/>
<stop offset="0.3954" stop-color="#55C8FF"/>
<stop offset="0.4869" stop-color="#37BFFF"/>
<stop offset="0.5405" stop-color="#21B8FF"/>
<stop offset="1" stop-color="#934AFD"/>
</linearGradient>
<radialGradient id="paint28_radial_196_1247" cx="0" cy="0" r="1" gradientUnits="userSpaceOnUse" gradientTransform="translate(161.123 171.64) scale(5.09931 3.16435)">
<stop stop-color="#6FD1FF"/>
<stop offset="0.380208" stop-color="#49C4FF"/>
<stop offset="0.567708" stop-color="#70D1FF"/>
<stop offset="0.697917" stop-color="#6ED0FF"/>
<stop offset="1" stop-color="#8C51FD"/>
</radialGradient>
<linearGradient id="paint29_linear_196_1247" x1="145.914" y1="135.772" x2="153.312" y2="135.772" gradientUnits="userSpaceOnUse">
<stop stop-color="#33BAFA"/>
<stop offset="0.1069" stop-color="#60CCFF"/>
<stop offset="0.2058" stop-color="#6DD0FF"/>
<stop offset="0.3016" stop-color="#72D2FF"/>
<stop offset="0.3954" stop-color="#55C8FF"/>
<stop offset="0.4869" stop-color="#37BFFF"/>
<stop offset="0.5405" stop-color="#21B8FF"/>
<stop offset="1" stop-color="#934AFD"/>
</linearGradient>
<linearGradient id="paint30_linear_196_1247" x1="151.968" y1="126.231" x2="182.827" y2="126.231" gradientUnits="userSpaceOnUse">
<stop stop-color="#33BAFA"/>
<stop offset="0.1069" stop-color="#60CCFF"/>
<stop offset="0.2058" stop-color="#6DD0FF"/>
<stop offset="0.3016" stop-color="#72D2FF"/>
<stop offset="0.3954" stop-color="#55C8FF"/>
<stop offset="0.4869" stop-color="#37BFFF"/>
<stop offset="0.5405" stop-color="#21B8FF"/>
<stop offset="1" stop-color="#934AFD"/>
</linearGradient>
<linearGradient id="paint31_linear_196_1247" x1="101.863" y1="118.811" x2="109.262" y2="118.811" gradientUnits="userSpaceOnUse">
<stop stop-color="#33BAFA"/>
<stop offset="0.1069" stop-color="#60CCFF"/>
<stop offset="0.2058" stop-color="#6DD0FF"/>
<stop offset="0.3016" stop-color="#72D2FF"/>
<stop offset="0.3954" stop-color="#55C8FF"/>
<stop offset="0.4869" stop-color="#37BFFF"/>
<stop offset="0.5405" stop-color="#21B8FF"/>
<stop offset="1" stop-color="#934AFD"/>
</linearGradient>
<linearGradient id="paint32_linear_196_1247" x1="108.57" y1="137.833" x2="117.196" y2="137.833" gradientUnits="userSpaceOnUse">
<stop stop-color="#33BAFA"/>
<stop offset="0.1069" stop-color="#60CCFF"/>
<stop offset="0.2058" stop-color="#6DD0FF"/>
<stop offset="0.3016" stop-color="#72D2FF"/>
<stop offset="0.3954" stop-color="#55C8FF"/>
<stop offset="0.4869" stop-color="#37BFFF"/>
<stop offset="0.5405" stop-color="#21B8FF"/>
<stop offset="1" stop-color="#934AFD"/>
</linearGradient>
<linearGradient id="paint33_linear_196_1247" x1="107.707" y1="148.514" x2="114.23" y2="148.516" gradientUnits="userSpaceOnUse">
<stop stop-color="#B621FE" stop-opacity="0.32"/>
<stop offset="9.3e-07" stop-color="#B621FE"/>
<stop offset="1" stop-color="#1FD1F9"/>
</linearGradient>
<radialGradient id="paint34_radial_196_1247" cx="0" cy="0" r="1" gradientUnits="userSpaceOnUse" gradientTransform="translate(41.6383 45.3991) scale(163.717 96.2323)">
<stop stop-color="#6FD1FF"/>
<stop offset="0.380208" stop-color="#49C4FF"/>
<stop offset="0.567708" stop-color="#70D1FF"/>
<stop offset="0.697917" stop-color="#6ED0FF"/>
<stop offset="1" stop-color="#8C51FD"/>
</radialGradient>
<radialGradient id="paint35_radial_196_1247" cx="0" cy="0" r="1" gradientUnits="userSpaceOnUse" gradientTransform="translate(143.552 104.113) scale(23.2178 24.8487)">
<stop stop-color="#33BAFA"/>
<stop offset="0.1069" stop-color="#60CCFF"/>
<stop offset="0.2058" stop-color="#6DD0FF"/>
<stop offset="0.3016" stop-color="#72D2FF"/>
<stop offset="0.3954" stop-color="#55C8FF"/>
<stop offset="0.4869" stop-color="#37BFFF"/>
<stop offset="0.5405" stop-color="#21B8FF"/>
<stop offset="1" stop-color="#934AFD"/>
</radialGradient>
<linearGradient id="paint36_linear_196_1247" x1="132.835" y1="174.978" x2="149.684" y2="174.978" gradientUnits="userSpaceOnUse">
<stop stop-color="#33BAFA"/>
<stop offset="0.1069" stop-color="#60CCFF"/>
<stop offset="0.2058" stop-color="#6DD0FF"/>
<stop offset="0.3016" stop-color="#72D2FF"/>
<stop offset="0.3954" stop-color="#55C8FF"/>
<stop offset="0.4869" stop-color="#37BFFF"/>
<stop offset="0.5405" stop-color="#21B8FF"/>
<stop offset="1" stop-color="#934AFD"/>
</linearGradient>
<linearGradient id="paint37_linear_196_1247" x1="111.592" y1="166.758" x2="167.631" y2="166.758" gradientUnits="userSpaceOnUse">
<stop stop-color="#00CBF2"/>
<stop offset="0.3401" stop-color="#0089B6" stop-opacity="0.9762"/>
<stop offset="0.6459" stop-color="#015486" stop-opacity="0.9548"/>
<stop offset="0.8744" stop-color="#013368" stop-opacity="0.9388"/>
<stop offset="1" stop-color="#01275D" stop-opacity="0.93"/>
</linearGradient>
<linearGradient id="paint38_linear_196_1247" x1="111.74" y1="165.612" x2="167.569" y2="165.612" gradientUnits="userSpaceOnUse">
<stop stop-color="#33BAFA"/>
<stop offset="0.1069" stop-color="#60CCFF"/>
<stop offset="0.2058" stop-color="#6DD0FF"/>
<stop offset="0.3016" stop-color="#72D2FF"/>
<stop offset="0.3954" stop-color="#55C8FF"/>
<stop offset="0.4869" stop-color="#37BFFF"/>
<stop offset="0.5405" stop-color="#21B8FF"/>
<stop offset="1" stop-color="#934AFD"/>
</linearGradient>
<radialGradient id="paint39_radial_196_1247" cx="0" cy="0" r="1" gradientUnits="userSpaceOnUse" gradientTransform="translate(140.037 165.724) scale(3.40089 3.39527)">
<stop stop-color="#63CDFF"/>
<stop offset="0.130208" stop-color="#95DDFF"/>
<stop offset="0.3425" stop-color="#3AC0FF"/>
<stop offset="0.4216" stop-color="#1BB6FF"/>
<stop offset="1" stop-color="#056E9E"/>
</radialGradient>
<linearGradient id="paint40_linear_196_1247" x1="99.0505" y1="163.483" x2="107.977" y2="163.483" gradientUnits="userSpaceOnUse">
<stop stop-color="#33BAFA"/>
<stop offset="0.1069" stop-color="#60CCFF"/>
<stop offset="0.2058" stop-color="#6DD0FF"/>
<stop offset="0.3016" stop-color="#72D2FF"/>
<stop offset="0.3954" stop-color="#55C8FF"/>
<stop offset="0.4869" stop-color="#37BFFF"/>
<stop offset="0.5405" stop-color="#21B8FF"/>
<stop offset="1" stop-color="#934AFD"/>
</linearGradient>
<linearGradient id="paint41_linear_196_1247" x1="235.55" y1="98.1247" x2="252.389" y2="98.1247" gradientUnits="userSpaceOnUse">
<stop stop-color="#33BAFA"/>
<stop offset="0.1069" stop-color="#60CCFF"/>
<stop offset="0.2058" stop-color="#6DD0FF"/>
<stop offset="0.3016" stop-color="#72D2FF"/>
<stop offset="0.3954" stop-color="#55C8FF"/>
<stop offset="0.4869" stop-color="#37BFFF"/>
<stop offset="0.5405" stop-color="#21B8FF"/>
<stop offset="1" stop-color="#934AFD"/>
</linearGradient>
<linearGradient id="paint42_linear_196_1247" x1="214.32" y1="89.9013" x2="270.36" y2="89.9013" gradientUnits="userSpaceOnUse">
<stop stop-color="#00CBF2"/>
<stop offset="0.3401" stop-color="#0089B6" stop-opacity="0.9762"/>
<stop offset="0.6459" stop-color="#015486" stop-opacity="0.9548"/>
<stop offset="0.8744" stop-color="#013368" stop-opacity="0.9388"/>
<stop offset="1" stop-color="#01275D" stop-opacity="0.93"/>
</linearGradient>
<linearGradient id="paint43_linear_196_1247" x1="214.455" y1="88.7498" x2="270.284" y2="88.7498" gradientUnits="userSpaceOnUse">
<stop stop-color="#33BAFA"/>
<stop offset="0.1069" stop-color="#60CCFF"/>
<stop offset="0.2058" stop-color="#6DD0FF"/>
<stop offset="0.3016" stop-color="#72D2FF"/>
<stop offset="0.3954" stop-color="#55C8FF"/>
<stop offset="0.4869" stop-color="#37BFFF"/>
<stop offset="0.5405" stop-color="#21B8FF"/>
<stop offset="1" stop-color="#934AFD"/>
</linearGradient>
<radialGradient id="paint44_radial_196_1247" cx="0" cy="0" r="1" gradientUnits="userSpaceOnUse" gradientTransform="translate(242.761 88.8612) scale(3.39801 3.39526)">
<stop stop-color="#63CDFF"/>
<stop offset="0.130208" stop-color="#95DDFF"/>
<stop offset="0.3425" stop-color="#3AC0FF"/>
<stop offset="0.4216" stop-color="#1BB6FF"/>
<stop offset="1" stop-color="#056E9E"/>
</radialGradient>
<linearGradient id="paint45_linear_196_1247" x1="201.754" y1="86.6202" x2="210.681" y2="86.6202" gradientUnits="userSpaceOnUse">
<stop stop-color="#33BAFA"/>
<stop offset="0.1069" stop-color="#60CCFF"/>
<stop offset="0.2058" stop-color="#6DD0FF"/>
<stop offset="0.3016" stop-color="#72D2FF"/>
<stop offset="0.3954" stop-color="#55C8FF"/>
<stop offset="0.4869" stop-color="#37BFFF"/>
<stop offset="0.5405" stop-color="#21B8FF"/>
<stop offset="1" stop-color="#934AFD"/>
</linearGradient>
<linearGradient id="paint46_linear_196_1247" x1="138.945" y1="34.7042" x2="155.795" y2="34.7042" gradientUnits="userSpaceOnUse">
<stop stop-color="#33BAFA"/>
<stop offset="0.1069" stop-color="#60CCFF"/>
<stop offset="0.2058" stop-color="#6DD0FF"/>
<stop offset="0.3016" stop-color="#72D2FF"/>
<stop offset="0.3954" stop-color="#55C8FF"/>
<stop offset="0.4869" stop-color="#37BFFF"/>
<stop offset="0.5405" stop-color="#21B8FF"/>
<stop offset="1" stop-color="#934AFD"/>
</linearGradient>
<linearGradient id="paint47_linear_196_1247" x1="117.716" y1="26.4608" x2="173.755" y2="26.4608" gradientUnits="userSpaceOnUse">
<stop stop-color="#00CBF2"/>
<stop offset="0.3401" stop-color="#0089B6" stop-opacity="0.9762"/>
<stop offset="0.6459" stop-color="#015486" stop-opacity="0.9548"/>
<stop offset="0.8744" stop-color="#013368" stop-opacity="0.9388"/>
<stop offset="1" stop-color="#01275D" stop-opacity="0.93"/>
</linearGradient>
<linearGradient id="paint48_linear_196_1247" x1="117.861" y1="25.319" x2="173.708" y2="25.319" gradientUnits="userSpaceOnUse">
<stop stop-color="#33BAFA"/>
<stop offset="0.1069" stop-color="#60CCFF"/>
<stop offset="0.2058" stop-color="#6DD0FF"/>
<stop offset="0.3016" stop-color="#72D2FF"/>
<stop offset="0.3954" stop-color="#55C8FF"/>
<stop offset="0.4869" stop-color="#37BFFF"/>
<stop offset="0.5405" stop-color="#21B8FF"/>
<stop offset="1" stop-color="#934AFD"/>
</linearGradient>
<radialGradient id="paint49_radial_196_1247" cx="0" cy="0" r="1" gradientUnits="userSpaceOnUse" gradientTransform="translate(146.16 25.4194) scale(3.398 3.38402)">
<stop stop-color="#63CDFF"/>
<stop offset="0.130208" stop-color="#95DDFF"/>
<stop offset="0.3425" stop-color="#3AC0FF"/>
<stop offset="0.4216" stop-color="#1BB6FF"/>
<stop offset="1" stop-color="#056E9E"/>
</radialGradient>
<linearGradient id="paint50_linear_196_1247" x1="105.175" y1="23.198" x2="114.102" y2="23.198" gradientUnits="userSpaceOnUse">
<stop stop-color="#33BAFA"/>
<stop offset="0.1069" stop-color="#60CCFF"/>
<stop offset="0.2058" stop-color="#6DD0FF"/>
<stop offset="0.3016" stop-color="#72D2FF"/>
<stop offset="0.3954" stop-color="#55C8FF"/>
<stop offset="0.4869" stop-color="#37BFFF"/>
<stop offset="0.5405" stop-color="#21B8FF"/>
<stop offset="1" stop-color="#934AFD"/>
</linearGradient>
<linearGradient id="paint51_linear_196_1247" x1="33.808" y1="105.454" x2="50.6562" y2="105.454" gradientUnits="userSpaceOnUse">
<stop stop-color="#33BAFA"/>
<stop offset="0.1069" stop-color="#60CCFF"/>
<stop offset="0.2058" stop-color="#6DD0FF"/>
<stop offset="0.3016" stop-color="#72D2FF"/>
<stop offset="0.3954" stop-color="#55C8FF"/>
<stop offset="0.4869" stop-color="#37BFFF"/>
<stop offset="0.5405" stop-color="#21B8FF"/>
<stop offset="1" stop-color="#934AFD"/>
</linearGradient>
<linearGradient id="paint52_linear_196_1247" x1="12.5709" y1="97.2222" x2="68.6094" y2="97.2222" gradientUnits="userSpaceOnUse">
<stop stop-color="#00CBF2"/>
<stop offset="0.3401" stop-color="#0089B6" stop-opacity="0.9762"/>
<stop offset="0.6459" stop-color="#015486" stop-opacity="0.9548"/>
<stop offset="0.8744" stop-color="#013368" stop-opacity="0.9388"/>
<stop offset="1" stop-color="#01275D" stop-opacity="0.93"/>
</linearGradient>
<linearGradient id="paint53_linear_196_1247" x1="12.6934" y1="96.0744" x2="68.5405" y2="96.0744" gradientUnits="userSpaceOnUse">
<stop stop-color="#33BAFA"/>
<stop offset="0.1069" stop-color="#60CCFF"/>
<stop offset="0.2058" stop-color="#6DD0FF"/>
<stop offset="0.3016" stop-color="#72D2FF"/>
<stop offset="0.3954" stop-color="#55C8FF"/>
<stop offset="0.4869" stop-color="#37BFFF"/>
<stop offset="0.5405" stop-color="#21B8FF"/>
<stop offset="1" stop-color="#934AFD"/>
</linearGradient>
<radialGradient id="paint54_radial_196_1247" cx="0" cy="0" r="1" gradientUnits="userSpaceOnUse" gradientTransform="translate(41.0158 96.1812) scale(3.39441 3.38683)">
<stop stop-color="#63CDFF"/>
<stop offset="0.130208" stop-color="#95DDFF"/>
<stop offset="0.3425" stop-color="#3AC0FF"/>
<stop offset="0.4216" stop-color="#1BB6FF"/>
<stop offset="1" stop-color="#056E9E"/>
</radialGradient>
<linearGradient id="paint55_linear_196_1247" x1="0.011419" y1="93.9493" x2="8.94287" y2="93.9493" gradientUnits="userSpaceOnUse">
<stop stop-color="#33BAFA"/>
<stop offset="0.1069" stop-color="#60CCFF"/>
<stop offset="0.2058" stop-color="#6DD0FF"/>
<stop offset="0.3016" stop-color="#72D2FF"/>
<stop offset="0.3954" stop-color="#55C8FF"/>
<stop offset="0.4869" stop-color="#37BFFF"/>
<stop offset="0.5405" stop-color="#21B8FF"/>
<stop offset="1" stop-color="#934AFD"/>
</linearGradient>
</defs>
</svg>
