<svg width="250" height="240" viewBox="0 0 250 240" fill="none" xmlns="http://www.w3.org/2000/svg">
<path d="M34.845 74.4932C30.8766 84.268 26.2189 98.2441 23.7467 115.542C22.1203 126.92 19.8486 143.761 23.7467 163.685C25.3767 172.013 30.7693 199.588 50.485 218.417C74.5348 241.385 114.165 245.862 151.889 232.606C168.84 237.843 190.358 241.597 202.339 230.579C211.765 221.91 208.757 210.1 211.421 189.023C218.113 136.04 248.227 122.746 241.691 95.2701C239.017 84.0296 229.724 68.3793 196.792 54.2213C190.617 44.5755 174.599 22.7177 145.837 13.1725C110.859 1.56462 64.0923 10.5094 44.4329 42.0589C37.1413 53.7551 35.2371 65.8981 34.845 74.4932Z" fill="url(#paint0_linear_196_1134)"/>
<path d="M239.088 92.9467C245.114 92.9467 250 88.0786 250 82.0734C250 76.0683 245.114 71.2002 239.088 71.2002C233.061 71.2002 228.176 76.0683 228.176 82.0734C228.176 88.0786 233.061 92.9467 239.088 92.9467Z" fill="#6F74FC"/>
<path d="M200.239 207.904C205.862 207.24 210.882 203.844 214.643 199.593C218.404 195.342 221.075 190.253 223.709 185.22C228.839 175.415 233.97 165.612 239.101 155.807C242.329 149.638 245.59 143.381 247.152 136.591C249.687 125.573 247.384 113.524 240.968 104.231C235.632 96.5013 227.846 90.8995 220.865 84.6285C213.885 78.3574 207.321 70.7354 205.837 61.448C205.262 57.8524 205.48 54.1438 204.645 50.6013C202.356 40.8777 192.661 34.5907 182.994 32.2278C173.327 29.8649 163.19 30.3983 153.372 28.7753C143.554 27.1524 136.638 19.1347 128.57 13.2875C121.807 8.38865 114.864 3.39795 106.837 1.12864C98.8107 -1.14066 89.3494 -0.172895 83.4064 5.69904C76.586 12.4381 76.0849 23.5091 70.1577 31.0535C61.732 41.7783 45.227 42.2569 35.3138 51.6096C28.0908 58.4246 25.5237 69.033 25.9246 78.9773C26.3255 88.9234 29.3005 98.5516 31.5722 108.24C33.8439 117.928 35.4175 128.118 33.0175 137.776C31.9748 141.974 30.0987 145.984 27.456 149.405C26.4169 150.751 25.2406 152.344 23.8217 153.262C22.1724 154.329 20.3104 155.032 18.6769 156.171C11.8671 160.918 6.64675 168.453 5.43353 176.748C4.68275 181.878 3.69107 186.473 5.30869 191.641C7.82655 199.681 14.8562 205.733 22.7069 208.718C30.5576 211.703 39.1732 211.974 47.5479 211.392C53.6984 210.964 59.9333 210.101 65.98 211.302C76.8023 213.453 85.2033 221.756 94.8704 227.097C114.37 237.868 140.266 235.533 157.543 221.447C163.901 224.723 170.547 226.678 177.694 226.692C183.222 226.703 188.902 225.629 193.519 222.576C198.134 219.526 200.431 213.453 200.239 207.904Z" fill="url(#paint1_linear_196_1134)"/>
<path d="M37.3242 182.78L61.5745 207.952L79.0325 194.209L48.1394 169.492L37.3242 182.78Z" fill="#53678F"/>
<path d="M136.5 79.3353L161.805 104.202C161.805 104.202 168.429 93.5339 168.735 92.9458C169.041 92.3577 145.035 73.1172 145.035 73.1172L136.5 79.3353Z" fill="#53678F"/>
<path d="M182.059 122.586L207.364 147.453C207.364 147.453 213.987 136.785 214.293 136.197C214.599 135.609 190.593 116.368 190.593 116.368L182.059 122.586Z" fill="#53678F"/>
<path d="M93.7461 226.65L106.239 212.84C106.239 212.84 106.989 227.03 115.06 229.437C123.131 231.844 135.996 229.437 135.996 229.437L136.462 231.971C136.464 231.971 114.096 239.517 93.7461 226.65Z" fill="#53678F"/>
<path d="M119.625 94.4941L130.045 102.249L140.462 89.0566L130.75 82.3193L119.625 94.4941Z" fill="#F2F4F8"/>
<path d="M129.104 126.146L116.316 138.206L133.871 157.269L147.292 145.742L129.104 126.146Z" fill="#8E9DF4" stroke="#1A1A1A" stroke-width="0.184356" stroke-miterlimit="10" stroke-linecap="round" stroke-linejoin="round"/>
<path d="M142.424 143.969L133.406 152.113L132.523 151.333L141.793 143.351L142.424 143.969Z" fill="#F2F4F8"/>
<path d="M139.936 141.305L130.918 149.451L130.035 148.669L139.307 140.688L139.936 141.305Z" fill="#F2F4F8"/>
<path d="M34.5977 180.045L50.4468 161.363C50.4468 161.363 52.8522 159.42 55.683 162.263C58.5138 165.106 49.9756 172.547 47.8059 174.774C45.6362 177 38.749 184.204 38.749 184.204L34.5977 180.045Z" fill="#102140"/>
<path d="M63.2695 204.864L79.1187 186.182C79.1187 186.182 81.524 184.239 84.3549 187.083C87.1857 189.926 78.6475 197.366 76.4778 199.593C74.308 201.82 67.4208 209.023 67.4208 209.023L63.2695 204.864Z" fill="#102140"/>
<path d="M30.6358 187.66C30.6358 188.229 60.6374 214.244 60.6374 214.244C64.8046 217.308 72.2263 211.559 67.384 206.883L36.5648 179.59C32.2869 176.43 27.3812 183.127 30.6358 187.66Z" fill="#344059"/>
<path d="M88.9023 223.416L107.691 202.534C107.691 202.534 110.097 200.592 112.928 203.435C115.758 206.278 107.22 213.718 105.05 215.945C102.881 218.172 94.877 227.099 94.877 227.099L88.9023 223.416Z" fill="#102140"/>
<path d="M78.9121 187.088C78.7205 187.473 77.9539 188.051 77.189 188.051C72.5911 187.858 67.995 187.473 63.397 186.127C59.7574 185.165 55.3529 183.627 53.628 179.779C55.3511 183.627 59.7574 185.165 63.397 186.127C67.995 187.475 72.5911 187.858 77.189 188.051C77.9539 188.049 78.7205 187.471 78.9121 187.088C79.8247 185.944 80.8269 184.951 81.8836 184.049C82.7083 182.013 83.1338 180.054 83.0212 178.633C82.7557 175.263 74.1929 170.032 69.1607 166.825C64.1285 163.618 55.7415 163.65 55.7415 163.65C53.8918 163.577 50.2679 171.54 50.0024 178.209C49.7369 184.877 53.2693 187.5 55.0347 188.734C56.8 189.969 72.6034 194.947 76.5771 191.666C78.8735 189.769 80.7548 186.837 81.8854 184.049C80.8269 184.951 79.8229 185.942 78.9121 187.088Z" fill="#D9D9D9"/>
<path d="M149.232 65.5472C149.232 65.5472 153.765 51.2285 157.722 50.4303C161.68 49.632 169.494 51.4493 177.042 59.1631C184.591 66.877 195.318 76.6942 188.299 84.7524C181.28 92.8107 170.95 95.2036 170.95 95.2036L146.141 69.9163L149.232 65.5472Z" fill="#344059"/>
<path d="M197.881 104.497C197.881 104.497 204.916 92.7656 208.874 91.9674C212.831 91.1692 220.645 92.9864 228.194 100.7C235.742 108.414 246.469 118.231 239.45 126.29C232.431 134.348 222.736 139.162 222.736 139.162L214.688 146.348L187.992 112.826L197.881 104.497Z" fill="#344059"/>
<path d="M199.774 134.376C202.728 136.728 206.44 137.775 210.247 137.807C212.374 132.341 214.642 125.786 214.326 123.398C213.744 119.024 209.153 116.809 209.153 116.809C209.153 116.809 196.734 115.153 194.909 116.26C193.084 117.369 191.143 121.684 191.143 121.684C191.143 121.684 191.069 123.013 190.918 124.635C191.634 125.004 192.365 125.306 192.878 125.717C195.56 128.41 197.093 131.873 199.774 134.376Z" fill="#FFDE70"/>
<path d="M199.778 134.376C197.097 131.876 195.564 128.412 192.882 125.719C192.371 125.308 191.638 125.006 190.922 124.637C190.748 126.502 190.474 128.753 190.094 129.813C203.495 142.917 206.806 146.152 206.806 146.152C206.806 146.152 208.48 142.357 210.251 137.808C206.442 137.776 202.731 136.729 199.778 134.376Z" fill="#FFB114"/>
<path d="M210.77 150.029C210.77 150.029 223.503 137.824 225.386 137.282C227.269 136.739 228.447 137.449 229.094 138.631C229.741 139.812 229.094 141.704 228.447 142.295C227.8 142.887 215.202 154.362 215.202 154.362L210.77 150.029Z" fill="#102140"/>
<path d="M121.956 67.6692L58.3045 135.407L148.417 227.419C147.472 227.91 146.514 228.371 145.544 228.806L53.8789 135.457L121.861 63.1094L231.509 170.312C230.994 171.298 230.477 172.281 229.964 173.267L121.956 67.6692Z" fill="#F2F4F8"/>
<path d="M229.97 173.268C227.886 177.252 225.801 181.236 223.716 185.22C221.082 190.255 218.409 195.342 214.65 199.593C210.889 203.844 205.869 207.24 200.244 207.906C200.436 213.453 198.14 219.528 193.522 222.579C188.907 225.633 183.226 226.707 177.698 226.696C170.55 226.682 163.904 224.727 157.546 221.449C154.777 223.708 151.786 225.661 148.635 227.309C148.565 227.348 148.491 227.385 148.421 227.418L58.3086 135.406L121.96 67.668L229.97 173.268Z" fill="#DBD2DB"/>
<path d="M124.496 138.992C122.949 138.086 121.664 136.744 120.461 135.317C120.331 135.595 120.19 135.879 120.039 136.165C120.568 136.372 120.834 137.525 121.393 138.5C121.952 139.475 125.277 141.869 127.162 141.189C128.268 140.79 128.816 139.943 129.08 139.31C127.464 139.102 125.736 139.704 124.496 138.992Z" fill="#DB6767"/>
<path d="M128.1 134.51C124.716 131.969 121.772 131.909 121.772 131.909C121.772 131.909 121.327 133.472 120.457 135.318C121.658 136.743 122.945 138.087 124.492 138.993C125.732 139.704 127.46 139.102 129.076 139.31C129.261 138.867 129.306 138.53 129.306 138.53C129.306 138.53 132.014 140.066 133.426 140.776C134.838 141.486 135.309 140.688 135.397 139.978C135.487 139.268 131.485 137.052 128.1 134.51Z" fill="#FC9590"/>
<path d="M62.5898 81.669C62.5898 81.669 63.1191 68.9609 69.2994 66.6562C73.8903 76.9997 73.8903 76.9997 73.8903 76.9997L62.5898 81.669Z" fill="#102140"/>
<path d="M94.2339 66.6562C93.7117 61.0545 89.5393 56.0903 83.7405 56.258C80.6933 59.1278 82.3127 64.2933 82.3127 64.2933L94.1636 76.2721C95.0603 73.3229 94.4677 69.4854 94.2339 66.6562Z" fill="#D1334A"/>
<path d="M102.088 70.5572C99.969 65.1779 93.0818 52.9431 86.49 54.7762C85.3014 55.1065 84.4082 55.6274 83.7383 56.2579C89.5371 56.0919 93.7095 61.0543 94.2317 66.6561C94.4656 69.4852 95.0581 73.3227 94.1614 76.2702L100.145 82.3187C100.145 82.3205 104.206 75.9364 102.088 70.5572Z" fill="#EF5164"/>
<path d="M93.696 70.4324C93.121 70.0474 92.5373 69.6765 91.9289 69.3498C86.5662 66.2717 79.8618 66.6567 74.8824 69.9273C72.7759 71.2748 72.3926 74.1604 71.2427 75.6986C69.1363 78.3917 66.6448 81.0849 67.4114 84.7405C68.178 87.4336 69.3262 89.9343 70.0928 92.6274C71.2427 97.053 72.5825 101.092 73.7325 105.325C73.6727 105.325 73.634 105.325 73.5988 105.325C76.1114 108.122 78.0438 109.738 78.0438 109.738L101.672 84.5939L93.696 70.4324Z" fill="#EF5164"/>
<path d="M70.0968 92.629C69.3302 89.9358 68.1821 87.4352 67.4154 84.742C66.6488 81.0864 69.1386 78.3933 71.2467 75.7001C72.3967 74.1602 72.78 71.2745 74.8864 69.9288C79.8658 66.6582 86.5702 66.2732 91.9329 69.3514C92.5431 69.6781 93.1268 70.0472 93.7 70.4339L93.3466 69.8052C93.3466 69.8052 90.9624 62.4604 80.6623 62.1072C68.3614 61.6834 65.1244 69.1412 65.1244 69.1412L69.6414 74.7271C69.6414 74.7271 69.6414 74.7271 62.4905 76.3235C60.6109 88.5425 68.3702 99.5022 73.6046 105.328C73.638 105.328 73.6784 105.328 73.7382 105.328C72.5865 101.093 71.245 97.0546 70.0968 92.629Z" fill="#EB485C"/>
<path d="M90.5903 119.369C93.655 123.987 98.2529 126.103 102.849 128.411C103.424 128.796 104.381 129.181 105.147 129.566C109.935 132.259 114.724 133.992 120.279 135.337C120.587 135.426 120.894 135.535 121.2 135.652C122.269 134.126 123.546 131.851 122.213 131.201C120.152 130.196 105.349 123.132 100.671 116.395C95.9917 109.658 91.6646 105.135 96.9043 96.6832L98.0226 95.2933L100.762 90.9631L74.2734 86.8271C74.2734 86.8271 74.5723 88.8174 75.3882 91.9892C75.8067 92.496 76.1952 93.0011 76.415 93.5909C79.8648 103.018 85.0359 110.712 90.5903 119.369Z" fill="#EF5164"/>
<path d="M120.284 135.336C114.729 133.989 109.94 132.258 105.152 129.565C104.385 129.18 103.429 128.795 102.854 128.41C98.2557 126.102 93.6596 123.984 90.5949 119.368C85.0405 110.711 79.8676 103.015 76.4214 93.5881C76.2016 92.9982 75.813 92.4932 75.3945 91.9863C78.1462 102.679 86.79 126.806 109.772 133.371C120.102 137.095 120.102 137.095 120.102 137.095C120.102 137.095 120.625 136.484 121.208 135.651C120.899 135.534 120.591 135.425 120.284 135.336Z" fill="#D1334A"/>
<path d="M104.825 83.7248C104.825 83.7248 102.091 82.2255 101.147 81.0723C98.5342 82.0736 96.3504 81.9959 95.5556 84.433C94.7609 86.8718 93.305 92.0409 94.3196 92.47C95.3341 92.8991 97.9082 95.059 97.9082 95.059L104.825 83.7248Z" fill="#F2F4F8"/>
<path d="M146.707 100.05C146.649 98.544 142.499 92.2482 142.499 92.1299L141.82 92.2871C143.127 95.9762 146.26 100.155 143.464 102.63C143.069 103.028 142.582 103.296 142.04 103.494C142.241 103.563 142.422 103.611 142.573 103.63C143.906 103.807 144.825 103.506 145.826 103.035C146.824 102.563 146.765 101.559 146.707 100.05Z" fill="#DB6767"/>
<path d="M141.813 92.29L138.402 93.0794C138.402 93.0794 139.403 96.449 139.726 97.3938C140.05 98.3386 139.521 99.0485 138.608 100.172C137.801 101.164 140.498 102.973 142.033 103.497C142.575 103.299 143.062 103.031 143.457 102.633C146.253 100.156 143.12 95.9774 141.813 92.29Z" fill="#FC9590"/>
<path d="M134.582 75.7395L147.075 63.819C147.075 63.819 147.692 62.9766 149.9 64.7938C152.107 66.611 150.871 67.6318 150.385 68.2075C149.9 68.7832 138.125 79.335 138.125 79.335L134.582 75.7395Z" fill="#102140"/>
<path d="M166.596 74.2222C161.769 71.2677 155.413 70.8527 154.942 70.7344C154.942 70.7344 150.203 75.522 149.498 78.0933C149.073 79.6403 148.596 83.1352 148.285 85.6712C152.611 91.2341 157.875 96.3378 165.295 98.0137C165.678 98.2062 166.445 98.5912 166.826 98.5912C168.265 98.7643 169.754 98.9197 171.243 98.9638C172.882 97.0089 174.656 93.8053 175.484 89.8831C176.718 84.0341 171.421 77.1785 166.596 74.2222Z" fill="#F2F4F8"/>
<path d="M165.296 98.0164C157.876 96.3404 152.614 91.235 148.286 85.6738C148.081 87.3515 147.945 88.6107 147.945 88.6107L163.893 104.203C163.893 104.203 167.2 101.767 169.054 100.881C169.665 100.589 170.437 99.9289 171.243 98.9665C169.753 98.9223 168.264 98.7669 166.826 98.5939C166.444 98.5939 165.679 98.2089 165.296 98.0164Z" fill="#D9D9D9"/>
<path d="M155.613 87.4668C155.613 87.4668 156.296 92.2774 157.047 92.9432" stroke="#BFBEBA" stroke-width="0.184356" stroke-miterlimit="10" stroke-linecap="round" stroke-linejoin="round"/>
<path d="M131.969 77.6219C133.119 82.6232 135.608 87.0488 137.14 91.8576C137.381 92.5852 137.699 93.3128 137.901 94.0898C139.99 94.805 143.1 92.4563 143.1 92.4563C143.1 92.4563 143.1 92.4563 142.615 91.0823C142.042 89.2651 138.907 81.862 138.907 81.862C138.907 81.862 138.907 81.862 142.13 81.8515C145.309 82.0192 150.076 79.9548 150.076 79.9548L159.537 71.621C159.537 71.621 159.505 71.6104 159.452 71.5928C159.285 71.6352 159.125 71.6581 158.978 71.6581C149.59 72.4281 140.205 73.1963 131.969 77.6219Z" fill="#F2F4F8"/>
<path d="M150.779 69.9363C148.394 69.7597 132.547 75.2997 130.782 77.2511C129.016 79.2007 137.315 93.7861 137.315 93.7861C137.496 93.9203 137.693 94.0192 137.899 94.0899C137.697 93.3146 137.38 92.5852 137.138 91.8576C135.605 87.0488 133.115 82.6233 131.967 77.622C140.202 73.1964 149.588 72.4282 158.974 71.6582C159.122 71.6582 159.282 71.6352 159.449 71.5928C158.735 71.3615 153.53 69.7156 150.779 69.9363Z" fill="#D9D9D9"/>
<path d="M163.449 103.799L175.942 91.8786C175.942 91.8786 176.559 91.0362 178.767 92.8534C180.974 94.6706 179.738 95.6914 179.253 96.2671C178.767 96.8428 166.992 107.395 166.992 107.395L163.449 103.799Z" fill="#102140"/>
<path d="M173.269 87.6865L165.485 93.343C165.485 93.343 158.597 101.943 151.83 106.081C145.06 110.219 141.234 114.178 141.234 114.178C141.234 114.178 143.52 115.967 145.609 116.596C146.253 116.49 146.842 116.17 147.295 115.715C153.808 110.713 160.129 106.673 167.406 102.632C170.156 101.159 171.329 98.1024 173.27 95.4816C174.506 92.347 175.048 89.894 173.269 87.6865Z" fill="#F2F4F8"/>
<path d="M167.399 102.633C160.12 106.674 153.799 110.713 147.288 115.716C146.834 116.171 146.245 116.491 145.602 116.597C146.087 116.743 146.562 116.826 146.996 116.811C149.174 115.067 158.544 108.673 162.064 107.265C165.584 105.858 170.801 101.418 172.776 96.6853C172.948 96.2738 173.112 95.8747 173.265 95.4844C171.322 98.1033 170.149 101.16 167.399 102.633Z" fill="#D9D9D9"/>
<path d="M160.183 86.5173C161.95 86.489 163.448 84.1208 163.448 84.1208L162.889 81.5195H152C152 81.5195 154.031 87.667 156.767 87.9619C159.503 88.2568 161.092 85.3023 161.092 85.3023" fill="#FC9590"/>
<path d="M145.21 114.657C144.464 114.149 143.437 114.059 142.212 114.265C142.212 114.265 137.399 117.767 136.65 120.294C135.9 122.822 135.326 128.717 136.385 128.807C137.445 128.895 138.131 128.095 138.119 126.145C138.106 124.196 139.079 121.668 139.21 121.803C139.661 122.214 140.046 122.528 140.399 122.76C143.645 121.607 145.405 118.091 145.21 114.657Z" fill="#FC9590"/>
<path d="M146.497 117.99C146.275 117.458 146.321 116.349 146.321 116.349C146.106 115.554 145.726 115.007 145.213 114.657C145.408 118.09 143.646 121.606 140.402 122.76C141.61 123.551 142.44 123.339 144.114 122.378C146.275 121.183 146.716 118.389 146.497 117.99Z" fill="#DB6767"/>
<path d="M121.191 82.1756C123.265 82.1756 124.945 80.4875 124.945 78.4052C124.945 76.3228 123.265 74.6348 121.191 74.6348C119.118 74.6348 117.438 76.3228 117.438 78.4052C117.438 80.4875 119.118 82.1756 121.191 82.1756Z" fill="#F2F4F8"/>
<path d="M121.194 81.071C122.66 81.071 123.849 79.8779 123.849 78.4061C123.849 76.9343 122.66 75.7412 121.194 75.7412C119.728 75.7412 118.539 76.9343 118.539 78.4061C118.539 79.8779 119.728 81.071 121.194 81.071Z" fill="#572658"/>
<path d="M74.961 129.916C77.0342 129.916 78.7149 128.228 78.7149 126.145C78.7149 124.063 77.0342 122.375 74.961 122.375C72.8877 122.375 71.207 124.063 71.207 126.145C71.207 128.228 72.8877 129.916 74.961 129.916Z" fill="#F2F4F8"/>
<path d="M74.9636 128.811C76.4299 128.811 77.6186 127.618 77.6186 126.146C77.6186 124.675 76.4299 123.481 74.9636 123.481C73.4973 123.481 72.3086 124.675 72.3086 126.146C72.3086 127.618 73.4973 128.811 74.9636 128.811Z" fill="#572658"/>
<path d="M121.82 173.262C123.894 173.262 125.574 171.574 125.574 169.492C125.574 167.41 123.894 165.722 121.82 165.722C119.747 165.722 118.066 167.41 118.066 169.492C118.066 171.574 119.747 173.262 121.82 173.262Z" fill="#F2F4F8"/>
<path d="M121.823 172.158C123.289 172.158 124.478 170.965 124.478 169.493C124.478 168.021 123.289 166.828 121.823 166.828C120.357 166.828 119.168 168.021 119.168 169.493C119.168 170.965 120.357 172.158 121.823 172.158Z" fill="#572658"/>
<path d="M176.496 221.411C178.569 221.411 180.25 219.723 180.25 217.641C180.25 215.558 178.569 213.87 176.496 213.87C174.423 213.87 172.742 215.558 172.742 217.641C172.742 219.723 174.423 221.411 176.496 221.411Z" fill="#F2F4F8"/>
<path d="M176.499 220.306C177.965 220.306 179.154 219.113 179.154 217.641C179.154 216.17 177.965 214.977 176.499 214.977C175.032 214.977 173.844 216.17 173.844 217.641C173.844 219.113 175.032 220.306 176.499 220.306Z" fill="#572658"/>
<path d="M214.637 170.596C216.71 170.596 218.391 168.908 218.391 166.826C218.391 164.744 216.71 163.056 214.637 163.056C212.564 163.056 210.883 164.744 210.883 166.826C210.883 168.908 212.564 170.596 214.637 170.596Z" fill="#F2F4F8"/>
<path d="M214.639 169.492C216.106 169.492 217.294 168.299 217.294 166.827C217.294 165.355 216.106 164.162 214.639 164.162C213.173 164.162 211.984 165.355 211.984 166.827C211.984 168.299 213.173 169.492 214.639 169.492Z" fill="#572658"/>
<path d="M176.48 116.812C176.48 116.812 190.313 103.56 192.196 103.019C194.079 102.479 195.257 103.187 195.904 104.368C196.551 105.55 195.904 107.441 195.257 108.033C194.61 108.624 180.66 121.333 180.66 121.333L176.48 116.812Z" fill="#102140"/>
<path d="M100.234 150.618H111.888L112.242 169.493H100.234V150.618Z" fill="#F2F4F8"/>
<path d="M152.914 181.578L160.119 190.777L145.566 202.726L138.141 193.25L152.914 181.578Z" fill="#F2F4F8"/>
<path d="M176.649 193.751L182.87 203.648L167.163 214.021L160.754 203.824L176.649 193.751Z" fill="#F2F4F8"/>
<path d="M198.866 160.409L208.368 167.184L197.776 182.779L187.984 175.798L198.866 160.409Z" fill="#F2F4F8"/>
<path d="M180.996 132.282L186.776 142.444L170.631 152.113L164.676 141.644L180.996 132.282Z" fill="#EDEDED"/>
<path d="M177.012 127.985L182.793 138.147L166.647 147.816L160.691 137.345L177.012 127.985Z" fill="#F2F4F8"/>
<path d="M98.8499 97.54C98.8499 97.54 96.4955 97.925 97.6437 99.963C98.7918 102.003 100.557 102.474 101.675 100.998C100.615 99.4915 98.8499 97.54 98.8499 97.54Z" fill="#FC9590"/>
<path d="M170.655 153.421C171.049 155.006 172.002 156.434 173.303 157.478C173.748 156.795 174.089 155.613 173.54 154.667C172.715 153.248 172.128 151.12 172.598 151.002C173.245 151.445 173.217 152.487 174.039 152.113C174.864 151.74 174.275 149.346 173.804 148.549C173.333 147.751 172.891 146.126 173.039 145.653C173.088 145.492 172.615 145.248 171.97 144.994C170.829 147.664 169.839 150.474 170.655 153.421Z" fill="#FC9590"/>
<path d="M170.665 153.421C169.849 150.472 170.839 147.664 171.98 144.994C170.714 144.498 168.782 143.968 168.782 143.968C168.782 143.968 166.649 152.125 168.392 154.724C170.134 157.326 172.137 158.034 172.666 158.034C172.842 158.034 173.09 157.817 173.313 157.476C172.012 156.436 171.059 155.005 170.665 153.421Z" fill="#DB6767"/>
<path d="M178.701 126.294C176.595 128.795 176.211 132.258 174.678 135.143C174.487 135.721 174.87 136.683 174.678 137.259C173.224 140.182 172.115 143.278 172.662 146.546C173.113 146.486 173.585 146.357 174.128 146.151C174.975 139.606 178.524 127.299 180.741 125.526C181.613 124.828 183.561 124.254 185.606 123.815C183 123.594 180.387 124.148 178.701 126.294Z" fill="#FFB114"/>
<path d="M187.058 113.887C179.248 116.483 175.416 118.694 172.36 123.399C171.379 124.911 167.464 144.621 168.358 145.387C170.345 146.325 171.427 146.71 172.659 146.549C172.112 143.28 173.22 140.185 174.676 137.262C174.868 136.684 174.484 135.722 174.676 135.146C176.209 132.261 176.591 128.797 178.699 126.297C180.387 124.151 182.998 123.597 185.604 123.817C188.758 123.139 192.138 122.779 192.138 122.779L196.695 116.676L198.494 114.267C198.494 114.267 194.868 111.291 187.058 113.887Z" fill="#FFDE70"/>
<path d="M176.976 158.23C174.579 157.886 173.714 156.005 174.24 153.824C173.848 153.911 173.443 154.086 173.067 154.34C172.154 154.96 171.272 156.733 171.39 157.294C171.507 157.856 173.684 161.52 176.819 161.3C180.548 161.037 180.944 160.457 182.906 160.251C184.869 160.044 185.398 160.014 185.398 160.014L185.285 158.748C182.783 159.707 179.557 158.806 176.976 158.23Z" fill="#DB6767"/>
<path d="M181.87 155.611C181.075 154.932 179.663 152.952 178.869 153.543C178.251 154.43 178.839 155.597 179.546 156.078C178.898 156.321 176.379 154.46 175.725 154.017C175.34 153.755 174.803 153.701 174.243 153.826C173.715 156.007 174.582 157.888 176.978 158.232C179.56 158.808 182.786 159.709 185.29 158.75L185.049 156.025C185.049 156.026 182.665 156.291 181.87 155.611Z" fill="#FC9590"/>
<path d="M212.796 143.226C214.138 141.11 214.903 138.8 215.286 136.684C216.733 130.551 217.232 124.146 214.189 118.493C211.669 116.974 208.87 116.261 208.87 116.261L208.362 132.28C208.362 132.28 208.139 139.471 206.839 142.196C205.54 144.919 201.541 149.242 198.496 150.616C195.451 151.99 184.723 155.593 184.723 155.593C184.723 155.593 184.147 157.589 184.272 159.099C185.884 158.759 187.12 157.785 188.662 157.269C197.664 154.191 207.817 152.075 212.796 143.226Z" fill="#FFDE70"/>
<path d="M215.048 119.056C214.769 118.858 214.479 118.671 214.187 118.494C217.23 124.147 216.729 130.551 215.284 136.686C214.901 138.801 214.134 141.111 212.794 143.227C207.815 152.076 197.662 154.192 188.66 157.27C187.12 157.786 185.884 158.761 184.27 159.1C184.313 159.633 184.445 160.106 184.721 160.408C191.74 160.901 208.071 156.226 211.361 152.912C214.651 149.597 220.814 140.02 220.837 133.691C220.861 126.844 217.74 120.961 215.048 119.056Z" fill="#FFB114"/>
<path d="M200.501 119.07C200.501 119.07 199.029 120.414 199.971 121.537C200.914 122.66 200.884 126.355 200.678 127.241C201.09 128.483 201.531 128.276 201.531 128.276C201.531 128.276 202.502 125.587 204.502 125.025C206.503 124.463 208.828 122.809 209.299 121.922C209.77 121.036 209.005 118.583 209.005 118.583L202.589 118.081L200.501 119.07Z" fill="#F2F4F8"/>
<path d="M204.815 119.169C204.815 119.169 203.932 120.339 200.444 119.896C196.957 119.453 196.18 112.08 196.18 112.08C196.18 112.08 206.005 108.592 207.419 110.764C208.831 112.936 208.523 119.453 208.523 119.453C208.523 119.453 205.472 121.256 203.886 121.24C202.299 121.226 201.423 119.983 201.423 119.983" fill="#FC9590"/>
<path d="M145.184 175.159C140.654 171.484 134.541 174.652 130.59 178.005C130.957 178.758 131.655 179.81 132.814 180.271C134.757 178.897 136.742 178.011 137.869 177.788C138.994 177.566 140.364 178.408 141.247 177.7C142.129 176.99 141.864 177.124 140.276 176.059C142.852 177.304 145.152 177.009 146.237 176.497C145.941 176.001 145.609 175.54 145.184 175.159Z" fill="#FC9590"/>
<path d="M146.896 175.884C146.896 175.218 144.733 173.046 142.968 172.382C141.203 171.716 141.423 171.762 138.862 172.382C136.302 173.002 130.254 177.169 130.254 177.169C130.254 177.169 130.356 177.526 130.59 178.006C134.541 174.653 140.654 171.485 145.183 175.16C145.609 175.539 145.941 176.002 146.235 176.5C146.657 176.302 146.896 176.071 146.896 175.884Z" fill="#DB6767"/>
<path d="M116.259 196.707C117.217 194.014 118.748 191.513 120.473 189.01C121.24 188.048 122.006 187.471 122.58 186.702C125.233 182.971 128.377 180.223 131.106 176.945C130.397 176.645 129.81 176.594 129.81 176.594C129.81 176.594 107.075 194.653 105.442 209.96C103.808 225.268 106.987 227.098 114.49 231.253C114.49 231.253 127.575 234.522 132.101 230.776C134.481 228.551 134.986 227.099 134.986 227.099L130.754 223.977C127.726 223.792 124.614 223.746 121.813 221.911C113.194 216.138 113.386 205.558 116.259 196.707Z" fill="#FFB114"/>
<path d="M118.064 197.694C121.33 190.068 130.424 183.774 133.514 180.583C133.461 178.386 132.149 177.392 131.101 176.945C128.372 180.223 125.229 182.971 122.575 186.702C122 187.472 121.234 188.05 120.469 189.011C118.746 191.511 117.213 194.012 116.254 196.707C113.381 205.556 113.19 216.138 121.809 221.909C124.611 223.744 127.722 223.79 130.75 223.976L119.28 215.515C117.411 212.057 114.797 205.32 118.064 197.694Z" fill="#FFDE70"/>
<path d="M141.734 187.858C143.579 188.916 144.788 190.613 145.988 192.381C146.373 191.684 146.656 190.928 146.496 190.394C146.496 190.394 141.935 183.864 139.403 183.39C136.873 182.917 134.96 183.745 134.488 185.458C134.48 185.896 134.821 186.296 135.334 186.651C137.594 186.439 139.726 186.772 141.734 187.858Z" fill="#FC9590"/>
<path d="M141.732 187.859C139.724 186.773 137.59 186.439 135.332 186.653C136.514 187.469 138.617 188.059 139.519 188.387C140.813 188.86 139.784 189.185 139.195 189.51C138.606 189.835 139.872 190.309 142.05 191.46C144.229 192.613 144.728 194.208 144.728 194.208C144.728 194.208 145.453 193.35 145.985 192.382C144.788 190.614 143.577 188.919 141.732 187.859Z" fill="#DB6767"/>
<path d="M151.88 204.642C151.173 197.225 146.54 189.154 146.54 189.154C146.435 189.052 146.205 189.112 145.913 189.289C145.925 189.324 145.936 189.361 145.948 189.396C149.779 199.786 156.1 213.636 145.756 221.91C141.668 225.301 136.098 226.869 130.572 226.311L129.191 231.254C129.191 231.254 145.892 229.158 150.412 222.359C153.623 217.529 152.585 212.058 151.88 204.642Z" fill="#FFB114"/>
<path d="M145.755 221.911C156.099 213.639 149.778 199.786 145.946 189.397C145.934 189.361 145.924 189.324 145.911 189.289C144.844 189.935 142.938 192.145 143.109 193.748C144.109 195.597 145.874 201.36 145.257 208.039C144.64 214.718 142.697 217.141 141.05 218.5C139.402 219.86 132.751 218.5 132.751 218.5L130.57 226.31C136.097 226.871 141.667 225.303 145.755 221.911Z" fill="#FFDE70"/>
<path d="M63.4141 156.158C63.4141 156.158 63.4141 153.941 64.0312 153.675C64.6484 153.408 69.3289 153.055 69.8142 156.158C68.4902 158.107 68.4902 158.107 68.4902 158.107L63.4141 156.158Z" fill="#F2F4F8" stroke="#1A1A1A" stroke-width="0.184356" stroke-miterlimit="10" stroke-linecap="round" stroke-linejoin="round"/>
<path d="M89.6309 162.081C89.9227 159.741 90.2111 156.845 89.0717 154.577L86.9495 155.81C86.9495 155.81 87.1183 157.002 86.9846 159.193C86.8879 160.793 86.9811 162.339 87.3644 163.384C88.553 163.344 89.5324 163.179 89.6309 162.081Z" fill="#FC9590"/>
<path d="M90.2543 153.89L89.0727 154.577C90.2121 156.846 89.922 159.74 89.6319 162.08C89.5316 163.181 88.554 163.345 87.3672 163.384C87.5079 163.769 87.689 164.09 87.914 164.316C88.7527 165.158 92.417 162.854 93.4755 161.257C94.5375 159.661 90.2543 153.89 90.2543 153.89Z" fill="#DB6767"/>
<path d="M53.6233 164.195C55.3465 157.654 60.136 153.038 62.6258 146.881C63.0091 146.111 63.584 145.151 63.9673 144.188C63.9902 144.14 64.0148 144.095 64.0377 144.047C60.5334 147.1 57.1997 153.301 53.706 158.597C49.203 165.424 48.1445 172.25 48.1445 176.594C48.1445 180.939 52.9112 187.588 52.9112 187.588L55.3465 181.565C53.1152 176.184 52.0092 170.463 53.6233 164.195Z" fill="#D9D9D9"/>
<path d="M83.9877 146.716C79.221 142.284 71.8045 141.131 67.124 142.286C66.0743 142.543 65.0492 143.165 64.0364 144.048C64.0136 144.096 63.989 144.14 63.9661 144.189C63.5828 145.152 63.0078 146.112 62.6245 146.882C60.1348 153.039 55.3452 157.657 53.6221 164.196C52.008 170.464 53.114 176.187 55.3452 181.567L63.4158 161.613C63.4158 161.613 70.7443 150.974 73.4362 149.733C76.1281 148.491 81.4259 151.506 86.3701 157.268C88.0476 157.623 89.725 156.558 91.2265 153.89C91.2283 152.993 88.7561 151.151 83.9877 146.716Z" fill="#F2F4F8"/>
<path d="M86.0001 143.419C85.8366 143.445 85.724 143.514 85.6484 143.611C86.4397 144.595 87.7408 145.745 88.6727 146.319C89.2459 146.939 89.2459 146.939 89.2459 146.939C89.2459 146.939 86.8617 145.653 86.4643 145.964C86.0669 146.275 87.1711 148.224 88.4072 148.756C89.6433 149.287 91.4086 150.928 91.6741 152.302C91.9396 153.676 92.0257 154.817 92.0257 154.817L94.7933 154.564C94.5752 149.383 92.1928 142.137 86.0001 143.419Z" fill="#FC9590"/>
<path d="M91.4476 143.746C89.5944 141.865 84.782 141.441 84.9578 142.416C85.0141 142.727 85.2726 143.149 85.6418 143.61C85.7192 143.513 85.8299 143.446 85.9934 143.418C92.1879 142.137 94.5686 149.383 94.7884 154.563L95.7748 154.473C95.7748 154.473 94.8464 147.07 91.4476 143.746Z" fill="#DB6767"/>
<path d="M97.5862 162.897C97.4104 159.528 96.8354 154.696 96.2622 153.889C95.7594 153.182 94.3088 152.7 92.4433 153.813C93.8569 160.586 93.9132 168.017 89.4454 173.815C84.4659 179.778 75.6534 179.778 71.2489 172.852C71.1276 172.644 71.0238 172.435 70.9324 172.223C70.2238 171.51 69.8212 171.01 69.8212 171.01L65.1758 184.2C68.5869 187.729 72.1439 189.615 76.5765 188.169C82.2716 189.099 88.8493 184.84 93.2626 179.741C97.6741 174.645 97.7621 166.265 97.5862 162.897Z" fill="#F2F4F8"/>
<path d="M89.4427 173.815C93.9105 168.017 93.8542 160.586 92.4405 153.813C92.1768 153.971 91.9043 154.16 91.6247 154.386C92.11 155.212 91.7566 165.158 91.2273 167.95C90.6981 170.742 85.1349 177.792 79.6982 177.16C75.8933 176.718 72.579 173.886 70.9297 172.224C71.0211 172.434 71.1266 172.644 71.2462 172.853C75.6524 179.779 84.4632 179.779 89.4427 173.815Z" fill="#D9D9D9"/>
<path d="M95.9937 93.2561C95.9937 93.2561 98.4184 96.8022 98.8844 99.1068C99.3503 101.411 102.705 102.92 104.734 102.741C106.765 102.565 108.618 102.681 110.032 102.755C111.444 102.83 114.403 98.7077 115.152 98.3527C115.903 97.9978 117.271 94.6741 116.432 91.5254C115.593 88.3784 112.724 84.6539 111.312 83.7674C109.9 82.8808 107.648 81.5069 104.822 82.57C101.997 83.6331 101.202 85.4521 100.407 86.1161C99.6123 86.7819 96.5669 88.2442 96.2575 90.0614C95.948 91.8786 95.6579 92.7439 95.9937 93.2561Z" fill="#102140"/>
<path d="M151.442 77.6502C151.442 77.6502 149.941 82.0616 152.678 82.6038C155.416 83.1477 156.74 84.2779 160.314 83.047C163.316 83.9 164.905 79.9989 166.229 79.7782C167.553 79.5557 171.571 82.3477 173.071 82.8369C174.572 83.3261 179.207 83.6563 180.002 81.5848C180.797 79.5115 179.339 78.4925 177.795 76.4087C176.25 74.3248 175.545 73.1274 173.602 72.5076C173.073 69.9804 172.144 68.3857 170.644 68.3398C168.216 66.0794 166.407 64.3946 163.669 64.0396C160.358 62.09 158.593 62.2666 157.269 63.3297C154.312 64.5712 155.119 69.3729 155.266 71.0506C155.414 72.7283 151.53 76.4722 151.442 77.6502Z" fill="#102140"/>
<path d="M198.497 103.362C198.497 103.362 191.963 108.741 194.906 111.695C197.85 114.65 200.498 115.429 204.735 112.824C204.735 112.824 203.617 115.66 205.324 116.81C207.032 117.959 207.854 118.256 208.268 118.906C209.268 119.556 212.152 119.083 213.212 116.483C214.272 113.882 215.508 108.149 212.034 105.43C208.561 102.712 202.499 100.229 198.497 103.362Z" fill="#102140"/>
<path d="M122.398 223.154C122.398 223.154 120.279 222.402 117.631 223.052C114.983 223.702 113.158 214.481 115.748 212.414C118.338 210.346 125.283 202.07 130.227 205.44C131.875 206.621 131.875 206.621 131.875 206.621C131.875 206.621 135.172 206.326 135.877 208.926C136.582 211.525 139.291 212.708 135.877 218.324C133.111 222.699 134.934 224.293 133.051 225.477C131.168 226.66 125.046 225.561 122.398 223.154Z" fill="#102140"/>
<path d="M78.4278 153.889C78.4278 153.889 79.7958 160.681 77.9425 164.005C76.0893 167.33 73.3956 166.887 72.9543 166.664C72.513 166.442 75.0291 152.833 75.0291 152.833L78.4278 153.889Z" fill="#FC9590"/>
<path d="M70.3027 167.418L72.2755 171.012C72.2755 171.012 76.571 164.794 76.571 160.056C76.571 155.317 76.571 155.317 76.571 155.317L68.9805 155.81" fill="#0C182E"/>
<path d="M62.9727 155.316C62.9727 155.316 64.0329 150.972 66.9007 149.022C69.7702 147.073 72.9034 145.209 76.6117 146.718C80.3199 148.226 79.3933 158.642 76.3462 161.612" fill="#102140"/>
<path d="M64.7071 156.077C64.7071 156.077 64.0248 154.019 65.7989 154.329C67.5748 154.638 70.7837 156.248 70.8505 157.174C70.9173 158.099 67.7137 158.442 67.7137 158.442L64.7071 156.077Z" fill="#FFDE70"/>
<path d="M64.031 154.773C64.031 154.773 70.4277 154.96 71.2013 161.609C71.9767 168.258 73.1636 171.982 71.2013 175.352C69.858 180.495 70.2993 183.154 69.327 186.345C68.3564 189.536 66.5014 194.324 61.3813 196.364C56.2612 200.62 56.2612 200.62 56.2612 200.62C56.2612 200.62 50.8756 187.885 50.8756 183.258C50.8756 178.631 50.7876 175.875 52.8185 172.156C54.8493 168.436 56.7025 164.89 58.5575 160.811C60.4107 156.733 62.6349 154.596 64.031 154.773Z" fill="#102140"/>
<path d="M229.36 214.434C232.335 214.434 234.747 212.012 234.747 209.023C234.747 206.035 232.335 203.612 229.36 203.612C226.385 203.612 223.973 206.035 223.973 209.023C223.973 212.012 226.385 214.434 229.36 214.434Z" fill="#6F74FC"/>
<path d="M13.4579 134.949C20.8905 134.949 26.9158 128.946 26.9158 121.54C26.9158 114.134 20.8905 108.131 13.4579 108.131C6.02531 108.131 0 114.134 0 121.54C0 128.946 6.02531 134.949 13.4579 134.949Z" fill="#6F74FC"/>
<defs>
<linearGradient id="paint0_linear_196_1134" x1="21.593" y1="124.15" x2="242.611" y2="124.15" gradientUnits="userSpaceOnUse">
<stop stop-color="#74A6FE"/>
<stop offset="1" stop-color="#A4A7FF"/>
</linearGradient>
<linearGradient id="paint1_linear_196_1134" x1="4.43757" y1="116.917" x2="248.163" y2="116.917" gradientUnits="userSpaceOnUse">
<stop stop-color="#6F74FC"/>
<stop offset="1" stop-color="#75B6FF"/>
</linearGradient>
</defs>
</svg>
