<svg width="371" height="354" viewBox="0 0 371 354" fill="none" xmlns="http://www.w3.org/2000/svg">
<path d="M350.022 254.284L159.474 144.606C156.732 143.015 153.637 142.132 150.468 142.035C147.299 141.939 144.156 142.633 141.323 144.054L11.4759 219.225C12.8814 211.447 12.6772 205.026 5.55358 212.191C-8.02092 225.922 7.55973 233.436 7.55973 233.436L212.331 351.455C215.026 353.021 218.068 353.893 221.185 353.992C224.301 354.09 227.393 353.412 230.182 352.019C230.182 352.019 365.927 273.307 366.671 272.467C369.927 269.299 373.807 264.186 368.041 254.788C364.894 249.603 357.746 250.743 350.022 254.284Z" fill="url(#paint0_linear_196_1397)"/>
<path d="M365.122 251.834L159.582 133.527C156.841 131.936 153.746 131.052 150.577 130.956C147.408 130.86 144.264 131.554 141.431 132.975L8.11255 210.21C6.88706 210.823 5.85028 211.756 5.11187 212.91C4.37347 214.064 3.9609 215.395 3.91782 216.764C3.87474 218.133 4.20275 219.488 4.86714 220.686C5.53153 221.884 6.5076 222.88 7.6921 223.569L212.451 341.54C215.145 343.11 218.188 343.983 221.305 344.082C224.422 344.18 227.514 343.5 230.302 342.104L363.644 264.953C370.155 261.064 369.783 254.955 365.122 251.834Z" fill="#F2F3FF"/>
<path d="M355.909 252.302L160.832 140.008C160.384 139.748 159.879 139.603 159.361 139.587C158.843 139.57 158.329 139.682 157.865 139.912L16.6304 221.048C16.4495 221.144 16.2981 221.287 16.1926 221.463C16.087 221.638 16.0313 221.839 16.0312 222.044C16.0313 222.249 16.087 222.45 16.1926 222.625C16.2981 222.8 16.4495 222.944 16.6304 223.04L211.13 334.446C211.622 334.732 212.176 334.891 212.744 334.91C213.313 334.929 213.876 334.807 214.386 334.554L355.813 254.138C355.983 254.058 356.129 253.932 356.234 253.776C356.339 253.619 356.4 253.437 356.41 253.249C356.42 253.06 356.378 252.873 356.29 252.706C356.202 252.54 356.07 252.4 355.909 252.302Z" fill="url(#paint1_linear_196_1397)"/>
<path d="M356.028 252.242L160.952 139.9C160.503 139.642 159.997 139.499 159.479 139.485C158.961 139.47 158.448 139.584 157.985 139.816L16.7497 220.952C16.5916 221.031 16.4542 221.145 16.3486 221.287C16.243 221.429 16.1722 221.593 16.1418 221.767C16.1114 221.941 16.1223 222.12 16.1737 222.289C16.225 222.458 16.3153 222.612 16.4374 222.74C16.5336 222.634 16.6474 222.544 16.7737 222.476L158.009 141.34C158.473 141.11 158.987 140.998 159.504 141.015C160.022 141.032 160.528 141.176 160.976 141.436L356.052 253.778L356.208 253.898C356.328 253.789 356.421 253.653 356.478 253.501C356.536 253.349 356.556 253.186 356.539 253.024C356.521 252.863 356.466 252.708 356.377 252.572C356.288 252.436 356.169 252.323 356.028 252.242Z" fill="#010080"/>
<path d="M299.564 293.434C299.291 293.282 298.985 293.196 298.672 293.183C298.359 293.171 298.047 293.232 297.762 293.362H297.666C297.21 293.626 297.258 294.095 297.798 294.407C298.073 294.561 298.38 294.649 298.695 294.664C299.01 294.679 299.325 294.619 299.612 294.491L299.697 294.431C300.165 294.215 300.105 293.746 299.564 293.434Z" fill="#010080"/>
<path d="M296.856 294.994C296.582 294.839 296.274 294.751 295.959 294.737C295.644 294.722 295.33 294.781 295.042 294.91L278.921 304.14C278.453 304.404 278.513 304.872 279.053 305.184C279.326 305.338 279.631 305.427 279.944 305.441C280.257 305.456 280.569 305.396 280.855 305.268L296.989 296.038C297.445 295.774 297.397 295.306 296.856 294.994Z" fill="#010080"/>
<path d="M88.6867 171.214C87.5161 170.57 86.2107 170.21 84.8754 170.162C83.5402 170.114 82.2123 170.38 80.9985 170.938L71.0759 176.555C69.1058 177.755 69.37 179.687 71.6525 180.996C72.824 181.636 74.1291 181.995 75.4639 182.043C76.7986 182.091 78.1262 181.827 79.3407 181.272L89.2633 175.655C91.2334 174.466 91.0052 172.486 88.6867 171.214Z" fill="url(#paint2_linear_196_1397)"/>
<path d="M88.6835 171.214C87.5129 170.57 86.2075 170.21 84.8722 170.162C83.5369 170.114 82.209 170.38 80.9952 170.938L71.0726 176.555C70.7795 176.67 70.5168 176.852 70.3045 177.084C70.0923 177.317 69.9361 177.595 69.848 177.898C69.7599 178.2 69.7422 178.518 69.7962 178.828C69.8502 179.139 69.9745 179.432 70.1596 179.687C70.3493 179.056 70.7812 178.525 71.3609 178.211L81.2835 172.594C82.4987 172.033 83.8289 171.766 85.1666 171.814C86.5043 171.862 87.812 172.223 88.9838 172.87C89.5738 173.187 90.0833 173.634 90.4734 174.178C90.7857 173.134 90.161 172.018 88.6835 171.214Z" fill="url(#paint3_linear_196_1397)"/>
<path d="M183.433 327.988L175.084 323.187C174.966 323.121 174.836 323.079 174.702 323.064C174.568 323.05 174.432 323.063 174.303 323.103C173.936 323.278 173.651 323.588 173.507 323.969C173.364 324.349 173.374 324.77 173.534 325.144C173.608 325.4 173.734 325.639 173.903 325.845C174.073 326.051 174.282 326.221 174.519 326.344V326.344L182.712 331.145H182.784C183.021 331.267 183.295 331.297 183.553 331.229C183.92 331.054 184.205 330.744 184.349 330.364C184.492 329.983 184.482 329.562 184.322 329.189C184.261 328.94 184.151 328.705 183.998 328.499C183.845 328.293 183.653 328.119 183.433 327.988V327.988Z" fill="url(#paint4_linear_196_1397)"/>
<path d="M182.593 328.589L174.244 323.788C174.126 323.722 173.996 323.68 173.862 323.666C173.728 323.651 173.592 323.664 173.463 323.704C173.096 323.879 172.811 324.189 172.667 324.569C172.524 324.95 172.534 325.371 172.694 325.744C172.769 326.001 172.894 326.239 173.063 326.446C173.233 326.652 173.442 326.822 173.679 326.945V326.945L181.872 331.746H181.944C182.181 331.867 182.455 331.897 182.713 331.83C183.08 331.655 183.366 331.344 183.509 330.964C183.652 330.584 183.643 330.163 183.482 329.789C183.421 329.54 183.311 329.306 183.158 329.1C183.005 328.894 182.813 328.72 182.593 328.589V328.589Z" fill="white"/>
<path d="M170.55 320.668L162.201 315.867C161.957 315.739 161.674 315.709 161.408 315.783C161.041 315.958 160.756 316.268 160.613 316.648C160.469 317.029 160.479 317.45 160.64 317.823C160.718 318.079 160.846 318.318 161.017 318.524C161.189 318.73 161.399 318.9 161.637 319.023V319.023L169.817 323.824H169.89C170.125 323.937 170.393 323.963 170.646 323.896C171.016 323.724 171.303 323.414 171.447 323.033C171.59 322.651 171.579 322.229 171.415 321.856C171.292 321.363 170.982 320.937 170.55 320.668V320.668Z" fill="url(#paint5_linear_196_1397)"/>
<path d="M169.723 321.245L161.314 316.444C161.075 316.316 160.795 316.286 160.533 316.36C160.166 316.535 159.881 316.845 159.738 317.226C159.594 317.606 159.604 318.027 159.765 318.401C159.841 318.658 159.969 318.897 160.14 319.103C160.311 319.309 160.523 319.479 160.762 319.601L168.942 324.402H169.015C169.25 324.515 169.518 324.54 169.771 324.474C170.141 324.301 170.428 323.991 170.572 323.61C170.715 323.229 170.704 322.807 170.54 322.434C170.429 321.948 170.137 321.523 169.723 321.245V321.245Z" fill="white"/>
<path d="M190.025 331.782L187.995 330.653C187.748 330.536 187.468 330.506 187.202 330.569C186.837 330.747 186.553 331.057 186.41 331.436C186.267 331.816 186.275 332.236 186.433 332.61C186.508 332.868 186.635 333.107 186.807 333.314C186.978 333.52 187.19 333.689 187.43 333.81L189.304 334.854H189.376C189.613 334.976 189.887 335.006 190.145 334.938C190.51 334.761 190.793 334.451 190.936 334.071C191.08 333.692 191.071 333.272 190.914 332.898C190.771 332.426 190.453 332.027 190.025 331.782V331.782Z" fill="url(#paint6_linear_196_1397)"/>
<path d="M189.193 332.382L187.151 331.254C186.909 331.131 186.632 331.101 186.37 331.17C186.005 331.347 185.721 331.657 185.578 332.037C185.435 332.416 185.443 332.836 185.601 333.21C185.674 333.469 185.8 333.709 185.972 333.916C186.144 334.123 186.357 334.291 186.598 334.41V334.41L188.46 335.455H188.532C188.769 335.576 189.043 335.606 189.301 335.539C189.666 335.362 189.949 335.051 190.092 334.672C190.236 334.292 190.227 333.872 190.07 333.498C189.93 333.029 189.616 332.63 189.193 332.382V332.382Z" fill="white"/>
<path d="M242.365 337.363C241.616 337.798 240.981 338.403 240.509 339.128C240.037 339.854 239.743 340.68 239.65 341.54C239.493 343.22 240.442 344.096 241.788 343.484C242.535 343.05 243.169 342.448 243.641 341.724C244.112 341.001 244.408 340.177 244.503 339.319C244.683 337.627 243.734 336.751 242.365 337.363Z" fill="#010080"/>
<path d="M242.153 336.847C241.313 337.317 240.598 337.983 240.069 338.787C239.54 339.591 239.212 340.511 239.114 341.468C239.036 341.908 239.074 342.36 239.223 342.781C239.373 343.201 239.629 343.576 239.967 343.868C240.225 344.049 240.528 344.157 240.844 344.18C241.258 344.205 241.672 344.123 242.045 343.94C242.885 343.47 243.6 342.805 244.129 342C244.658 341.196 244.985 340.277 245.084 339.319C245.16 338.88 245.121 338.428 244.971 338.008C244.822 337.588 244.567 337.213 244.231 336.919C243.923 336.721 243.568 336.61 243.202 336.597C242.836 336.584 242.474 336.671 242.153 336.847V336.847ZM243.967 339.247C243.876 340.011 243.613 340.744 243.197 341.391C242.78 342.037 242.222 342.581 241.564 342.98C241.415 343.06 241.248 343.102 241.078 343.102C240.908 343.102 240.741 343.06 240.591 342.98C240.415 342.792 240.288 342.563 240.22 342.314C240.153 342.065 240.149 341.803 240.207 341.552C240.296 340.789 240.559 340.057 240.975 339.412C241.392 338.767 241.951 338.226 242.609 337.831C242.81 337.729 243.033 337.679 243.258 337.687C243.375 337.69 243.488 337.727 243.582 337.795C243.763 337.986 243.892 338.219 243.96 338.472C244.027 338.726 244.029 338.993 243.967 339.247V339.247Z" fill="#DEDCE9"/>
<path d="M92.2344 349.281L119.371 333.63V302.315L92.2344 317.979V349.281Z" fill="url(#paint7_linear_196_1397)"/>
<path d="M65.1016 302.315L92.2386 317.978L119.376 302.315L92.2386 286.664L65.1016 302.315Z" fill="url(#paint8_linear_196_1397)"/>
<path d="M79.5195 302.317L92.2411 309.662L104.963 302.317L92.2411 294.983L79.5195 302.317Z" fill="#030653"/>
<path d="M92.2344 309.662L104.956 302.317L92.2344 294.983V309.662Z" fill="url(#paint9_linear_196_1397)"/>
<path d="M65.1016 333.63L92.2386 349.281V317.979L65.1016 302.315V333.63Z" fill="#005DFF"/>
<path d="M92.2344 309.662L95.8022 307.597V303.48L92.2344 305.545V309.662Z" fill="url(#paint10_linear_196_1397)"/>
<path d="M88.668 303.481L92.2358 305.546L95.8036 303.481L92.2358 301.429L88.668 303.481Z" fill="url(#paint11_linear_196_1397)"/>
<path d="M88.668 307.597L92.2358 309.662V305.545L88.668 303.48V307.597Z" fill="#005DFF"/>
<path d="M244.275 202.421C229.571 194.655 211.131 190.118 191.911 188.81C184.368 188.286 176.799 188.266 169.254 188.75C149.842 189.95 131.03 194.547 116.122 202.421C112.644 204.243 109.314 206.333 106.163 208.674C105.815 208.926 105.49 209.178 105.154 209.442C94.7869 217.508 89.6093 226.894 89.6093 236.279C89.6093 245.665 94.7869 255.039 105.142 263.105L106.067 263.813C108.072 265.3 110.153 266.682 112.302 267.954L112.842 268.29C113.899 268.914 114.992 269.49 116.122 270.114C151.499 288.814 208.849 288.814 244.239 270.114C245.44 269.502 246.557 268.914 247.65 268.218C248.743 267.522 249.909 266.849 250.978 266.141C264.192 257.428 270.763 246.853 270.763 236.279C270.799 224.025 261.957 211.771 244.275 202.421Z" fill="#010080"/>
<g opacity="0.4">
<path opacity="0.4" d="M244.274 198.317C208.884 179.629 151.535 179.629 116.157 198.317C98.4863 207.654 89.6328 219.921 89.6328 232.163V236.28C89.6328 224.026 98.4863 211.771 116.157 202.421C151.535 183.734 208.884 183.734 244.274 202.421C261.957 211.771 270.798 224.026 270.798 236.28V232.163C270.798 219.921 261.957 207.654 244.274 198.317Z" fill="white"/>
</g>
<g style="mix-blend-mode:screen" opacity="0.4">
<path d="M240.921 259.035C240.272 259.033 239.625 259.093 238.987 259.215C237.786 256.903 236.024 254.928 233.863 253.471C231.701 252.014 229.209 251.121 226.614 250.873C224.734 248.518 222.386 246.576 219.719 245.172C220.535 243.128 220.707 240.883 220.211 238.739C219.738 236.642 218.661 234.73 217.114 233.237C215.566 231.744 213.616 230.736 211.502 230.337C209.259 229.912 206.94 230.202 204.871 231.165C204.462 228.486 203.333 225.968 201.603 223.88C195.495 216.698 192.095 207.607 191.993 198.183V139.791H169.289V191.293C169.289 206.008 163.138 219.847 152.975 230.505C151.325 232.013 150.319 234.097 150.164 236.326C146.261 236.33 142.512 237.847 139.706 240.559C136.901 243.27 135.258 246.963 135.124 250.861C132.299 251.096 129.591 252.094 127.29 253.75C124.99 255.406 123.184 257.656 122.066 260.259C119.818 260.273 117.639 261.038 115.876 262.432C114.112 263.826 112.867 265.769 112.336 267.952L112.877 268.288C113.934 268.912 115.027 269.489 116.156 270.113C151.534 288.812 208.883 288.812 244.273 270.113C245.474 269.501 246.591 268.912 247.685 268.216C248.778 267.52 249.943 266.848 251.012 266.14C250.27 264.059 248.902 262.26 247.095 260.987C245.288 259.715 243.132 259.033 240.921 259.035Z" fill="white"/>
</g>
<path d="M211.439 130.646C211.439 130.646 204.977 136.648 204.977 140.885V152.011C204.973 153.699 205.631 155.321 206.81 156.53C207.989 157.739 209.594 158.439 211.283 158.48H211.572C213.256 158.439 214.857 157.738 216.028 156.527C217.199 155.317 217.847 153.694 217.83 152.011V141.209C217.83 136 211.452 130.658 211.439 130.646Z" fill="url(#paint12_linear_196_1397)"/>
<path d="M149.061 130.646C149.061 130.646 142.598 136.648 142.598 140.885V152.011C142.594 153.699 143.252 155.321 144.431 156.53C145.61 157.739 147.215 158.439 148.904 158.48H149.193C150.877 158.439 152.478 157.738 153.649 156.527C154.82 155.317 155.468 153.694 155.451 152.011V141.209C155.451 136 149.073 130.658 149.061 130.646Z" fill="url(#paint13_linear_196_1397)"/>
<path d="M226.979 186.53C226.906 186.488 226.823 186.467 226.738 186.47H226.666C226.603 186.454 226.537 186.454 226.474 186.47V186.47C225.657 186.926 224.9 189.158 224.852 189.302L224.072 193.683L222.87 200.429L221.945 205.626L224.804 208.362L228.324 192.903C228.072 188.534 227.555 186.818 226.979 186.53Z" fill="#FFE494"/>
<path d="M226.439 186.552L209.092 158.286L204.059 161.203L224.036 193.777L224.817 189.396C224.817 189.252 225.622 186.996 226.439 186.564V186.552Z" fill="url(#paint14_linear_196_1397)"/>
<path d="M199.977 180.732L222.849 200.512L224.05 193.767L204.073 161.204L199.977 180.732Z" fill="#010080"/>
<path d="M232.009 183.612C231.928 183.563 231.834 183.536 231.739 183.536C231.643 183.536 231.55 183.563 231.469 183.612L226.447 186.529C226.51 186.513 226.576 186.513 226.639 186.529H226.747C226.832 186.526 226.915 186.547 226.988 186.589C227.564 186.925 228.081 188.593 228.297 193.046L224.777 208.421L229.811 205.505L233.331 190.046C233.114 185.617 232.586 183.936 232.009 183.612Z" fill="#FF3158"/>
<path d="M133.977 186.552C133.91 186.535 133.84 186.535 133.773 186.552C133.688 186.547 133.605 186.568 133.532 186.612C132.956 186.948 132.427 188.616 132.211 193.069L135.659 208.42L138.518 205.684L135.599 189.361C135.551 189.217 134.806 187.008 133.977 186.552Z" fill="#FF3158"/>
<path d="M133.996 186.54C134.825 186.996 135.57 189.229 135.618 189.373L136.399 193.754L156.376 161.179L151.343 158.263L133.996 186.54Z" fill="url(#paint15_linear_196_1397)"/>
<path d="M136.395 193.767L137.596 200.512L160.468 180.732L156.372 161.204L136.395 193.767Z" fill="#010080"/>
<path d="M133.462 186.529C133.535 186.485 133.618 186.464 133.703 186.469C133.77 186.453 133.84 186.453 133.907 186.469V186.469L128.873 183.552C128.794 183.502 128.703 183.476 128.609 183.476C128.516 183.476 128.424 183.502 128.345 183.552C127.768 183.876 127.24 185.557 127.023 190.01L130.639 205.529L135.673 208.445L132.153 192.986C132.357 188.533 132.886 186.817 133.462 186.529Z" fill="#FFE494"/>
<path d="M180.335 199.263C193.237 199.263 201.093 193.358 201.237 188.941H159.48C159.589 193.358 167.445 199.263 180.335 199.263Z" fill="url(#paint16_linear_196_1397)"/>
<path d="M149.02 150.138C149.02 167.445 157.789 184.945 159.122 187.741C159.117 187.765 159.117 187.789 159.122 187.813C159.122 192.074 167.135 197.859 180.337 197.859C193.539 197.859 201.516 192.074 201.516 187.813C201.516 187.813 210.97 167.589 211.366 152.058C209.084 152.934 149.02 150.138 149.02 150.138Z" fill="url(#paint17_linear_196_1397)"/>
<path d="M149.02 64.0449V152.406C154.329 157.099 167.039 161.192 180.649 161.192C193.587 161.192 206.681 157.795 211.402 152.862V66.0133C211.402 33.5108 180.421 0.108254 180.373 0.000232281C180.325 -0.107789 149.02 37.4836 149.02 64.0449Z" fill="url(#paint18_linear_196_1397)"/>
<path d="M180.256 139.42C180.256 139.42 173.793 145.421 173.793 149.658V160.82C173.786 162.507 174.442 164.129 175.618 165.339C176.795 166.548 178.4 167.249 180.088 167.289H180.388C182.073 167.249 183.673 166.547 184.845 165.336C186.016 164.126 186.663 162.504 186.647 160.82V150.018C186.647 144.809 180.256 139.432 180.256 139.42Z" fill="url(#paint19_linear_196_1397)"/>
<path d="M149.02 95.707V111.562C154.329 116.255 167.111 120.36 180.649 120.36C193.587 120.36 206.681 116.951 211.402 112.018V96.1631C206.681 101.096 193.587 104.505 180.649 104.505C167.111 104.505 154.329 100.4 149.02 95.707Z" fill="#010080"/>
<path d="M149.02 119.808V123.336C154.329 128.029 167.111 132.122 180.649 132.122C193.587 132.122 206.681 128.713 211.402 123.792V120.192C206.681 125.125 193.587 128.593 180.649 128.593C167.111 128.593 154.329 124.501 149.02 119.808Z" fill="#010080"/>
<path d="M149.02 69.7686V76.874C154.329 81.5669 167.111 85.6717 180.649 85.6717C193.587 85.6717 206.681 82.263 211.402 77.33V70.2247C206.681 75.1576 193.587 78.5663 180.649 78.5663C167.111 78.5663 154.329 74.4615 149.02 69.7686Z" fill="#010080"/>
<path d="M149.02 94.2295V110.085C154.329 114.778 167.111 118.87 180.649 118.87C193.587 118.87 206.681 115.462 211.402 110.529V94.6856C206.681 99.6066 193.587 103.015 180.649 103.015C167.111 103.015 154.329 98.9224 149.02 94.2295Z" fill="#6F74FC"/>
<path d="M149.02 118.32V121.849C154.329 126.542 167.111 130.647 180.649 130.647C193.587 130.647 206.681 127.238 211.402 122.305V118.776C206.681 123.697 193.587 127.106 180.649 127.106C167.111 127.106 154.329 123.013 149.02 118.32Z" fill="url(#paint20_linear_196_1397)"/>
<path d="M149.02 68.2822V75.3876C154.329 80.0926 167.111 84.1854 180.649 84.1854C193.587 84.1854 206.681 80.7767 211.402 75.7837V68.6783C206.681 73.6113 193.587 77.0199 180.649 77.0199C167.111 77.08 154.329 72.9872 149.02 68.2822Z" fill="#6F74FC"/>
<path opacity="0.4" d="M138.526 224.384C144.232 224.384 148.857 219.763 148.857 214.062C148.857 208.362 144.232 203.74 138.526 203.74C132.821 203.74 128.195 208.362 128.195 214.062C128.195 219.763 132.821 224.384 138.526 224.384Z" fill="white"/>
<path opacity="0.4" d="M125.742 227.985C125.048 227.983 124.369 228.187 123.79 228.57C123.212 228.954 122.76 229.5 122.493 230.141C122.226 230.781 122.155 231.486 122.289 232.166C122.423 232.847 122.756 233.473 123.246 233.964C123.736 234.455 124.361 234.79 125.042 234.927C125.722 235.063 126.428 234.994 127.07 234.729C127.712 234.464 128.26 234.015 128.646 233.438C129.032 232.862 129.238 232.184 129.238 231.49C129.238 230.563 128.87 229.673 128.215 229.016C127.56 228.359 126.671 227.989 125.742 227.985V227.985Z" fill="white"/>
<path opacity="0.4" d="M108.061 225.632C106.902 225.632 105.769 225.975 104.805 226.619C103.841 227.263 103.089 228.177 102.645 229.248C102.202 230.318 102.086 231.495 102.312 232.632C102.538 233.768 103.096 234.811 103.916 235.631C104.736 236.45 105.781 237.008 106.918 237.234C108.055 237.46 109.234 237.344 110.305 236.9C111.376 236.457 112.292 235.706 112.936 234.743C113.58 233.78 113.924 232.647 113.924 231.489C113.924 229.936 113.306 228.446 112.207 227.347C111.107 226.249 109.616 225.632 108.061 225.632V225.632Z" fill="white"/>
<path d="M225.99 299.202L193.135 280.25C192.6 280.023 192.008 279.969 191.441 280.094L189.855 281.415L192.09 282.231V306.139C192.106 307.128 192.353 308.098 192.812 308.974C193.271 309.849 193.929 310.605 194.733 311.18L226.134 329.292V332.101L227.756 330.768C228.091 330.539 228.352 330.217 228.507 329.842C228.663 329.467 228.707 329.055 228.633 328.656V304.243C228.619 303.255 228.373 302.283 227.914 301.408C227.454 300.532 226.796 299.776 225.99 299.202Z" fill="#010080"/>
<path d="M224.342 300.557L191.487 281.617C190.021 280.765 188.844 281.617 188.844 283.609V308.022C188.858 309.011 189.104 309.982 189.563 310.858C190.022 311.734 190.681 312.489 191.487 313.063L224.342 332.027C225.795 332.867 226.984 332.027 226.984 330.035V305.622C226.972 304.63 226.727 303.654 226.268 302.774C225.809 301.894 225.149 301.135 224.342 300.557V300.557Z" fill="url(#paint21_linear_196_1397)"/>
<path d="M202.299 304.771C202.069 304.771 201.844 304.704 201.65 304.579C201.205 304.281 200.848 303.869 200.617 303.385C200.387 302.901 200.291 302.364 200.341 301.831C200.437 301.243 200.761 300.895 201.23 300.895C201.456 300.897 201.677 300.964 201.866 301.087C202.314 301.383 202.672 301.795 202.903 302.279C203.134 302.764 203.228 303.301 203.176 303.835C203.08 304.423 202.755 304.771 202.299 304.771V304.771Z" fill="white"/>
<path d="M207.886 308.023C207.655 308.015 207.431 307.944 207.237 307.818C206.793 307.523 206.438 307.112 206.209 306.63C205.981 306.148 205.888 305.613 205.94 305.082C206.024 304.482 206.348 304.134 206.817 304.134C207.046 304.145 207.268 304.21 207.466 304.326C207.911 304.623 208.267 305.036 208.495 305.521C208.724 306.005 208.816 306.542 208.763 307.074C208.667 307.65 208.331 308.023 207.886 308.023Z" fill="white"/>
<path d="M213.449 311.239C213.218 311.23 212.994 311.159 212.8 311.035C212.356 310.74 212 310.329 211.772 309.847C211.543 309.365 211.45 308.83 211.503 308.299C211.587 307.699 211.923 307.351 212.379 307.351C212.608 307.361 212.831 307.427 213.028 307.543C213.473 307.84 213.829 308.253 214.058 308.737C214.286 309.221 214.379 309.759 214.326 310.291C214.241 310.879 213.905 311.239 213.449 311.239V311.239Z" fill="white"/>
<path d="M346.151 177.588L314.088 159.104C313.843 158.934 313.557 158.832 313.259 158.809C312.962 158.786 312.663 158.842 312.395 158.972L310.797 159.884L312.25 214.663C312.264 215.652 312.511 216.623 312.97 217.499C313.429 218.374 314.088 219.13 314.893 219.704L345.802 239.712L347.508 238.728C347.93 238.509 348.278 238.169 348.506 237.753C348.735 237.336 348.835 236.861 348.793 236.387V182.605C348.774 181.621 348.525 180.655 348.066 179.784C347.607 178.913 346.951 178.161 346.151 177.588V177.588Z" fill="#FF3158"/>
<path d="M343.389 177.863L312.816 160.232C310.51 159.032 308.996 160.676 308.996 162.632V216.475C309.011 217.466 309.26 218.44 309.721 219.318C310.182 220.195 310.843 220.953 311.651 221.528L342.884 239.532C343.322 239.825 343.836 239.985 344.363 239.992C344.891 240 345.409 239.854 345.855 239.574C346.301 239.293 346.656 238.889 346.877 238.411C347.098 237.933 347.176 237.4 347.101 236.879V184.789C347.174 183.406 346.866 182.029 346.212 180.809C345.558 179.588 344.581 178.569 343.389 177.863V177.863Z" fill="url(#paint22_linear_196_1397)"/>
<path opacity="0.4" d="M313.458 202.481C312.962 201.954 312.665 201.271 312.617 200.549V165.742C312.62 165.602 312.659 165.466 312.729 165.345C312.8 165.224 312.9 165.123 313.019 165.052C313.139 164.98 313.275 164.939 313.415 164.934C313.555 164.929 313.694 164.959 313.818 165.022L341.556 181.033C342.207 181.412 342.741 181.963 343.097 182.626C343.453 183.289 343.619 184.038 343.574 184.79V218.397C343.572 218.536 343.534 218.673 343.464 218.794C343.393 218.915 343.293 219.016 343.173 219.088C343.052 219.159 342.915 219.198 342.775 219.201C342.635 219.204 342.497 219.171 342.373 219.105L313.458 202.481Z" fill="white"/>
<path d="M317.367 210.414L339.375 223.113V221.529L317.367 208.83V210.414Z" fill="white"/>
<path d="M317.367 217.339L332.732 226.197V224.613L317.367 215.755V217.339Z" fill="white"/>
<path d="M317.367 213.871L330.653 221.541V219.957L317.367 212.287V213.871Z" fill="white"/>
<path d="M332.738 222.741L339.381 226.569V224.985L332.738 221.156V222.741Z" fill="white"/>
<path d="M316.086 197.02L320.062 199.216L320.074 188.21L316.11 186.014L316.086 197.02Z" fill="url(#paint23_linear_196_1397)"/>
<path d="M322.465 200.549L326.429 202.745L326.453 188.042L322.477 185.846L322.465 200.549Z" fill="#010080"/>
<path d="M328.852 204.101L332.828 206.297L332.852 187.538L328.888 185.329L328.852 204.101Z" fill="url(#paint24_linear_196_1397)"/>
<path d="M335.355 207.702L339.32 209.898L339.356 187.43L335.392 185.233L335.355 207.702Z" fill="white"/>
<defs>
<linearGradient id="paint0_linear_196_1397" x1="89.8744" y1="296.839" x2="130.821" y2="155.615" gradientUnits="userSpaceOnUse">
<stop stop-color="#32BBFA"/>
<stop offset="0.34" stop-color="#30BEFA"/>
<stop offset="0.3401" stop-color="#35B8FA"/>
<stop offset="0.6459" stop-color="#934AFD" stop-opacity="0.9548"/>
<stop offset="0.8744" stop-color="#934AFD" stop-opacity="0.9388"/>
<stop offset="1" stop-color="#934AFD" stop-opacity="0.93"/>
</linearGradient>
<linearGradient id="paint1_linear_196_1397" x1="98.488" y1="282.239" x2="136.358" y2="152.194" gradientUnits="userSpaceOnUse">
<stop stop-color="#32BBFA"/>
<stop offset="0.34" stop-color="#30BEFA"/>
<stop offset="0.3401" stop-color="#35B8FA"/>
<stop offset="0.6459" stop-color="#934AFD" stop-opacity="0.9548"/>
<stop offset="0.8744" stop-color="#934AFD" stop-opacity="0.9388"/>
<stop offset="1" stop-color="#934AFD" stop-opacity="0.93"/>
</linearGradient>
<linearGradient id="paint2_linear_196_1397" x1="70.7996" y1="170.722" x2="88.5349" y2="180.865" gradientUnits="userSpaceOnUse">
<stop stop-color="#09008F"/>
<stop offset="0.04" stop-color="#080B9D"/>
<stop offset="0.13" stop-color="#0524BB"/>
<stop offset="0.24" stop-color="#0339D4"/>
<stop offset="0.36" stop-color="#0249E7"/>
<stop offset="0.5" stop-color="#0154F5"/>
<stop offset="0.68" stop-color="#005BFD"/>
<stop offset="1" stop-color="#005DFF"/>
</linearGradient>
<linearGradient id="paint3_linear_196_1397" x1="69.7649" y1="174.922" x2="90.543" y2="174.922" gradientUnits="userSpaceOnUse">
<stop stop-color="#33BAFA"/>
<stop offset="0.1069" stop-color="#60CCFF"/>
<stop offset="0.2058" stop-color="#6DD0FF"/>
<stop offset="0.3016" stop-color="#72D2FF"/>
<stop offset="0.3954" stop-color="#55C8FF"/>
<stop offset="0.4869" stop-color="#37BFFF"/>
<stop offset="0.5405" stop-color="#21B8FF"/>
<stop offset="1" stop-color="#934AFD"/>
</linearGradient>
<linearGradient id="paint4_linear_196_1397" x1="175.516" y1="328.552" x2="189.7" y2="322.626" gradientUnits="userSpaceOnUse">
<stop stop-color="#005DFF"/>
<stop offset="0.13" stop-color="#0341DD"/>
<stop offset="0.26" stop-color="#052AC1"/>
<stop offset="0.41" stop-color="#0717AB"/>
<stop offset="0.57" stop-color="#080A9B"/>
<stop offset="0.75" stop-color="#090292"/>
<stop offset="1" stop-color="#09008F"/>
</linearGradient>
<linearGradient id="paint5_linear_196_1397" x1="2782.77" y1="3566.82" x2="2899.02" y2="3501.43" gradientUnits="userSpaceOnUse">
<stop stop-color="#005DFF"/>
<stop offset="0.13" stop-color="#0341DD"/>
<stop offset="0.26" stop-color="#052AC1"/>
<stop offset="0.41" stop-color="#0717AB"/>
<stop offset="0.57" stop-color="#080A9B"/>
<stop offset="0.75" stop-color="#090292"/>
<stop offset="1" stop-color="#09008F"/>
</linearGradient>
<linearGradient id="paint6_linear_196_1397" x1="1406.31" y1="2137.04" x2="1432.46" y2="2125.43" gradientUnits="userSpaceOnUse">
<stop stop-color="#005DFF"/>
<stop offset="0.13" stop-color="#0341DD"/>
<stop offset="0.26" stop-color="#052AC1"/>
<stop offset="0.41" stop-color="#0717AB"/>
<stop offset="0.57" stop-color="#080A9B"/>
<stop offset="0.75" stop-color="#090292"/>
<stop offset="1" stop-color="#09008F"/>
</linearGradient>
<linearGradient id="paint7_linear_196_1397" x1="3435.24" y1="14894.4" x2="3435.24" y2="13056.7" gradientUnits="userSpaceOnUse">
<stop stop-color="#005DFF"/>
<stop offset="0.19" stop-color="#0852F4"/>
<stop offset="0.53" stop-color="#1C33D8"/>
<stop offset="0.98" stop-color="#3C03AA"/>
<stop offset="1" stop-color="#3E00A7"/>
</linearGradient>
<linearGradient id="paint8_linear_196_1397" x1="65.1016" y1="302.315" x2="119.376" y2="302.315" gradientUnits="userSpaceOnUse">
<stop stop-color="#FEC564"/>
<stop offset="0.32" stop-color="#FEAA62"/>
<stop offset="0.99" stop-color="#FF665E"/>
<stop offset="1" stop-color="#FF655E"/>
</linearGradient>
<linearGradient id="paint9_linear_196_1397" x1="1583.08" y1="4371.17" x2="1583.08" y2="4191.65" gradientUnits="userSpaceOnUse">
<stop stop-color="#005DFF"/>
<stop offset="0.19" stop-color="#0852F4"/>
<stop offset="0.53" stop-color="#1C33D8"/>
<stop offset="0.98" stop-color="#3C03AA"/>
<stop offset="1" stop-color="#3E00A7"/>
</linearGradient>
<linearGradient id="paint10_linear_196_1397" x1="496.753" y1="2019.94" x2="496.753" y2="1988.11" gradientUnits="userSpaceOnUse">
<stop stop-color="#005DFF"/>
<stop offset="0.19" stop-color="#0852F4"/>
<stop offset="0.53" stop-color="#1C33D8"/>
<stop offset="0.98" stop-color="#3C03AA"/>
<stop offset="1" stop-color="#3E00A7"/>
</linearGradient>
<linearGradient id="paint11_linear_196_1397" x1="865.952" y1="1423.43" x2="908.337" y2="1423.43" gradientUnits="userSpaceOnUse">
<stop stop-color="#FEC564"/>
<stop offset="0.32" stop-color="#FEAA62"/>
<stop offset="0.99" stop-color="#FF665E"/>
<stop offset="1" stop-color="#FF655E"/>
</linearGradient>
<linearGradient id="paint12_linear_196_1397" x1="204.977" y1="144.581" x2="217.83" y2="144.581" gradientUnits="userSpaceOnUse">
<stop stop-color="#FD69FF"/>
<stop offset="0.08" stop-color="#D050EA"/>
<stop offset="0.19" stop-color="#9D34D3"/>
<stop offset="0.29" stop-color="#741DC0"/>
<stop offset="0.38" stop-color="#560DB2"/>
<stop offset="0.46" stop-color="#4403AA"/>
<stop offset="0.52" stop-color="#3E00A7"/>
<stop offset="1" stop-color="#00AAFF"/>
</linearGradient>
<linearGradient id="paint13_linear_196_1397" x1="142.598" y1="144.581" x2="155.451" y2="144.581" gradientUnits="userSpaceOnUse">
<stop stop-color="#FD69FF"/>
<stop offset="0.08" stop-color="#D050EA"/>
<stop offset="0.19" stop-color="#9D34D3"/>
<stop offset="0.29" stop-color="#741DC0"/>
<stop offset="0.38" stop-color="#560DB2"/>
<stop offset="0.46" stop-color="#4403AA"/>
<stop offset="0.52" stop-color="#3E00A7"/>
<stop offset="1" stop-color="#00AAFF"/>
</linearGradient>
<linearGradient id="paint14_linear_196_1397" x1="6294.08" y1="9953.79" x2="6711.02" y2="9953.79" gradientUnits="userSpaceOnUse">
<stop stop-color="#FEC564"/>
<stop offset="0.32" stop-color="#FEAA62"/>
<stop offset="0.99" stop-color="#FF665E"/>
<stop offset="1" stop-color="#FF655E"/>
</linearGradient>
<linearGradient id="paint15_linear_196_1397" x1="4918.37" y1="9953.78" x2="5335.31" y2="9953.78" gradientUnits="userSpaceOnUse">
<stop stop-color="#FEC564"/>
<stop offset="0.32" stop-color="#FEAA62"/>
<stop offset="0.99" stop-color="#FF665E"/>
<stop offset="1" stop-color="#FF655E"/>
</linearGradient>
<linearGradient id="paint16_linear_196_1397" x1="159.444" y1="194.102" x2="201.237" y2="194.102" gradientUnits="userSpaceOnUse">
<stop stop-color="#FEC564"/>
<stop offset="0.65" stop-color="#FF8460"/>
<stop offset="1" stop-color="#FF655E"/>
</linearGradient>
<linearGradient id="paint17_linear_196_1397" x1="149.02" y1="173.998" x2="211.402" y2="173.998" gradientUnits="userSpaceOnUse">
<stop stop-color="white"/>
<stop offset="0.36" stop-color="#F8F8FB"/>
<stop offset="0.87" stop-color="#E5E6F0"/>
<stop offset="1" stop-color="#DFE0ED"/>
</linearGradient>
<linearGradient id="paint18_linear_196_1397" x1="14266.2" y1="31675.8" x2="17505.7" y2="31675.8" gradientUnits="userSpaceOnUse">
<stop stop-color="#FEC564"/>
<stop offset="0.32" stop-color="#FEAA62"/>
<stop offset="0.99" stop-color="#FF665E"/>
<stop offset="1" stop-color="#FF655E"/>
</linearGradient>
<linearGradient id="paint19_linear_196_1397" x1="173.793" y1="153.373" x2="186.647" y2="153.373" gradientUnits="userSpaceOnUse">
<stop stop-color="#FD69FF"/>
<stop offset="0.08" stop-color="#D050EA"/>
<stop offset="0.19" stop-color="#9D34D3"/>
<stop offset="0.29" stop-color="#741DC0"/>
<stop offset="0.38" stop-color="#560DB2"/>
<stop offset="0.46" stop-color="#4403AA"/>
<stop offset="0.52" stop-color="#3E00A7"/>
<stop offset="1" stop-color="#00AAFF"/>
</linearGradient>
<linearGradient id="paint20_linear_196_1397" x1="14266.2" y1="2991.12" x2="17505.7" y2="2991.12" gradientUnits="userSpaceOnUse">
<stop stop-color="white"/>
<stop offset="0.36" stop-color="#F8F8FB"/>
<stop offset="0.87" stop-color="#E5E6F0"/>
<stop offset="1" stop-color="#DFE0ED"/>
</linearGradient>
<linearGradient id="paint21_linear_196_1397" x1="188.844" y1="306.798" x2="226.985" y2="306.798" gradientUnits="userSpaceOnUse">
<stop stop-color="#FEC564"/>
<stop offset="0.03" stop-color="#FEC264"/>
<stop offset="0.69" stop-color="#FF7F60"/>
<stop offset="1" stop-color="#FF655E"/>
</linearGradient>
<linearGradient id="paint22_linear_196_1397" x1="15837.4" y1="22574.9" x2="17048.1" y2="22574.9" gradientUnits="userSpaceOnUse">
<stop stop-color="#FEC564"/>
<stop offset="0.65" stop-color="#FF8460"/>
<stop offset="1" stop-color="#FF655E"/>
</linearGradient>
<linearGradient id="paint23_linear_196_1397" x1="1702.61" y1="2422.01" x2="1702.61" y2="2276.78" gradientUnits="userSpaceOnUse">
<stop stop-color="#005DFF"/>
<stop offset="0.19" stop-color="#0852F4"/>
<stop offset="0.53" stop-color="#1C33D8"/>
<stop offset="0.98" stop-color="#3C03AA"/>
<stop offset="1" stop-color="#3E00A7"/>
</linearGradient>
<linearGradient id="paint24_linear_196_1397" x1="1762.12" y1="3860.2" x2="1762.12" y2="3493.89" gradientUnits="userSpaceOnUse">
<stop stop-color="#CB19FF"/>
<stop offset="0.14" stop-color="#AA15EC"/>
<stop offset="0.44" stop-color="#660CC4"/>
<stop offset="0.7" stop-color="#3305A8"/>
<stop offset="0.89" stop-color="#150196"/>
<stop offset="1" stop-color="#09008F"/>
</linearGradient>
</defs>
</svg>
