<svg width="48" height="42" viewBox="0 0 48 42" fill="none" xmlns="http://www.w3.org/2000/svg">
<path d="M6.41581 1.73696L0.407612 8.74688C-0.200629 9.45654 -0.118878 10.5248 0.590787 11.1331L1.04089 11.5188C1.75009 12.1267 2.81878 12.0445 3.42702 11.3348L9.44246 4.31649C9.80289 3.90317 10.4282 3.85587 10.8462 4.21183L10.8488 4.21408C11.0654 4.39977 11.1834 4.6584 11.1967 4.9226L11.1402 18.6796C11.2774 21.2592 12.4289 23.7808 14.545 25.5945L20.7168 30.8843C23.1763 32.9924 26.3799 33.6665 29.3104 32.9855C29.4746 32.9472 29.6389 32.9043 29.8016 32.8579L29.8017 28.5687C27.7604 29.6514 25.1791 29.4445 23.318 27.8494L21.7419 26.4985L29.2776 17.7064L30.8537 19.0574C32.0945 20.1209 32.7749 21.5962 32.8647 23.1078C32.8647 23.1078 32.8652 23.1082 32.8648 23.1087C32.879 23.3413 32.8644 36.0793 32.8644 36.0793L32.8647 36.8241C32.8632 36.9082 32.9021 37.4725 32.9302 37.6118C32.9307 37.6139 32.931 37.6163 32.9315 37.6183C33.1511 38.8324 33.8594 39.7937 34.3068 40.1772C34.3911 40.261 34.4788 40.3415 34.57 40.4197C36.6556 42.2073 39.7963 41.966 41.5842 39.88L47.5924 32.8701C48.2006 32.1604 48.1189 31.0922 47.4092 30.4839L46.9591 30.0982C46.2499 29.4903 45.1812 29.5725 44.573 30.2822L38.5576 37.3004C38.1971 37.7139 37.5718 37.7611 37.1538 37.4052L37.1512 37.4029C36.9345 37.2172 36.8166 36.9586 36.8033 36.6944L36.8599 22.9374C36.7226 20.3577 35.5712 17.8363 33.4549 16.0225L27.2833 10.7326C24.8238 8.62463 21.6202 7.95048 18.6896 8.63153C18.5254 8.66981 18.3611 8.71264 18.1984 8.75914L18.1982 13.0483C20.2396 11.9656 22.821 12.1725 24.682 13.7676L26.2582 15.1185L18.7224 23.9105L17.1463 22.5596C15.9054 21.4961 15.2251 20.0208 15.1353 18.5091C15.1353 18.5091 15.1348 18.5088 15.1352 18.5083C15.121 18.2756 15.1356 5.53769 15.1356 5.53769L15.1354 4.79295C15.1368 4.70881 15.0979 4.14451 15.0698 4.00515C15.0692 4.00315 15.0691 4.00068 15.0685 3.99863C14.8488 2.78458 14.1406 1.82328 13.6932 1.43981C13.6089 1.35601 13.5212 1.27549 13.43 1.19728C12.4921 0.393383 11.3407 -0.000221252 10.195 -0.000221252C8.79312 -0.000263214 7.39973 0.589031 6.41581 1.73696Z" fill="url(#paint0_linear_196_1098)"/>
<defs>
<linearGradient id="paint0_linear_196_1098" x1="-1.10891e-09" y1="-30.0985" x2="51.0195" y2="-30.1145" gradientUnits="userSpaceOnUse">
<stop stop-color="#B621FE" stop-opacity="0.32"/>
<stop offset="9.3e-07" stop-color="#B621FE"/>
<stop offset="1" stop-color="#1FD1F9"/>
</linearGradient>
</defs>
</svg>
