<svg viewBox="0 0 40 40" fill="none" xmlns="http://www.w3.org/2000/svg">
<path d="M7.5 2.5H2.5C1.11719 2.5 0 3.61719 0 5V7.5H10V5C10 3.61719 8.88281 2.5 7.5 2.5Z" fill="#6F74FC"/>
<path d="M0 35C0 36.3828 1.11719 37.5 2.5 37.5H7.5C8.88281 37.5 10 36.3828 10 35V32.5H0V35Z" fill="#6F74FC"/>
<path d="M10 10H0V30H10V10Z" fill="#6F74FC"/>
<path d="M20 2.5H15C13.6172 2.5 12.5 3.61719 12.5 5V7.5H22.5V5C22.5 3.61719 21.3828 2.5 20 2.5Z" fill="#6F74FC"/>
<path d="M12.5 35C12.5 36.3828 13.6172 37.5 15 37.5H20C21.3828 37.5 22.5 36.3828 22.5 35V32.5H12.5V35Z" fill="#6F74FC"/>
<path d="M22.5 10H12.5V30H22.5V10Z" fill="#6F74FC"/>
<path d="M28.053 2.75005L25.6312 3.38287C24.2952 3.73443 23.4905 5.0938 23.8421 6.42974L24.4749 8.85161L31.7327 6.96099L31.0999 4.53912C30.7483 3.20318 29.389 2.39849 28.053 2.75005Z" fill="#6F74FC"/>
<path d="M32.364 9.37793L25.1055 11.2664L30.1415 30.6224L37.4 28.7339L32.364 9.37793Z" fill="#6F74FC"/>
<path d="M31.3966 35.4611C31.7481 36.797 33.1075 37.6017 34.4434 37.2501L36.8653 36.6173C38.2013 36.2658 39.0059 34.9064 38.6544 33.5705L38.0216 31.1486L30.7638 33.0392L31.3966 35.4611Z" fill="#6F74FC"/>
</svg>
