<svg viewBox="0 0 40 40" fill="none" xmlns="http://www.w3.org/2000/svg">
<path fill-rule="evenodd" clip-rule="evenodd" d="M17.5 0.769247L33.5234 16.8864C35.4844 18.863 35.4844 22.0661 33.5234 24.0505L19.2812 38.3708C17.3125 40.3474 14.125 40.3474 12.1562 38.3708L1.47656 27.6286C-0.492188 25.6521 -0.492188 22.4411 1.47656 20.4646L15.7188 6.13643L13.9375 4.34737C11.5703 1.96456 15.1719 -1.5745 17.5 0.769247ZM29.4453 19.9411L19.2812 9.72237L9.11719 19.9411H29.4453ZM29.7656 34.8164C29.7656 41.543 39.8359 41.5039 39.8359 34.8164C39.8359 32.0195 34.8047 27.2227 34.8047 27.2227C34.8047 27.2227 29.7656 32.0195 29.7656 34.8164Z"/>
</svg>
