<svg viewBox="0 0 22 22" xmlns="http://www.w3.org/2000/svg">
<path fill-rule="evenodd" clip-rule="evenodd" d="M9.85298 0.506618C10.0759 0.506269 10.3158 0.506377 10.5746 0.506493L11.0013 0.506618C14.4189 0.506618 14.824 0.518885 16.1736 0.580219C17.4216 0.637286 18.0989 0.845822 18.5501 1.02102C19.1475 1.25303 19.5733 1.53036 20.0211 1.97837C20.4691 2.42637 20.7464 2.85304 20.979 3.45038C21.1542 3.90105 21.363 4.57839 21.4198 5.82641C21.4811 7.17575 21.4944 7.58109 21.4944 10.9971C21.4944 14.4132 21.4811 14.8185 21.4198 16.1678C21.3627 17.4159 21.1542 18.0932 20.979 18.5439C20.747 19.1412 20.4691 19.5665 20.0211 20.0143C19.5731 20.4623 19.1477 20.7396 18.5501 20.9716C18.0995 21.1476 17.4216 21.3556 16.1736 21.4127C14.8242 21.474 14.4189 21.4874 11.0013 21.4874C7.58335 21.4874 7.17828 21.474 5.82893 21.4127C4.58092 21.3551 3.90358 21.1466 3.45211 20.9714C2.85477 20.7394 2.4281 20.462 1.98009 20.014C1.53209 19.566 1.25475 19.1404 1.02222 18.5428C0.847016 18.0921 0.638214 17.4148 0.581413 16.1668C0.520079 14.8174 0.507812 14.4121 0.507812 10.9939C0.507812 7.57576 0.520079 7.17255 0.581413 5.82321C0.638481 4.57519 0.847016 3.89785 1.02222 3.44665C1.25422 2.84931 1.53209 2.42264 1.98009 1.97463C2.4281 1.52663 2.85477 1.24929 3.45211 1.01676C3.90331 0.840755 4.58092 0.632753 5.82893 0.575419C7.00975 0.522085 7.46735 0.506085 9.85298 0.503418V0.506618ZM17.8329 2.63188C16.9849 2.63188 16.2969 3.31909 16.2969 4.16736C16.2969 5.01537 16.9849 5.70338 17.8329 5.70338C18.6809 5.70338 19.3689 5.01537 19.3689 4.16736C19.3689 3.31935 18.6809 2.63135 17.8329 2.63135V2.63188ZM4.42969 11.0002C4.42969 7.37008 7.37277 4.4269 11.0028 4.42676C14.633 4.42676 17.5754 7.36999 17.5754 11.0002C17.5754 14.6303 14.6333 17.5722 11.0031 17.5722C7.37292 17.5722 4.42969 14.6303 4.42969 11.0002Z"/>
<path d="M11.0011 6.7334C13.3574 6.7334 15.2678 8.64355 15.2678 11.0001C15.2678 13.3564 13.3574 15.2668 11.0011 15.2668C8.64453 15.2668 6.73438 13.3564 6.73438 11.0001C6.73438 8.64355 8.64453 6.7334 11.0011 6.7334V6.7334Z"/>
</svg>
