<svg viewBox="0 0 24 20" fill="none" xmlns="http://www.w3.org/2000/svg">
<path d="M11.5344 10.8933C9.65952 10.8933 0.0144 5.76025 0.01536 5.76025L0 17.2803C0 18.3401 0.86112 19.2003 1.92192 19.2003H21.1469C22.2096 19.2003 23.0698 18.3401 23.0698 17.2803L23.0544 5.76025C23.0544 5.76025 13.5898 10.8933 11.5344 10.8933Z"/>
<path d="M11.5344 8.25302C13.4995 8.25302 23.0544 2.88 23.0544 2.88L23.0698 1.92C23.0698 0.86016 22.2096 0 21.1469 0H1.92192C0.86016 0 0 0.86016 0 1.92V2.77536C0 2.77536 9.65952 8.25302 11.5344 8.25302Z"/>
</svg>
