<svg viewBox="0 0 24 24" fill="none" xmlns="http://www.w3.org/2000/svg">
<path d="M22.3153 17.1342V20.2647C22.3165 20.5553 22.257 20.8429 22.1405 21.1092C22.0241 21.3755 21.8534 21.6145 21.6392 21.811C21.4251 22.0074 21.1723 22.157 20.897 22.2501C20.6217 22.3432 20.33 22.3778 20.0405 22.3516C16.8296 22.0027 13.7452 20.9055 11.0353 19.1481C8.51409 17.5461 6.37654 15.4085 4.77445 12.8873C3.01095 10.165 1.91348 7.0657 1.57097 3.84031C1.54489 3.55176 1.57919 3.26093 1.67167 2.98636C1.76414 2.71178 1.91278 2.45947 2.10812 2.24548C2.30345 2.0315 2.5412 1.86053 2.80623 1.74347C3.07126 1.6264 3.35776 1.5658 3.64749 1.56553H6.77793C7.28433 1.56055 7.77527 1.73987 8.15924 2.07009C8.54321 2.4003 8.79401 2.85887 8.86488 3.36031C8.99701 4.36212 9.24205 5.34577 9.59532 6.29249C9.73571 6.66597 9.7661 7.07188 9.68287 7.4621C9.59965 7.85233 9.40631 8.21052 9.12575 8.49423L7.80054 9.81944C9.28598 12.4318 11.449 14.5949 14.0614 16.0803L15.3866 14.7551C15.6703 14.4745 16.0285 14.2812 16.4187 14.198C16.809 14.1148 17.2149 14.1451 17.5884 14.2855C18.5351 14.6388 19.5187 14.8838 20.5205 15.016C21.0274 15.0875 21.4903 15.3428 21.8213 15.7334C22.1522 16.1239 22.328 16.6225 22.3153 17.1342Z" stroke-width="2.08696" stroke-linecap="round" stroke-linejoin="round"/>
</svg>
