<svg viewBox="0 0 26 15" fill="none" xmlns="http://www.w3.org/2000/svg">
<path d="M14.2586 14.8757C14.2586 14.8757 14.7206 14.8253 14.9573 14.5758C15.1739 14.3472 15.1664 13.9158 15.1664 13.9158C15.1664 13.9158 15.1376 11.9014 16.0904 11.6039C17.0295 11.3114 18.2352 13.552 19.5149 14.4136C20.4815 15.065 21.2152 14.9224 21.2152 14.9224L24.6347 14.8757C24.6347 14.8757 26.4227 14.7675 25.575 13.3873C25.5049 13.2742 25.0805 12.366 23.0333 10.5003C20.8884 8.54729 21.1764 8.86316 23.7582 5.48449C25.3309 3.42705 25.9594 2.17096 25.7629 1.63386C25.5763 1.12012 24.4194 1.25654 24.4194 1.25654L20.5704 1.27989C20.5704 1.27989 20.2849 1.24179 20.0733 1.36593C19.8667 1.4876 19.7328 1.77152 19.7328 1.77152C19.7328 1.77152 19.1242 3.36314 18.3116 4.71756C16.5975 7.57388 15.9126 7.72505 15.6321 7.54807C14.9798 7.13388 15.1426 5.88639 15.1426 5.00024C15.1426 2.23118 15.5708 1.0771 14.3099 0.778439C13.8917 0.678886 13.5837 0.613746 12.5132 0.602685C11.1396 0.589165 9.97767 0.607601 9.31907 0.923468C8.88083 1.13364 8.54277 1.60313 8.74936 1.63017C9.00354 1.66336 9.5795 1.78258 9.88501 2.19062C10.2794 2.71789 10.2656 3.90024 10.2656 3.90024C10.2656 3.90024 10.4923 7.15969 9.73601 7.56405C9.21765 7.84181 8.50645 7.27522 6.97764 4.68314C6.19508 3.35577 5.60409 1.88828 5.60409 1.88828C5.60409 1.88828 5.49015 1.6142 5.28606 1.46671C5.0394 1.2885 4.69507 1.23319 4.69507 1.23319L1.0377 1.25654C1.0377 1.25654 0.488025 1.27129 0.286438 1.50604C0.107388 1.71375 0.272664 2.14515 0.272664 2.14515C0.272664 2.14515 3.13621 8.72182 6.37914 12.0366C9.35287 15.0748 12.7285 14.8757 12.7285 14.8757H14.2586Z"/>
</svg>
